<mxfile host="app.diagrams.net" agent="Mozilla/5.0 (Windows NT 10.0; Win64; x64) AppleWebKit/537.36 (KHTML, like Gecko) Chrome/141.0.0.0 Safari/537.36" version="28.2.8">
  <diagram name="Page-1" id="-umKuxoXE3qp6u_f8tHC">
    <mxGraphModel grid="1" page="1" gridSize="10" guides="1" tooltips="1" connect="1" arrows="1" fold="1" pageScale="1" pageWidth="1200" pageHeight="1920" math="0" shadow="0">
      <root>
        <mxCell id="0" />
        <mxCell id="1" parent="0" />
        <mxCell id="mzmcX6kReQTpVKNeZ8k2-48" value="" style="rounded=0;whiteSpace=wrap;html=1;" vertex="1" parent="1">
          <mxGeometry x="20" y="-40" width="1130" height="550" as="geometry" />
        </mxCell>
        <mxCell id="mzmcX6kReQTpVKNeZ8k2-60" value="" style="rounded=1;whiteSpace=wrap;html=1;fillColor=#f8cecc;strokeColor=#b85450;strokeWidth=7;" vertex="1" parent="1">
          <mxGeometry x="140" y="200" width="220" height="250" as="geometry" />
        </mxCell>
        <mxCell id="mzmcX6kReQTpVKNeZ8k2-22" value="" style="rounded=1;whiteSpace=wrap;html=1;fillColor=#d5e8d4;strokeColor=#82b366;strokeWidth=7;" vertex="1" parent="1">
          <mxGeometry x="922" y="140" width="210" height="250" as="geometry" />
        </mxCell>
        <mxCell id="yabJzohfQcr6jpo9jlKl-19" value="" style="curved=1;endArrow=classic;html=1;rounded=0;entryX=0.433;entryY=0.011;entryDx=0;entryDy=0;entryPerimeter=0;exitX=0.145;exitY=0.652;exitDx=0;exitDy=0;exitPerimeter=0;fillColor=#1ba1e2;strokeColor=#006EAF;strokeWidth=4;" edge="1" parent="1" source="mzmcX6kReQTpVKNeZ8k2-28" target="mzmcX6kReQTpVKNeZ8k2-54">
          <mxGeometry width="50" height="50" relative="1" as="geometry">
            <mxPoint x="119" y="160" as="sourcePoint" />
            <mxPoint x="223" y="274" as="targetPoint" />
            <Array as="points">
              <mxPoint x="197" y="234" />
            </Array>
          </mxGeometry>
        </mxCell>
        <mxCell id="yabJzohfQcr6jpo9jlKl-20" value="Scrapping/&lt;div&gt;Downloading&lt;/div&gt;" style="text;html=1;whiteSpace=wrap;strokeColor=none;fillColor=none;align=center;verticalAlign=middle;rounded=0;" vertex="1" parent="1">
          <mxGeometry x="179" y="150" width="60" height="30" as="geometry" />
        </mxCell>
        <mxCell id="yabJzohfQcr6jpo9jlKl-23" value="&amp;nbsp; Keywords for comparison&lt;div&gt;&amp;nbsp; &amp;nbsp; &amp;nbsp; - Genre&lt;/div&gt;&lt;div&gt;&amp;nbsp; &amp;nbsp; &amp;nbsp; - Keywords&lt;/div&gt;&lt;div&gt;&amp;nbsp; &amp;nbsp; &amp;nbsp; - Franchise/actors/director/studio&lt;/div&gt;" style="text;html=1;whiteSpace=wrap;strokeColor=#666666;fillColor=#f5f5f5;align=left;verticalAlign=middle;rounded=0;fontSize=10;fontColor=#333333;" vertex="1" parent="1">
          <mxGeometry x="299.56" y="100" width="170.44" height="65" as="geometry" />
        </mxCell>
        <mxCell id="yabJzohfQcr6jpo9jlKl-24" value="" style="curved=1;endArrow=classic;html=1;rounded=0;entryX=0.066;entryY=0.083;entryDx=0;entryDy=0;entryPerimeter=0;fillColor=#1ba1e2;strokeColor=#006EAF;strokeWidth=4;startArrow=none;startFill=0;" edge="1" parent="1" source="mzmcX6kReQTpVKNeZ8k2-29" target="mzmcX6kReQTpVKNeZ8k2-54">
          <mxGeometry width="50" height="50" relative="1" as="geometry">
            <mxPoint x="120" y="156" as="sourcePoint" />
            <mxPoint x="199" y="274" as="targetPoint" />
            <Array as="points">
              <mxPoint x="173" y="234" />
            </Array>
          </mxGeometry>
        </mxCell>
        <mxCell id="yabJzohfQcr6jpo9jlKl-42" value="&lt;font style=&quot;color: rgb(255, 51, 51);&quot;&gt;(1)&lt;/font&gt;" style="text;html=1;whiteSpace=wrap;strokeColor=none;fillColor=none;align=center;verticalAlign=middle;rounded=0;fontStyle=1" vertex="1" parent="1">
          <mxGeometry x="179" y="120" width="60" height="30" as="geometry" />
        </mxCell>
        <mxCell id="yabJzohfQcr6jpo9jlKl-43" value="Clean&lt;div&gt;(queries)&lt;/div&gt;" style="text;html=1;whiteSpace=wrap;strokeColor=none;fillColor=none;align=center;verticalAlign=middle;rounded=0;fontSize=10;" vertex="1" parent="1">
          <mxGeometry x="271.08" y="240" width="60" height="30" as="geometry" />
        </mxCell>
        <mxCell id="yabJzohfQcr6jpo9jlKl-45" value="&lt;font style=&quot;color: rgb(255, 51, 51);&quot;&gt;(2)&lt;/font&gt;" style="text;html=1;whiteSpace=wrap;strokeColor=none;fillColor=none;align=center;verticalAlign=middle;rounded=0;fontStyle=1" vertex="1" parent="1">
          <mxGeometry x="254.71" y="240" width="31" height="30" as="geometry" />
        </mxCell>
        <mxCell id="yabJzohfQcr6jpo9jlKl-83" value="" style="endArrow=none;html=1;rounded=0;" edge="1" parent="1">
          <mxGeometry width="50" height="50" relative="1" as="geometry">
            <mxPoint x="67" y="16" as="sourcePoint" />
            <mxPoint x="1107" y="16" as="targetPoint" />
          </mxGeometry>
        </mxCell>
        <mxCell id="yabJzohfQcr6jpo9jlKl-84" value="Airflow&lt;div&gt;&lt;font style=&quot;color: rgb(65, 133, 0);&quot;&gt;&lt;b&gt;Kubernates +1&lt;/b&gt;&lt;/font&gt;&lt;/div&gt;" style="text;html=1;whiteSpace=wrap;strokeColor=none;fillColor=none;align=center;verticalAlign=middle;rounded=0;fontSize=16;" vertex="1" parent="1">
          <mxGeometry x="519" y="-25" width="120" height="30" as="geometry" />
        </mxCell>
        <mxCell id="mzmcX6kReQTpVKNeZ8k2-6" value="" style="image;aspect=fixed;html=1;points=[];align=center;fontSize=12;image=img/lib/azure2/general/Gear.svg;" vertex="1" parent="1">
          <mxGeometry x="944" y="265" width="40" height="40" as="geometry" />
        </mxCell>
        <mxCell id="yabJzohfQcr6jpo9jlKl-67" value="Recommendation Engine&amp;nbsp;&lt;div&gt;&lt;span style=&quot;background-color: transparent; color: light-dark(rgb(0, 0, 0), rgb(255, 255, 255));&quot;&gt;Word2 Vec or embedding&lt;/span&gt;&lt;/div&gt;" style="text;html=1;whiteSpace=wrap;strokeColor=#001DBC;fillColor=#0050ef;align=center;verticalAlign=middle;rounded=0;fontColor=#ffffff;" vertex="1" parent="1">
          <mxGeometry x="962.12" y="285" width="154.75" height="50" as="geometry" />
        </mxCell>
        <mxCell id="mzmcX6kReQTpVKNeZ8k2-10" value="" style="aspect=fixed;sketch=0;html=1;dashed=0;whitespace=wrap;verticalLabelPosition=bottom;verticalAlign=top;fillColor=#2875E2;strokeColor=#ffffff;points=[[0.005,0.63,0],[0.1,0.2,0],[0.9,0.2,0],[0.5,0,0],[0.995,0.63,0],[0.72,0.99,0],[0.5,1,0],[0.28,0.99,0]];shape=mxgraph.kubernetes.icon2;prIcon=control_plane" vertex="1" parent="1">
          <mxGeometry x="460" y="-30.44" width="39" height="37.44" as="geometry" />
        </mxCell>
        <mxCell id="mzmcX6kReQTpVKNeZ8k2-26" value="Connector" style="ellipse;whiteSpace=wrap;html=1;strokeColor=light-dark(#000000,#474747);" vertex="1" parent="1">
          <mxGeometry x="884" y="308" width="90" height="40" as="geometry" />
        </mxCell>
        <mxCell id="mzmcX6kReQTpVKNeZ8k2-30" value="" style="curved=1;endArrow=classic;html=1;rounded=0;entryX=0.625;entryY=0;entryDx=0;entryDy=0;entryPerimeter=0;" edge="1" parent="1" target="mzmcX6kReQTpVKNeZ8k2-29">
          <mxGeometry width="50" height="50" relative="1" as="geometry">
            <mxPoint x="120" y="156" as="sourcePoint" />
            <mxPoint x="199" y="274" as="targetPoint" />
            <Array as="points" />
          </mxGeometry>
        </mxCell>
        <mxCell id="mzmcX6kReQTpVKNeZ8k2-31" value="" style="shape=image;verticalLabelPosition=bottom;labelBackgroundColor=default;verticalAlign=top;aspect=fixed;imageAspect=0;image=data:image/png,iVBORw0KGgoAAAANSUhEUgAAAEoAAABFCAYAAADthnCkAAAAAXNSR0IArs4c6QAAAARnQU1BAACxjwv8YQUAAAAJcEhZcwAADsMAAA7DAcdvqGQAABuASURBVHhe7VtpkB1Xdf767e/Nm3nz5s2iGe2a0WYJ23hT5JgCDLbjBSwCLjB2YqrCUkUV+cWf/EryI1QlVUmliuVHgJDEBhxiAwEMBK9ybCNvkixblrWOlpmRZt/evL278323u2eeRrPJNlUJ8Rmd18vdzvnuOeee292yXBLeo2XJch0CZflXS5LjH1dC6nBFnf6foZB/fI+WofeAWiF5QClKBbwgqSBwp98/t1oJeTGqni7BIEAwKHDhtZg7zifLsshh/+p/L9VrtRwtCZTrOry04RSLqI0O0/wqbMAKrkAgGCELoUjEnCPMYzTGI4004AjrCTDTp448seq9XQWm8HdHvnY2h7F5nOK1XbORjYaNOxleAWKLpgeOsRgbYcfG5MEDeONfv4uGyjAaCUCoEoFDha1oFMnGRtihEKrRBGpNWYQyjbAak4g0ppDKZdGQziDJ+2hsBhIpD1BK5YYixCwCg7s3JIX2QdTNd4if0V0/QofdFshDjotfnh3G0OAovnjDdrRwjCjrhE1lnxehRYFS/y7hirg12BfO48QPH8Tgc08gO5NHqmSbWXDDFqqWg4JThe1YiCUagFgUlSjvRwlkPI5kNIWmdA6J9i6kNm1Apqcb6MgB6Q4gyWOckxJW6uFSn0DaYK7fAVE+imTCQ5nHc7z164ERPPL6MbRGga/dfCO6eI9Th6gP5tsCivZEmGhRam2zp75evPWDB1F4cR+y45NIOyytlVGoFeCkwojTxWK1EKvyvgEpiipnkD8I22HY8SQmaYETEQuNa7qw7oYPIX31LsRWtyHcTHEJMEJ0XSOxXPvtAyWFxBVyiTzIi73TefzjC69hgOZzQ1Mcf7frOqyjbo0sf0dAeQmmepDQJIKC8wM486OHMfH0k2hh3IqUCghZFVTCVZovLUqBwCVYjEVyXbXX+GI3FEbFiqBCd6uRi4xflaY0GrduQ+6GXchdtwuhVs5xhICFExrxbZMBifE1T83PU65fj47j+6d68UaxhlrExS2NcXztqquwmeVp1jWuJ1oCqPBfkfzzi8jmcDWy68+uC8Yl9tS8dQuKhUmMj4ywhGDWqnBCqs1zuqEbIlsE2LDusYyuZauMf5wZhGiNllOEVZlEqa8Po0eOYuLMKXR0cH4zjGURWpgC/zugIuW5wOH3jk7jJ70DOMCAVQ0VjDxbIzHc1tmBNurDafGGWma4Zex7zh615LuMQVYmg4333ofGmz6AyWwOea50VVqKG6Z7MXDVCJRDoQwoZJFLK1OAVm9hAhXlbCd4zNLdOtkmNzWO6v6Xsfdv/wbnf/MruFNjnrsvYusXk2/5qku2yXK5QSeMFyeq+P6hE3itSKuv1cwqHOL0JmT9DAsCyVg7eTla1KK4+LNLjwMKRbyVDgzSLRvk4S5G+/qN4km1oHJaubw/tnUiBIbCEaiwYd6jVJ6pM+DXXOJBQCl0jEt2cqaEid4zXACiSKxez7iVoLWyX9VfcMY1HTUWESgC43IyaTO4wNX68cEiHjraj0Msn4qzMVdm1MJIcrxr0ml8pL0VWd6WDt6ELjjALAnQBUnNBFZwPos74wtiXN3a29Fx561ou/s2jCcbMVlkPSeGiBMlEyAjOB1S1uWzVqHA6tSfHDrgCJVLEOjEIOPgIw9j/MmfA/lRguy180efR5IwSpuKgusFpllviPzk5BQe7D2GV+wCJuMcWzMjJThRNi0rRsuSh5heOcmL9V5PiwI1n7xs28PeVdJIsKyWHNbdehs23HkXJnNtmA4nGURjHJtSs6IUFFAeeyApUnmiESBfPhO3yGEK3WBXEBrsxenHHkXp+aeA8SFaqqLlpaR7iptcSkzgHuTV04U8vnXkMF6qFDFDkFhELQUKSTIwPkaVCC/Y4+K0YqACkpJVc1RcaoTT3IFVd9yFNXs+gXxHByaYUM4QFZtSCRQFccfELR8igmaZIO8F9jDdTnFLLLAsBtumCGNY3ynkn3sSpZeeBSaHaa0a9VIqs71i0gXyYxMj+PqR1/AmMaglmaAJD1lOgAlPY9xJRGNxnvrgrZAuGyiNrSBoIkMogTDBqjW2YPXH7sSqO2/DcIpWlWKWbkxbsikGSF7fzWg1hnVOwAzrnExnNQmi9Eo6ZcTG+zG0979QOvACrJlJ3l3ACqjBgFPBvulpPHq0F4dmHFQYQ01MYugyHHgXBVHakGlq4lg+VCvE67KB0oDU2TQ0jSNxRNItsJrb0XXH3djJFXEs24KpaJyroQmznpzKryhe1WyWGeyFiE+zYJJDCvgOAz/bhug+XTFuofbtxeSLsqwRunWRfTElYV1vdbPw4pSDf97/Jl6drsKNMH66jKPsw4CjigFQ5JRdRXsqbibcoyAULE2XD5SvkaduQLqRBJo60frRu9C95x7U1m7ANJf/Ime2or0gAapZDLpkJaWWYbacJ6HiloDiDBAQznqxgMaZEVRe2Yup55k6jJ2FY5fA9Bej5CeGi/jeoX4crHKsBPMwLTYVSqc+ZFXiYFrZd9apoSPKxYZ3jPXyx8vwlib18LZIeF1EcjU9PcitQdttexi3Po7xdCNKqTRmCGKBGbfsRtm7TeetUVTjcGxmmF0YpuBiSwsGb8gltd8MF0Yx9MqzGH/5eYQnRlFinf8ulPGj02ewrzyNqQQngOmLJ5nfYUC6JeI95W4Z9s0E3Se1mbOvxWjRPOpyyYxLgYxMyRQaNqxFU64FB84XcDaUw0iyGWXu5VzmMQrsCh7K7L1Qpp9AG4oeDpn8KZnNIMaYJ+NwGMzjNL/qVB6lUBIDyQy+eew4np7Oo5jklkcPJYLVLQBhrktDehKynRv229dyMnnNSEaY6Ph6EsLzedUvoncNKJGRj0pxb4xqnAF93Wa8Hl6HV6xOjLT3IE+w8tUyHLeIBJ0nwdzJE+5iMS0CpW1jY2sLIom4eUoRJ6IJ4hviJvtsvoiXi7SmcgEjTb67Bc0D87y4S0MRAnVTWwYfbFWyySSXfQarn+xqfv16MuWXS0EuJA5IY6gzm395CtrPq4cuxPGdQgpPb7wWe9d9AM9uuRUv7rgZR7p6MNLQTMu6dPgaY0iF1mNFwwibfMejEDPKcC3CrQf3jflxDI+do0lwHynr1IrBHYo5BiDNSiTypNXVuvY27iK8FdaUqJp3uiQtC5T6EHtDzQU+XQdl9VSgCIMsfPxcEQ/uP4uT8U5cyKzFydxaHCZAh7fuwoEtH8GhVTtwlmDNhLhHZCfqz6SzRr8I3S+JcIh7ezvOMm3IaTV2lCtdA0YTTTgXjmNGfkvgjP8aHxaLgmudsk/GOB2beL+TiwhtkFIGdUk8DXQRL0QrBko8H6x60vUMWYnfr8+U8PChEZxzUigyzypxuR5joD3DJPCt5jV4ndZ1cONNONyxGSPM8EtcER0qpuQzzoQwFk8iThBDIWb/3BY5imZcvcpMRS7E2/BmrB3HUjlMxKhylPGJrmlY2kj/AKRASLp4iCnFalrohlgMjXRPE5tUpHIBJQ6uF6BlgVKFgOXPXmqogWqGvUzJNg/ITsmShhw8cmQYb5QjKDU2IB+uohC2zVPMKrP2KasB46kO9Ha9D4c2Xoe+lh6mEQ3GBRjCOflMGCtVxieCEKswJWLeZBVRYbY+1JjEa5ksDmbacTrVTuuixen5vQGnnjWldSoLuEqJOVkYHUxGA0wDWgyceloWqHqSDB55IdAygcGhxYTQx9OnBsr4wcsDOFFOoxBrQZm7dTOEWY3IdoQtYty8xtGfXoOjndfhzfXXor9lPS0viRKBlIuF6HoRLvcOtzMK6pVQ3Ljpy9k2PJvN4bWmVpyNZ9glrcnkXPPIaM4fkyh5U5zmhvuKTBIZ/6XC5dKK20hVVa5neXreDmGApfuGyvj5/nGcL2SYWKYRJihpxpeGWoKGwbylzH1+le5Fzat0o4lYM841b8ZrBOpEx3aMJbLIR2KoMBlMcYuhtzs2AZuKpdCXbiVIq/Er8jPZVhxtzLKeHu75T5QETD2LBJIBi+UMgqsYo3a2ZMwTTcnuT90sL0eevpdBvo1QAIumH8Eog/FLgzU89MwgzgzGMTloo3gqD7e3gOLpMuyBKmKjLpJjXI4nuHMvcXPL4MpwhHI4Y8A62bUdvbkuTCrexBLItLahYjsYYz52hOe/6VqHn7ZtxOO5jTjU1IaZOAFSkDbCSJr5arDMuJ9Ypy7WM424qqXVvEx4O7TEM/OFSZWpg5mofsWkY1P47pOn8Nag3vplWc6tBwVTrOHS5TGtwzweZjocaYgikU4gkYggHqWlhUu4YvQgrn7zMVx9eh96IjV0beqhFTXieGsH9mdasK+lGW8k2hj4cwxJAoU2oOhr8AnsYZ4a2gupTs3C6moJX9m5EfczL2tlEaUxVYIcSjR3dvF5QJcNlKjMFpPs7cnzRXzjkZM4NhrFTCVBADXFGqZOAJMr+TNuhuKGl8CFYlwWUoxI7TH0WAO4dvhVdO//OXbmYoitW4uDdMVXmjtwKNeGEwzi5XCCzZVL16vhg7aQapwEMMFMlm18NNGAr17bg2t4iztSkm9pdZY4d0aqR8Tv+rKBUvgeZ4t9F6r4y2+/gIGZLgbdLAq0oGokyPg8MoIwNQiZBzMqoYDmxQJXtyiTRa5q5eQ0msKj2Dx9HLkDT2HjztXAldtxNJLGyXQL+jNMTLlaGetQ94YWAaf+vupXKtjKzP6rW7pxazaGNlq1JAks6XKAuqh8MRKWjhI7UoGHkxMuvv3oYYyXO7kqtaOcZ9bMZFDPxiWE96eu9TjFV9Ifyg0xVYjWTEJRdfOc+XHkUyN4KzGM11fH8Gx7Mx5v7cL+ltXob+rkotZEhWlJWkFlnVrqDbMzo4R/IuUU+DTvYoLUxm3O3dksdjXH0MB4weWBNT20vVZKdDz2Ogj4UloRUKLA8EYrwK8ODuFAr42JQiPKDi1GD8q03aACAshj78+QAq/FAB7iPi9SgJ2YQS01AadpEGg7D2f9GIpX2hi8JoWBnavQt3YVptpb4TQyBYjq+RL7N/kS+7sILE/d2YkwgZ3n1Sqay0Xct3kTPrOpDV28lWJirzcwXHcDqXh8F4GSHentRlivozhj58YqeOLQOCrhdoIT50QXUIopIax68l5EdDFZkFVhwlmiJU2jFp/kTmQEblsfsOU00H0K6DpJ9zoKJzeFycgwKimmr1kCkyY36TkXmRn1gqQxA9YbIiraxHzsY90b8JmeNmxj3tRM3WO0dmX42uUtS/V9+rQMUB66+mWOjDEmjvvOTKCXy32FILlxzS7B0IrGozcz6p82RdTkihGm3BHmTq6+T4gzbcgNwd3IDW03eTW5gZsed4iSTHPaaa4lXk+fRdSSW/Jar5pStKgGgsV0wWOeJ3zmdsfbxsQ4mRbamMHvWZPDn65vRw9lidITwpQvTKv29PaO4jl7upgXomWCucM/zYQ2uwDnH3/+zQN4tV9JJQUmGOYzoHmkewJKRIMyP4WGCdRy/bSe80AngUmRrQn2wQp57hKnCIyy7ApdLdWN0MbdcFJUtUb306NdiakJoSpzxDHkkkx6w9yidFamcGdXCz7TmsX76AEtXPXMa6mFdTe6LUQL3V3GorwHWiKlBEfO2jh5btw34YtJ9RbqrBbRyjYOu50ArSFQ7eQErSZMCwoUDzpTksh9HQpn4AwfZWM97C2zXD37CtfHJ11re0QcW7ni3sl86/6OVmxnrpUygdtrdrkkwwg4oCWBkvwaR5NZZatX3xiiJTGpDFYyYzVzHFiSWOfiKuNSubkPbjvdrH2A8YaAMU6BccuMoM5tJR3+eVj3WT7dS0s7Q2nHGb/L5nu02bGUxNJilGqEqwV0VfP4YEMYd3RmsYU1MgSJgcED8RKak3cxWqjGskAZYosKdXnr1ATTgSbeZzPpFRSKCUrgivV/doqWs4putmoYaBxh0KC7hWklxppIXMYNmwhANlsTlhW4IvYfYszqRzQyw2K9Tqgjb3B0hhzcGK/hs13tuCoWRY6ZXkJOZfpbiHx5DS9MC9VYEiiREZ8/Q6MOBoYrKJZp5ws001vr4M2v34q4McY1EKg2ApSkG+lrElMs81AfrFcmAFXOwmxb3Sdb3BMWaH1Dh1DJn+C9KbLvqjWW1WpoYrXrU1E8sH4DdnDw1tk8if17Jviu0aUa15EQlfwVnpwcGsM0VzC9rzUW5WPuG5Ih81qcKYTe9jqMTRW6nZUswUoRDFoF6ELUkPqyV9OQx9I8S9GIxqpYL8wAP3WElvUU3fAgy7Q62ohx/FW2jd1uBZ/I5XAFS9r9/Mh8kaWHWxJ8GVL9hXghWhIokQJagYP2ThWQ1yrCfZpH87r09XM5szUlE3rghnG4lQm4ZbqWqjuKP36IFFB+nDFK1SumoK7l0iK4Fq2x8BZwdi9w7jmEpo4jXj6PbUw1Pr0+h110tw428aTy3jkby1vU9eYoAGY+L0TLAqXhipzcgdEqQwkDtQLpgsSV0IqiSnZjEcYVG5nqFO7dsRP3dm5Fjtseq6ThmBSaR7deq1nLCugSSVmmZ94lAjZ8EM7pn2G6/z9x4vh/YHj0FSpQYA0viWFKzPpijqNVcXmsVkzLAKWn4wwjHHtomuK4UUQszh1N2/LZmDm5xphSo2spg5c7NRQm8flbt+JLu3fige6bcH/3bnQUUgiV2F59CBzFJpEG0bUBzD/Wgyf0TELG1bDM1TN/BH2jh/Avzz2C35x+DqOYRt6dQo0BXymjPjHyEBe/DfLFMOzTEkDJRVwzP0XGlLEiLcWNoTITfGtuiueYq0/NziPJDW/OncEnd2/C527uxBXMrK+MZnF/5wdx74YbsdFuZtxhXNK+TF/VqXE9KHWnhpRDmTEIqgK8VswItziJKo4xi//Wvkfxy/4XMGWVOFn6RJJVZ/GRnG8TrHm0BFACSZm5iwJzg9FJ7uXCCepHS6JimjlvwnQUh7ijSCBpn8Uf39SMP/toC7qIdYb6tdLdeqw07uncjVuy27AqmhP6pqkRwQAvXySbHE33fBZpHPPxGTvTQQ/SOaYdq+KwM4S/f+ZhPNG/H0M2czbWMZ9CzlqTaexx0N9ypCYB+7RES2VBnlyFmo3pAgXgZjOi+OM63MOZl0jmsx3VCjtlpO1R3H5lBl/4o9XY1GAjSaHD5htyByk3jg2RVty34TZ8ds2HsM5uY3tug6Q092mziswy7wc8Szw3l0RYVqichJbVF53EN59/FL848zIGuZDUeFu2dUlzkSZHLKo/92ne5SwtAZQnkwKlnl+XGaikk76ek+7eV5rs1uVmtzKOBmcYn9i9Cn/xqY1YF6uhweUGOFxicGfsYr0I92tZN41t4TXYk7sRn1x1PbZZdMMq45Wsa9aaNOp8FlHUYNsikIS/iJZWpisetofw9Rd+gicn3sBAaAZl1g1wMJ4tDrpaglRtIVoCqDkhXVqPPrQ3D/A4V/peshLWJzxhqldCe2IKd1/biC/d0o4MR0owplkERm6rV+zB4HFaSiMvNtHW9qy+Fh9reR82h9ppobIsdqqFIaBgeHNLIOmcjQNWdmuYBfxnE+8LBOyvf/pd/Nuxp9BXG2POZ+zKlPOXVzya/nTiHxcgzwfm5kK0BFBeT0ruqrW53tXY5iyGonK7GaQxjDuuzOLzt63HpgS3cqwaC+n/yugj1Ahl1Hs0ujFnWPrps+U29rrdohtu/Ag+u/2D2OA0MWlnYYWqmLwqOGo0yeFzPVCz9zmg2Ri7KDLJvZAo4juvPYYfn3qGbpjnn6IWFxpWUbJcr/zl0NKuRzmkZF5fXVAoWZT+HK5AmUZaSPEsPn59F768pwfbm2NI6JNDxiwlnba+PScglgHLMsai0CPAouw1w23reob5T/d8GJ+75hZsizabRc3svgNfMS62AAtAgSm1pYFyO/YPPTyMl9DHhOEbv30U/37qCYwyZZgmROpayci7DxSF1OqmzqemlFFTQBFnL0JrcsaOY88fdOIBpgDdcRdpCq6sWC/amUCYdoo7evyqeCYBq1RGOaf+E4+WAn0guM7KYk/PbuzZcj16Ei0Iq5K2OGabozEFiA+KkUH3dVAnQodkPo9WuUalrEwh+pNF/MPzP8b3Dv8Mg7Up8+BRzd4uLf59lPZrnIcCLeOF4yW8eGoGlRATRgbvBoer2/tb8fnb1+GKbBRpBVnTxgugskIx59mwdx7cI1NJ7z6NgE0TtLFtHd3oya5FfiqPwXyeuwCBIwB4lKkZy2FWXx/sDWB1rEpyQ5P5u8iz3bEL/QhxkPXtq9FE646rjuRUc7+bgEwX8ygoXuJDMoVtfeROoE4U8dujoxwwgQZmxzfvyOAr96zHjoYIF3jNJLtTDPLODEsvHQWICSvBMTj3WeBF6JNpK4WepjXYtr7bAFkcmUCVVmUswTyaYLQ2vfkkrQKLksbmpYOAEvOeAGYszXOyj/ed4S0bW9rWImkp6nobaG9876juFiJ/hCWA4lJtk/ME4KVz03jjxARno4APbGvAF29fg5501PwXCT2k87YM6tTrtl6Ai2j+jeCaytVsWg3jT3u0Ce/n3vCG7h1oC6c5EXEwRYM+M3cVvxiVXeUpmsWAzIAC0z83/fLaiBVCkc1OD/Rxc1/C5lw3msJJs4k2OazqkOUUpvo8Ml3puOgzcwpts2gsHMI/PTGAh35xGFfvaMeX79mBnZkILUAP7v2qZhCNqo5lI+rYXF5Kuu8LZUzfJ6UgohBB07JeYLwZQxEXqpMY4r7xzHQfjg314tjAWfRNj2PcLmGai0rRKnNO2VY+rP5MoGesYmJswKzwmiuw3ju22knc1/1hfOEPP4XVnAJ9sGFCm0ggL0FLAqX/KjvNbPyHj7+F/cdG8MC9u7CzJWpeS3vvfudImx2PFLpJywFFVugNjCCk1UwkcYiyzQKuYWa1MvqydoFL/TTPhrmn7J0exgmCNjDWj9GZYYxMTqBMebUWFGolWg8TUfajTM97V20xv+NqOxHFn+y6C5++/sNot7gl8+VZjhYHSncpvL7OPTs8ZT4DXNPWqE1HHfjBIzxvJDURXwRUvRB1IwXeo7qGDVCyBh6poMtx9bxSu0q9CHPMxLERA7XaCUAvoVWexB0Af/NOCXn9H5hSCTOOjRm6c6XMsgqtjhZr5CyEsK6xHbvXbUWaWyeJF0yYkXsRWhwokUrYkw5V/mgxUcdzpBKBtdQQC5NaygbVn2Hd8PvThcq8cu8LPy9V4JUvQ2C/qinA9KcExTv3wBR767BX2wwhC+NJkrsK5XO6J5YG6ncxWhqoRSgQ0iM9NLsYqGBwkQHBO12Q1Jdp7TeQ0QTt69st1k/9WMFxpVTf33JT/Y6AWonwi9Hltl1J/eXGnE/1/f1OgPp/RT46ywH5Hvn0HlArpN8r15Mil6PM5VjJexa1QnoPqBUR8D9c0cX6tmKM8wAAAABJRU5ErkJggg==;" vertex="1" parent="1">
          <mxGeometry x="412.53" y="-27" width="36.47" height="34" as="geometry" />
        </mxCell>
        <mxCell id="mzmcX6kReQTpVKNeZ8k2-13" value="" style="shape=image;verticalLabelPosition=bottom;labelBackgroundColor=default;verticalAlign=top;aspect=fixed;imageAspect=0;image=data:image/png,iVBORw0KGgoAAAANSUhEUgAAAigAAAD2CAYAAAD8pnzzAAAAAXNSR0IArs4c6QAAAARnQU1BAACxjwv8YQUAAAAJcEhZcwAADsMAAA7DAcdvqGQAALLlSURBVHhe7X0HgCRHdfbX3ZM2Xo7KOesEkkBkFMgZYzDR5GSCbTAYfjDBgDE2tjEYMMgkg0giZxASRhnlnE7SSZfj5t0JHf73veqa6Z2d3du7272dvatvt6a7qyu+qq73daX2EgEcHBwcHBwcHNoIfnp0cHBwcHBwcGgbOILi4ODg4ODg0HZwBMXBwcHBwcGh7eAIioODg4ODg0PbwREUBwcHBwcHh7aDIygODg4ODg4ObQdHUBwcHBwcHBzaDo6gODg4ODg4OLQdHEFxcHBwcHBwaDs4guLg4ODg4ODQdnAExcHBwcHBwaHt4AiKg4ODg4ODQ9vBERQHBwcHBweHtoMjKA4ODg4ODg5tB0dQHBwcHBwcHNoOjqA4ODg4ODg4tB0cQXFwcHBwcHBoOziC4uDg4ODg4NB2cATFwcHBwcHBoe3gCIqDg4ODg4ND28ERFAcHBwcHB4e2gyMoDg4ODg4ODm0HR1AcHBwcHBwc2g6OoDg4ODg4ODi0HRxBcXBwcHBwcGg7OILi4ODg4ODg0HZwBMXBwcHBwcGh7eAIioODg4ODg0PbwREUBwcHBwcHh7aDIygODg4ODg4ObQdHUBwcHBwcHBzaDo6gODg4ODg4OLQdHEFxcHBwcHBwaDs4guLg4ODg4ODQdnAExcHBwcHBwaHt4AjKvEOSmolobevg4ODg4DD/4AjKvEMkJpa/lJDoCX9qch3SxsHBwcHBYd7DEZR5AlKQWCgIqUmkv0JVyFAyBMWTO5P3rzg4ODg4OMwfOIIyT8CC8oSNGE4S6NHjjYAnvFuElxQMX6G9g4ODg4PDPIaXCNJzh7aG9pmgpucegsSTwqsgSgIEfgFymd6JxfDCcU8HBwcHh/kLR1DmDQxB0cGd2gi8gc0YuPUmlDpXoHj0yQi7ehF0dQkt4RwVkhN2rTg4ODg4OMxPOILSdmgM0vDM194QGrFLasJRRlG591YM/uaHwB03i30RyQlnYNkzXgDvuNOElxTFU06M6VLhoJAJgWG6XhUHBwcHh/kBR1DaEmYqbA0hgjBGLijpjNhkbDtGbroMO374DXTv2i6FJ06FiEReDmP5TvRe8GwsfOrz4HUfKvZCVMRBVTgJaUlOaYqDg4ODg8P8gCMobQhTIEJIhKB4iYckrMErlzH0wwvR96dfoWtkB4q1SChMCYkXI0gixJ6Pkc4F8I89GSuf9Rp4R64BOnJI/MAEKPzEURQHBwcHh/kCR1DaFFooMYdnaoi2bMDgj76N/ut+gY54ACWSksiHFxeMW08Iip+gwvOC2B35SCx57usQnHgKvFy3Ge5x7MTBwcHBYR7BEZQ2BAukUhlDgSt1dm3G1m99CYW7rkOU7JA7IQIpsnzkIRcF8MV1zfcR+nLHj4WohIhqJcRLjkPni16Jhec8DTH95Eri17EUBwcHB4f5AUdQ2g1SGtx3jUM64eA6PPzlf0HHugfQUx2TWyQndBMjETKScMWOl8h/DogLcvSEoFTh53yMegG2dXXh8Fe8Dl1nPAVeYRkQkM4YOKri4ODg4NDOcMs65gpkClymky7aUd7BH3KOSohkuA87v/FFdD54J7rDER2lMfSC7IWOhYx4NPTLoSDaR3oriiIUojKWDm3D5m99FaM3XYdkbJQjRqjKfQ4FMVpdkawnDg4ODg4O7QVHUNoIZilwjGRkJ3Z+77+BO69HZzgML64hjs3KnsjnhFhxI8bAFKEO7QTizhf7xBeuEqAkjGRJ/wA2f/cbqN5/K/ywkpIcw014Zjd4c3BwcHBwaCc4gjJXIDGg9LUHxBjt24j7MHDFxajceAnycb8QiFDucXdY44JIvESJBXeM1VU+DEPXHBskQlCSJCe+AiAsY/HgNmz//lcQrbsF+WQUvEOCUuUCH0dQHBwcHBzaEI6gzDUSQxYq6e/YXVdi4JIfY1F5AH4cwhcGEfkJagHvT4NNkJwI8YjyUrhegCAfoLM2jO7192D7L7+PuLwNcVyG3EYuMZu4OTg4ODg4tBscQZljxFICsZegIEQlfPA+bPzfC9E73I9YKETidUA/AOh5qAhB4dDObuFFCIOqEJqKkA9x7/uIxK4QjwL3XI+RSy9DfkzuCTkJ4liOqT8HBwcHB4c2giMocwhyg0h+fSEL/tgodvzfr9CzYytyYRWhz0EdKR7OJ0k8OROyMR2CIiAxCYTwkIQQEYMRJtJbrmLHT3+IaO298MMo7ZCZXpgODg4ODg77E46gzCHID3JSBH6tAtx/O0av/R1KtaphLl4NnhgSC7PviRTWtHo7zP4oBW7kJlcsYO0liYTkjEZYOdqHytWXAuEYLVOS4uDg4ODg0F5wBGWOQfLgDW7FQ7/4JgqVMR3usRNXeU9X7Og5i2p6xWW8cwkye1/MNcMIESOKQuy89QpUb/0/sdSQ6djBwcHBwaGt4AjKXIIEYWwYI/feguD+29FVi6RAQuEMcpRbNKQP06cmU0ADjISixMiP7sDG330PGN0paXBDPA4ODg4O7QdHUOYUMZJKHyrX/B+Kg0MoRhEC1MSeK3YMZqp/g/NSPC8UE6MoJtqxCUN3XSdRcdu29gY3orN/Dg4ODg4HBxxBmQtQz3Jb1zhC8vBd6LvnVgReoJNldXLrjCtiLic2u816/LCgxJ0vl1G57RokEee8NMfHXhWxo7U16YF3rJngbQLScMadNdAcnjUGvCtETQ6OoDg4ODgcfHAEZX+BijY1qmdpalVs+fnFWFjuQyEf6/4liVcSEpGH53tq7FAPzb6A3jVMz0MhibBACEr1phuA4SHhAUIESFTiUHhTTdyG4pq9OOIrwxwYRuYSZpv9SaAZZRgcVjLUomESRELOqrUaqpVRCSiUisjhLRqGTDAN+n3mlFxxTZOrrg4ODg4HC1yLv5/Aia/cj0RXClNL+zWEm+9DZftGFGghJRHrniXcjH6mi0XUu4QbeYGmg6EHQhDyI31IrvoB4o1/Qjz0EJLaLt0O30s4UyXTX8E0C9fgLvqB3onkL1TDbeayPRt0yr1vQyFC3M2WrMuX8Eg+lGgkochgVOIfRCHqQ7EmBGl4O+L+rWK2IB7YiqQqpIUbzolkmHYvNkutHRwcHBwOHrivGe8ncLt6Gj8MROpUtsMYuvZ3GPjWZ7FgpF8cUHmLqpfSyKpiXSKcwm5nvycF5gkxaQWGEUlEA/kAYUcP/O4lyC85FN0rDgdWLkVx2WKUlqwCFh0irKQTXq4oDEVIgzAs9m1w8zj2awQSPpdKc9v9erhCfjw/EBu5KlfhRWVgdBDR9m0YHdgO9G1GsmsTwoGdqOwaQFyposZ9WQShkKhFj30qljztBUgK3Zp/JXUM3tFpBwcHh4MGjqDsN4iW5X4nScDOAeEnmzDwk2+hevmv0BmOpk5MUVAXZ4mJRZKuuOGt6XYotCIoDb+x7mTLGGNJVMi0MXFBhKiUw2jnQowtWY1DTn0kFp54OrD6WKBQkvslyUMRNUmPzp0R/5pmEi9WJ+YzipBEFSR9O7Dryj9g+O7bEG97WAjLAEpJFUVUUWBviji3G8rxl708/UuPxeFv+nt4x58hNpKeSPLNCIQgOTg4ODgcHHAEZR9gX+zrEFGqkq5DREtSQRPWEPdvwOAD9yG8+1aU77sV4cYH0CtKOq8hsTD0YJR9i1KZKYJiEfsRQj/WXhENLuRwSqB+/CAnXMpHOebW+T4iISWlpYegcOojkDvmZHQdLmRl6SrxVJRI+GUfoSkMJK4BfRswcuf1CG++Fv133IJCpYKC5DEA55pw51zuckszPpPMM4e3RqIiSs96GXpe/Dogz2EiCZj5EPLi4ODg4HBw4AAmKEaZzyyMsleCoGeNIzs/vCRCzhclqlGLRTyGZGwAyX13Y/1vfo7atvuRLw8jVyujKITFF2WeE61sJ8BaArK/wE3gDIHhLBJJhPz72r2TgsM4Uj3MN4DY85NHNZdHWCjB712IJcccj/wTLwCOWCMEp0t4RITyLZdiwy+/j9LWjShWR5GvST4pGwmcq4iI7ITflj084qxywhoseMPfIVhxtBApzkXhFNlpsjIHBwcHh3kPR1D2CA1laoXGo5k9ESMnBMUThYzqMJJtD2LkzlsxdPP1qGx4GIu8EPHwLqOk6YmdAnLwhaBYtbu/i4JzWviVH3Ox+7gtmfA4F0Xc1yThowsWouuYNcgdfSpq2zdh07WXYHFtBB2UA91mgrXSo53NcyuCEoocd3X2YuVr3obi2c9BnOtUe85qcXBwcHA4OHCAEhTJEl/Dxw23zASMMqXI7FAOaZBOfk3GgJqYHdsxeMn3MXDzH9DdP4yOCpfuyv2uIipj/P5NQyEzjMay2vaHJRNxFJk8Sc5zhRxGylWUOrrkjlyLE26nH8Xsk/H2mKDQeeR7qBWLiI89Fcv++tNAoUdsHTlxcHBwOJhwQBKUOGYvRaTzKIxia5XFvcn2eGUai+iqoogLURnhutsx8MdfoHL9VeipDghhKYtwqaDNElnGxg3SuHdIFvOSoHCDOcmLL9dm6XEihg58/QozVwfFvuSVRC4j5mkTlMAM5gwVF2D1P34JWHwokCvpfQcHBweHgwMHCEFpyoJexsJROMdCTpuUoLHksTnrVm1Ohkw4FFtYRbJrPQYv/hYGbroeHeWd6OiIMDY6iGKhmE5kFUUuylyjEouoKcqmlLU1LJngXBkSFGbP5zIgz0yspQUnv0ZBLERsegQlabEyJxFyU4gCjOW60PnGv0HhEecBpQXpXQcHBweHgwHtSVBUmYuxWkyUoTmKoR1f15NQCEJZSMioKMsqMDgI7NqFsb5diMujiEZHkFTkfq2mCtV4lHDk38vnEPSKwhPlWOjpQWHhIt0HBL3L9U3dy3fIMW8Wj2S1KVUsxSXhJwNb0X/9ZRi+/Dfo3r4VHZUKcl6ESs5sX2bndnCeh1m1wj1OTE9KFlkF3u7IEhTKgXmiTNh/wo3gyPt4FXvcqs3kN4s6QeGPzfcEgiI3/FgJSs3vxNgznoElz3m9EJQVwoPGh+fg4ODgcOCi/QiKTQ05BXUXh2s44ZLDNVTy5RE5loWcDCN+4A5suPU6bLnndnRFETrHhpEbG0UpClGUgKzua85hfSmwHMdKBQznixhOOhF2rcBRpz8aC086HVh1CNApRKVYhJfjklshF2X2yAgJuftGPPydC7F8eDO8gZ3IR6KsJSxDaAwJSdI4TNTyK5dJYqbTjgPzOU/QICiaQyVecWqnGfTTPEs+Nd+TEJQsskM8xjnpTowg9lELShh65COx8hXvgbfgcKkDrUJwcHBwcDgQ0b49KKK444B9ERVRVhV4W7ZgZO09GN14P+L770K4bT2C0T5xKG/ufg6ekBJfyExOfOT0DT8NZwLkDZ89MpJtDkFQlcZBuoSWXTP6HZwCCl29yB19LGonnoaeE09Bx/LVCIdGsOvX38PI9Zdi8egw8sKbuIV7HPMrwVMRFIHHHgUSFDIS3kuVNwlYHe2tgJsJygSkjJD3W1WrlrnL9KBYyXBfGA4dVXJCHo87Aate/0F4y45lAtSdg4ODg8OBj7YkKDoiw2RVB5FsuhvDl/0Cu265DrlwBH4UIR8KCYlIRDicUNMNxzgjgtuv+8ISuM+GNa3AIYpY/PPtn3ugJnYDMB1KkshFDzKsciGPsUIHwmKnEpiCxFuoDKGjNopibPb34BeIyUxISGzPDENpRVCMCm6AojdDPFahzw+CMhnqHSYqk3rOp4YlNalhEEUpB8pvVAhKecWhWPk3n4C/XAiKmYrr4ODg4HAQoD17UMIyBu+5Ef1X/gG122/AgqGt6EIZUcSv21KF6X6kqhBjfoDPC0W7cQgoJxkyWpL9GHZjsGboJE/Jtma8nntRlLSjdwkz9kMlKYknYYpi9ElAxC1DpRuGzyGOnChTs7mZWqYYH7MJkxE1iVria0eCYlNZz06K/UlQKPvhfAHxssOw7F3/BH/ZUXKHq7IcHBwcHA4GtIdGbEISjmLkzitQvfrXWN63Cb2VUdRqZV0Nk4vZQ0JVFopCrBkqIASBcxbyUVA3vG5ozNagX1/IDY0nYXFyJrmG6Q3h1uwxCkkkpoZCXJNriU/IC6kNp8EaksQJomk8qZZVsmHPM/Z1xW3NLIMxkChZs7sYs+5mP3WTg6SNvVOBEMCAa5aFxDBdDg4ODg4HD9qSoJAlRMM19PDbLXFVdywVZiBKyhebdOdWUWCeKC9r2CsSoYrIqxgjZEJnmGhvyXhDcDjG49COJ2/l7CXhUlkhNCRBOkwUFYXkFOVa7sVCQoTweJEQIUkAh5jyYSTKU8KKG+FyjxOaeo+JGNIYNXopYeiRvTEievFuuAo97HtRMGfGeJJzKnVLoHiUa4mGsouUmlFmzK8xTGUoRKAWyL29TEqaZQmJsuWqnobhnin8rKB+WjBjPxnyUg6dwhnzkmAjr/SGg4ODg8NBgfYkKAKj6IiGZmJPhepyharB+p+x4hCNMdPXaPRrjOeLsqaReKhQTbjjDX8pNBqeZ5ElQdMxMwYKRQgPh5povISbwqdHfvyPZMiCO6txzo4YDmXBF8YlRuiJkIdQt+vn0JV4FMczmMY9gGZHjtxLJczJhZBBO7/HwcHBweHgQNsSlLqWmgdgMhvEaXeYBUVLUqaEJ1GSxf4TXdVEAuKxJ4kEhGREUqrsStIghkun2SPF3hP2beQiD0FNvIilx+6WvUyr+pSosmZ3ZWljo9GeMkkfe3NGOwtA3k2OdXBwcDjY0L4ERVVVQ7PV53m0KXajfzOwanhm4XGPED9GFNdQ832MFgsYDgKMFUqodHRhpCSm2IXhQjcGCz0YKPRiqNiLse4FGC51YihXQCXoRFzsNhvVJf74FdB7AhGGzWXW7A7WDckep57UggTRom6glE/vODg4ODgcLGjPZcZj/dj87S8id/lP0FkdFV3J77twN1a+6R/IyBaFVdc8mnks5tcDl0dzlQt7GqL0nKVY7Cihu7cXlYXLUV20Ar6co6tHg+CE3kC33+eFdqOIfSxhDCEaHEAyNIJCLKH3DyLesRXxwA5Uy2PiSmJJOGE4QU78BcpayECYHgYtfiRyk3KvPhRjrs1Kp9TVOJI5dY+T3JTwxwoBak+4AKtf+FfwulaLJ86niRmquuJaLnXr4ODg4HDAoU0JygA2/eBC5C+7GMXKsCq3SHRS7gAjKHafFqp3zpuJRfkapUvLAFGSU+Lhi31ULcPPlRCXOjGS60C50IOew45G74mPRMchR5ldb5cvgddZAvIFCY9LcsUzJ/JSievBSk+ulaQwrpoYuSmnOhRD+EIEhgaA7Q+juv5ubLr3Nuy6fy2WjiXoGB2FH46CY0FJLkYp5HRc8avEhzTGRy3HwGLkhcwwj5zvYnJW0ODr8UwC87HAWId4xo5bg0Ne83fwlh4nZCwv8dTkDufYcFcUZorDP46kODg4OBxoaE+CUh7Exh99Bf6l30VHeUgSyVUo3I3kAFJFQrbM5FWzukZJgi535soj00vC3pEKh2iKnUJCjkTh0KNQOOw4dC47VBT2oUCpG17QLTpaJBNIMXKuRkpCtE8j7b1oICUoWuLGnn0bWbBng4YkwkuEvERDWh4YKQP9VZQ3r8PY+nsw/NA9iHdsRtdwH4JqRd1zgi65iS51Yl7klPaGfJG80DDOBlqRFa484uZ7kZhdQQmlsy/AIc99FeJlx8CPJY++WWmkUUlo2fAcHBwcHA4MtCdBqQxh/U+/iuQ3F6G3PCy61yhyz3Y5HAhI88QlzdpDRGKgShkIgyJqxS4hJiUc8ejHwF/zKHgrDkfSs0xoTAF+0Ck+hLSR06R7l1FJc3cWKyESlIniSgkKXaf3WhGUxjANU0a3qRsyKa4CiitIdm1FsvFhjFz3B+y8/x5gYCdK5TF0VKvIQwiLzw8GWq8kXHJI9zPhqYlBjuOjV5CKkqBUgyoqcYyxoAs461wc/cq/gZdfKaxE8i5Zocxc/4mDg4PDgYm2JShbLvkuRn54IZZURlGgIhaNlAR8E08dHQBgVvIi/lBYwUiQx2iuhNLS5eg449HoPvVRCI48CehaKMpYFLZqcu5qy+XD6l0JQJjKg0MiJBskJa1FRFt7p+GC80cmoG6VCUlOSV7SUyUerDpeMgb0b8PQ3bcguvkalO+4GagMIx/V0CkBJTUhMynxqs8d8TiEMxHMFwkb+VEkRChkL4ywMO5BM9i1GP6jn4JD//zNQHGJkh1DplLPFkx7q8AdHBwcHOYV2pKgoDqMgWt+jp0XfR6LRwd1YzTuDBvl5gdB0Z4MSSc3eVOt29D446AdEqUi+jhesep4HPKkZ8E/7Rx4PYuQFIvU5KKAcwitYpdgGBzDpl/uactprhQJXeRJ5NSlgSUUDZhwsjeae1DGI027VhExGe86QVd8k2Ah5pnYx6NCVrZj4y8vxuiNf8LSwQGUyn2o5scQit9czDkoQrGmJCgSjuRb97PhtWS06gVa9oNBDt1P/HMse/5rgZ5eSVFNUiFykrNECKySleYuGgcHBweHeYn2JChhBeFd12HzZz6EheVdYkGCQsVlFHM7g/pRP14oCtaPCqKUOQghJIIZ4Dd+KqLavQLCXBGDHR0ITj8Lvaefg65jT4G3aBVQ6JZ8mpU5pCDs4TAfMxTFLiVFW0MQVC2TNtT1MaehGKQntDQ/KdLzqUpcnJjb7B3h0cRkkPqXG8ZWiITcMvNA6JFzT8SuPIxky3qMrbsHw5f9EsmmB+GNDKCQF8f8dIASFA77ZNNmQteYNGJxQeImEUUMk7KTy9Ge5eh84Suw8HHPFNLSjcDPq/N0MIpfQDDjPimZcnBwcHCYn2hPgiJv5Nj0EDZ+6C1YOLYdYRCpzmm/hI4H00cCxQ8YJjpXoyDEKi/Egoq7Al+IRw4dGAsWYKBzMQ5/4Z/De8Tj4C1YIQqVGnW6OaQqHq/cJ4IUgpgDTa3ZYK/GGJL+7Rj97e8wevNVqPWtRXc0hkIo8olJvPxxOVaCYlgRT6Ry0ph8kIBwhg33RllXWoDT3/oh5E54HKIi5Wtkob9SddzEFAcHB4f5j/YkKPKWjaEdeOh9r8ei4S2iltJBjr3eOWz/wQzvJIh8DkdJquXt3xOCwqGUctiBuHMlFj3xGeg899nwFq8ECgVEooSDIF0WPC1Q+7axBpZiImeosqclKpuvE29ei4Hrf4fo2suAXZtRDBPkIq7qIe0g/UhBeaWnhCd+Cf5SphwqisMuVA4/FSvf8rdIDjlcvJS0flDGZtk0ZTkHxMzBwcHBYcbQngSFGi4cRt+n3wPcczPyYcW8WafKqp2hFErSqkM8ml5Rt5xH0rEE5cPOxMpXvQL+ytXylt8l9maeSWu0yqu1o5/J/LUBJJkkKBxtIXIiFE/IZeKNAhvuwIaLvoTgwbuR42TahB8SNMNXFry20GGt9B5lGpKkiNxirxP+Madh4V+/G1F+MXIFkadIP0ZZqAnnuqTLmxwcHBwc5iXa8jWT+ihOQnQfcyTiwCzFVWQUV/ugrj31wF/aUKnmYh81vxN9i45A/pkvxao3vB3+8sMRBR1IAlGiB+BLPvNui4sUIZdwEi/HXeQYF+CtWoND3/xRdL/ojRheeTQqXKEkHFkn/KZcOZVoHVzBZId+AnEToIJCPIBw3Q3o//XFCLwK4jiUGDi3heSEYzwODg4ODvMZbUtQdI+Po4/HGHdFZb8ElVc7dvaY1IoRrSyambqZMyv4Ib4ReavfvuxIHPbad6DnvOfAW34I4lwJAQmKuMwMbOwh9tbf7CMjDXbPiWGfEgtTSEokd4ISku5V6D33RTjq7f8AnHgmhkVOnAjrkYjIny4x9nlGchIj9kOxEwIigZKnBAlXDVVRjEYwesUlQlRugR+OSMSUKGlR+8rHwcHBwWF6aEuCQjXvFTuBI0/Rj9lVPVFQ6WTJdgK/M8MhCJ/ESRQpwZUnVJPlQgm108/Gce98H/zTHg90L5Obkq9cutRWc6mqWw17EMbDKllV9alhcbUqMlXl5nSOwdQxpZob9nj5gRghDewxKpheIy8n5MwvCWE7Ecvf8EEseOZLMFTqwVC1glAYSJST8uZW+von8KtCUuRae1IoX8YSwI98dA70Ycv3v4JkYJ2UQ9X6cHBwcHCY52il7eYcVN1c7xIUu9Gz4jDRvZxMyVUc7QXz0T4jQu4Kwl4CrjIZ6VgK//QLsOp170Sw6jix59d4qbYJM5WzGYau7Css3ZlbJc2cNHJjr8Rwvk16g58uSII8/AXL0fvMV2HV69+L5PCTJPWdKNY8lEIpcSEkKt+4KOSjoD0ypg5Q5mJE3l48hJ6HH8bAZb/TeUvM+bh64viKg4ODw7xEWxIUM5wjKjvfhfyKo+Rtu0OUUXsmlenULwuLGfFz6O9ZjuITnollL30LvI5DxYGknRrT42qVphUrglR1H3TQ7fRZptzcJhBScvI5WPWqd8E/9dHYmXRhtJYTabGfiXWBH00Ukkr3WWHJrXwSIxgewNB1VyLavFaIjJ2a6+Dg4OAwn9GWWl+76XUSSgd6DzsG5WKXXLNXpX3QeEsXjSlKturnMbpgBRY87jlY/LxXwlu4TO4VVQlTB/N7viQoJg+N1/qDkZxYKPnwhVDwuz2FHvjHnIlFf/EmYM0TMSayjEWmfhIhCjj/xPaeZMA5J1yqzC8n929G/08vAqo7dKinDk5aycjbwcHBwWF+oC0JChWKfnsmySN31MkYLfYinGMdQ9LEDdioMDnxM93kVKdZ8KvDw/ku9D7qfCx81svhdS0RUiIJDsRdIH7FDQXN/oBWoG2bFsSsQr/RE4yJjPgV5xheLg9v5fE47JXvQMc5T8WgyNR+2TgMaip/XenD3jUeGQbyYh8gqI1g+L7r0X/dZUBY5g1j0hVE6YWDg4ODwzxBW+pFdv/rstJAVHrPoTj0rGcgKnaKmpl+f4OOIExpJOxmg6DJzrqVN3UhG9xxXqdRGLaBKAdUxK7c3YueRz4BS174Gvi9C0ShcvP3vDqmU/EixpyZQR6rPXenNOlzOqC7NFH1GNsXLF81IiMfXXIsSVmLvKS8kRO5L1mNJc95HcJznoOBYAU6gl7kpAzCoGrqBXehpSSFuMRCBCntQpJDqW8Y3h9+jWSgT90oL1GCsjs5Ozg4ODi0G6jN2hL1hHV0IP+oxyAuLRDLudrfgm/sogb1uzpG+QdJjILovmrQjdFjz8CCF70aXqmXd2D2bWEOqBhJq1opSNod7IpT5JQIMeEcE57XJ9HKT1c3jnrRq1B85guwPd+NJMyhWPXhp59vpuTIVUj5SCJF6ujO5VG5/z7Et94gBVNW8qIuWR5aJg4ODg4O8wVtS1DYm6HKJSeJXL4MpcNPQKSrYeYIQk68OC/q0KQrEIUXJUUMLj4cR77sLUiWHCUJ5RLiqeHU5O6hw2P5HLzuRVhywTORf+yTMNSxGIiEqHBsTUByQlJjKIj8JQnGxsoIohA7Lv01kp0b5A57T1heYpzgJ0WcfkKCMrTnDg4ODnONNiUo3OtClApTF4hmKXXCO+E0VOQNea6ge3DwfV2UJ4dpakJWRhYdgmP+8k3wlx4hPCovtgIqwnHKkJloWEy4fZCjPtzDbpAUOmtEBSX2Pcux4rkvRcfjn64fWIyCIjWp/Me6lT6XKxMsnXw+rz1b2LgWIzdeDb9akTvCcA9igZN0WOJhj/Y8a09j3Ts4ODi0A9ruWzzmjdiANEW75iNRWVvvxoMffycWDe9UJcSXbJ1IW3c9HpxDQkzes2+5mQ1DHHK5jYY58S2SAzWRz36dssQdYMhfgu7nvRY9T32+EKhe8Sb+NUiqVxqSKRv55OlspGM2wHwwDZMKoe1BIpJUhuGV+7H2wn9H/vbrsaw2rDvLlnO++ZaPitYqWeY1j+EjHolD3vUpoLdXy41Snk1JtyPCMMTQ0BBGRkYwNjaGarWKSrmCMDJLsYMgQFdXF0qlkh67u7tRLBb1q9sODg4Oc402JyiCVPmgOoj+i7+IoSt/id6xPuSkjeXqDzIQj8TCOiVER5khInO+9xiv4LnbaxjVUOvoRcea89H7qnfC61okCc1ur67v/2KydoRNXT2VKWZeGdgYOD/DXFlj45okTpIsM3aiSeeBvUU0BH0JHTBkzHI4WmazOQuIY66eqiHp24jNF34anfffpdvcD0VjImUhH0JG2YNikcQJhguLcMgr3onk8U9FnOuU2uDbGnHAgI+u1H5TVnLO3hCSkbvuugs33HAD1q1bh127dmF4eBjlchm1mtRdMXRHkIiQnFizZImQbiEpj3/843HOOecoaSGJYe8W/dONg4ODw/5C2xIU6rxxei+uIdyyFhsu/Bh619+JPBtaUaZ046fzErIZsT0oDKV1Bq2GzcZiY7ZopESHIaIYFbnsX3E0Vr/x/SgdvUYiJxGx7hinjS0bThY2XgubzpkDU0BjeqDsFSFpYrJIMGz6bDKtE8Ke+7HSLfO+rYNuYkgIxZMNtj6xdZbBVTlJiMr9NwpJ+Td0bL4PJd0Cv5khkaokqCV5lE48Ewve/g+IO1dI+eWZ8tTNgQE+ujT9ff3YvHkz/nj5H3HJJZcoSQnDUMkI6+10ekQYDt1aQkIycu655+K8887DIasPwcJFC+vhuB4WBweH/YG2IyiTIhFVWRtD/0+/jOHffgcd8vbMjvucvA3yC7cEdZgFG1lCt1RvqZiaicJkoF8qZe5a6qG/UMLiP3sdgie9CAFXFo0bZso23JMpw9klKFnaNS5phE0S7dRh6iCbVHWfWgj5YOfUuDCtHzH8ZY/K+ABmCSzcUFKSlFG+7VJs/tqnsXR0O0JJoJ2HYpAgEjKb80vYmV+Eo971EQTHPlpshaAcQIqVjy2HbS677DL85Cc/waZNm3Q4h+ShUCjoPQ7XRBwenQZyuZy65TCQvbaE5aijjsJjH/tYvPCFL9QeFkdQ5idsU9+qyWdZ0962m82YzN7BYTYxfwgKFQ83Sdt8D+773D+ip+8BlGoRctKo6ndw6EIIhHYOCOodKNZiL0CvdvhIlb1XxMjJj8Ly174b8YJDdXGIL+q7EUN2EGGyeGeXoFikTZH8sxdE3qTlnB831IZG5IZqDahUEZfLkiSdbmp8yH1+0NDPF4FCXpd5c4O0SITh+UUE3ONFnHJrf3rheV3WswkmjySFH2Ws9WH0j9/HwI//B4WK5C3LTMVhLPnlpOWxoBfBE56FZS9+m2jcbklnWibZxnayYmpD8FEliahUKrjmmmtw0UUX4cEHH1R7+xhbRbKnCoWkw06YJbLNAsPiBOTly5fj5S9/OR7zmMdgwYIF6saRlfYFy5NlF0exzjvasWOHGhJZmsHBQXXHcrTDfjxvrjss9wsuuCC9cnDYf5g3BIXv6/yicVIeQPWaS7HrR/+NnrGdyMXc2dVkIUsVqDnrD9oUJGWq7PPbLzbsyM9hpLgIy9/wMeSPfgSSLqFFQVXoBfc9kUZa42oPgpI2NfDjCpJwSE7luPl+JA+vxcCWrRjdvgPe8Cj80TKSiMMAkkcaSlnyHHt5JIUS0NUFFPNYsHQxupasgL/qeGDZYfAK3WIvJs/hLUFTgzZrYFkwc/EQkrENePib/4nCLdejWDNv/Sxv1hOPO/7GnIFTQm3lcVj6ns/A61nWSGY2vfsp6TOBqhDKtfevxVe/+lXcfvvtGB0d1TxnYa+b7acL+zy0ei7YI8OembPPPhuvfvWrcdJJJ2lPi0N7gmSWROSqq67SnraHHnpI5xKxl4z3SC71mZGytgSlGXTzl3/5l3jZy16W2jg47D/MK4JSkz9hKcgN78SGb3wa+Tv/iO6wXJ+DopM5TbeHXjca6ckb60mzrz0nAXKch5GE6M93YOzUc3HsS/8eXu9CJIEofT+UkDlNk8SEcWTJxmRxNsc3edrGgd5oJIq0v2gcHVLNHYt84qqQOHkz2rkV5b5tqN12E7Y/dA/ivq3oqg0iCGsoSpwFce6FnPZLqaWBi9yE1piRFDnGgS8SF4Wfk/N8J6p+p+R9GRYceRzyhx+D/MrDkFuyGlgkyj/H3WD5gT9PCJvJU6wfSGSSpSFUG5OFLKaZe0HqU9cfCyFJRpDsfAgbPvNRdOzaAK9WSeOJpT6wsZWcCdkaSHqw+l2fQv6EsyQh6T41WeU9/QTsd2TrJie6/uY3v8F3v/tdbN++Xeu2VTIWWVIy0wSF14yLQz480rzyla/Es5/9bPT29mp8dLO38TrMHFgO/f39uPbaa7W+PPzww1ouLLMwDPXIa9YfurWmGSxr9pRdeOGFOoHawWF/Y14N8SQQQiCpTaIqKutvxYOf+yBWjPShIA+dutAhDJ7xxzSUU3SeTAlPSU8BeYmzKiRlY+9iHPXWf0X+iFPkAbcTY8XosIGNJBvZbiK2Up9u+qhzaSRqoSEqDe68oj08HKIhKcEwavfdjE1//DU6Hr5PLkd1t9u8UBoqbn5Uj3+UEQ1XuyjYQJmzDNgb0YCRI+24QR1pjZCc3kUYWnQkcsecjhWPeDQ8IS1JviBpKsqxKASB7kgb+Ce+mdSm/GYp3dSwqWEAbFAlBdURDF7+M/T/4kJ0Sf79KNY5Sfz+YKTf70lQTjqRe+KzsOxFb4ZXWm78m0pi0JSedgIfTb7Z7ti+A//+H/+OP/3pT+MUzGRodY/h0B+Vjp1nQnfWZDHdJoHDPuxFeec734nVq1fr8J/OXbFDaQ77HSw7rtz61Kc+hRtvvFHLnXY02XLmuS1ne78ZJDCvf/3r8YpXvELrjYPD/kbwYUF63vbwklBUEydF5hH09GKRF2Hk/ntQEsJiHr7GQ8alp/XGNz3uiTGaUxpbeS6Hi0Usf+Iz0fGop4nEzFu4edRN2A1Mdj4FpuMs03bYSatMXsCeDg7T7NqAwRt+g4GffAWbf/djdO7YiFKtAqEJyAspyWkySUIYUNpQMd403IlNkwGdjDcqfSmHGMVcgHBsGPmxfkQP3ILRWy5H7V5pEHMVKZsC/KIYKSefMqRMxT9/muNS+2nBpoJgGYkEhCgWl6/C6AP3orpzveS3hqLIhMNusRA5fpkgn+vAhoEhrHzkY+F18QvTEka2zKafgP0OKo3169fjn//5n3HTTTfVh1O0/KZAq/tUMJw8S8MeDy4h5jmVEJXY7sJsBaaPcxpuvvlmJSqLlyzWePYmLIeZAZeYv+c978G9996b2jSQLZfplBF7TdhLtmzpMkc6HeYE86oHxfQdiPIRFeRFYwhv/z12/M+n0VPuVxdGdRuMewCbny3tDjCWrbMf65u+n+QQBTkMLzsUy175Nygc8QjhLB2pmxRUlDaC5nimgo12On7ELZPJTh3tK4qGUfSErA0MIL7mCgzceg2G1t2KLn8USVxDPk5QoCeRgS9vtWboi2FwcEhONFITcb0XZQ/ALwoH/JBjpIFKSKa3opIroVJcAG/RMiw85VHoePRTkSw+HHGhW9ynO+02gdLbJ8Qih513Y91nPoBFWx5UUsbBr8iPNU25XCe2+UWsfNnfouvs52p5t1zNsydlN8tgDwfJyP33369vwpwIa+cITPa4khhw8izvk3hwvgiXCp9yyil45CMfiWOOOQYd/K5VPl9/Nhgm57FwCOCOO+7QN26+fTMcEhf71syeF6I5bpWl1jEfPT09ePvb344nPelJbl7KHIBlsXXrVrzvfe/T+sJymYyEWPtsedpzW49Yd8444wz8wz/8g67cmiwsB4fZxDwjKFTP0mhKkpOoH6Pf+QwGr/wNuiNuac77Jit8liY+T9aCbuQ8XZ1jehWaweEQsRc3Y0ER4SmPw+pXvRfoXCRemxrf/UFQUpAPBEJAkvJ2VNfdgh2//QW8B+5BqToiUmEvkigx9pgkIXJCPEJJWiwNDimEQux8LW5eG7ssQdmT4TCKhyuYGB7JAAkd4+FHFQPkUC0swNjSI9D7mPPRseYsYMEqoLSQPk0AKWwpNNtPByRe3MQtGNuJsct/gvKvL0JhZFCCkvTwkwRpGXoFKcMnvRRLXvB2uSf1h8q+maTsefSzBhKUe+65B//6r/+qPSgEFYQlKZOBymXp0qU4+eSTdbO1RzziEfVlwVMpLDYBVEo0d999Ny699FLceeed2LZtm9qR1BAkLZOBPTJPf/rT8Za3vKVObBz2D1h+nKP0gQ98QHtQuP8N0aq8s3bZpt+es4zphiST4T3xiU/Ua0tSHRz2J+YRQSGkgaYWjctA33146J//GotH+5Gkc1CyCKicMhi/V4ZgKm0sfs1cjTz6C4uw6qVvR+6RT5dAs9vXp5gFgsJbNLxFo+fUTVXJ5/BW9P/+uxi56ffoGtwmeS/DzxUkOwF8UdaFuCKkwRAGmogTXNnjxDBEv+hR4+aZhJ0hKObrv9MHh3wS9uSQZggR4PBPLqkhQlHSUEQhV0KfELrKkUdj6bnPQXHNk4UYdApH4DBZGr/SDBIVhqEWcmHTYdxMDU44EW9b78Xmb/8nivfdjGJSlnQxbeQiMTr9AIOnPQVLXv8RISud4pjCFIXPhtcE0jbg48g9TT7ykY9oNz0VBRUOlX6rR5XKg4ZvvC95yUt0Y7VFixahs1PymcIqpVb+LQGhAqJy4jGU56mvrw+XX345vvWtb+mkXEtSWoHhn3DCCfj4xz+ukyodQdm/YB3/4Q9/iC9+8Yt1gtEM2rH8ebQmWx/sOcuOYRxxxBH4/Oc/r71xjpw4zBXmFUFR0sC/yhhqN/waQ9/5V5SqgwibHiAq4MaQ6fiHtXmSZiuEfFMU7ZZ4Hagd/wQsf/Vfw+tZLE8vFSvjYiBpQNnGYBph12Gl3sJPdiDGj0TRSpQ+qqjeezOGfv5tRA/ejI5wANVcpD0lPvWtyIAlqfNEOIFUrLRXg/ZpGunOqGSGbhKwL8VvvoVklD1hfiW9SlZIijxEEnctl8dYZze6Tj4TXee+BPkVJ0tiOoTbCTnxuU6Ic1XYsyHeaQJmxIS2WzAJLK54FAO3XYKB73wGy4f6JLwIFSE6nExbijzsWnkylr/t4wiWH238SdpMbbLpnltQyVBpDAwMKDm55ZZbxikbeySsgiGR4HySJzzhCXjd616nxMTemw5alb31a+9xNci3v/1t/P73v1fSQgXGeAmmj8Ro1apVmmYqtenG7TAzYDmx94QTlflpgyxsWfBIksElxqwjRx55pJYZjb2fPZIUH3fccTjzzDNdeTrMKeYdQeES1mR0ANt+9EV0XPsj5MNRVUREowOg0UhTh/LMEhPxPg3IW6Qo2TjXhe4XvQulc56uq2eQ8IcBWMNDJsBphZ3CprWFH66xSAezEERVBGPbgPuvxwM//F/0DmxDZ3VYyEYVlUAaHg5hSBGSmHBZbTPq3yQSNO4y8rqw6jCEY6bQyBhDraKGsYLQrIXHYPX5L0PpjAv0O0bsxTB/Keh4T+RIQiN+Ek+kVt6M7f/7rwhuv1ZISVnIEe/FKIowt3asxOq3fQj+sWcJeTVEs50ICh9D9mZ87nOfwy9+8QslAdmeCFufSWToltfLli3Dm9/8Zt04jT0me6NMmh//5jAYH3tw2IvCtPEbP5agEHzD/sQnPqHzFVzPyf4HSeL111+vc09YlpP1drBcSUj+9m//Focffji6u7rlsTH1yIILC/TI+WVi73pOHOYa86gGciBBtBG756MxBH0bUBSmzwmbfMT0MbMnGUWrz1/G8JC9zhp7yge9Gkq4y1Yif9iRYkHb9KY1swgbRSBKPQi3Yez6n2HDDz6PxX0PIsft3cOyEq68iIJfdjYbrc1youqgbLNm92DKSvKzMKmhZ+dabPzJFzH8268j7lsPL6zKffZ0iDKkEXfTD1nAGhxE6g+lReg468kY7ulGOefppGL248S+h3xSRnjnjVI1yGiIDCmaQ7CukQRQ6XMZ8ZVXXtlS0fDaGr7hrlmzRodUOCmVk19nApMRHA7vHHLIIfh//+//4ZWveCUWL16saSQpeu9736tzXRw52f8goSV5/MEPfqB1qLkMLJllnTn11FN1NRgnTbP8iqWiTqTOmnwhr8aRE4d2wTyrhVQuMaKhXahtWouoWoEnDyXb1QlERCxMg2vez6nEVZH75jiVycsbRE4e2PKqo+AvX4FE3hJ1cizfMGxk1swC2CNSEpMr78Tw77+Nvt//AD2DO9AZl9EhyiKXM+kx6aUHUXSaL5ssk3eT/xmGxJk15G7NxoAUo2G4IioI8+hEhENyAxi64nvY8rWPATvuAqpD0tiWdWiL82g83R3YEondg5v5cwdceJ3oOelRyB95OCpFobNMSyqHIqoYWH+3iIoTCE0iSYzqyZ1DUJFwx8///u//1iEVorns6IaTZ6k4TjvtNLz//e/H8ccfX58/srdlbevJZP4Ztg2fK3Ve/oqXa9xcgvrc5z5XJ1HaSZkO+xckFdyu/rbbbtMyYh3JgmVGO5YbJy9zArWdS0TiMlWZOzi0A+ZXTeQyWe6Wuvkh+OUhSTw7KRvgWn1r9gkSTyRhLDr1MfCKXRIHVSBXw8wOjApv/KpNOILyVT/DyB9+id6BXYjHxjAW5ES98pP3aSPjsedA3pImZDebUhMulbE9t9AzNlKpyZzqHB7V+crJjALj+5k931PD3gymMx+JshscQ3dlEP66G7H5W/+G2rpbkZe81ITwRJyT4pOqiONGUqcAHXFHXPErpC0uLcKqJ5yHqKtT70jUmpkCQozt2KAfnGwEzJtzByoJdtHz+M1vflO/SDxVTwTne5x++um69HPhQq6I2v9g+rhs+bOf/Sz+4i/+Qq9Zvg77H6w3nFDNOmRBO2tIYEg2OEfp2GOPrd93cJgvmGdUuYCkOoj+e27VeZT6xu4LfRCTaLsulmKnSpE9CmLoMLGTLkle1I+5VCN+SHRobA9KFPiodi9C54mPFj8dqs7knV5+KS4a9TjR7AlSP3znYfMiVEPiKaMiv0E8iuSOS7H5V99D71gfchiD38m0i+tcVfJDJS5+pfFJJK3MiCoJsgqaIEYchLpRGVlFIEo/51WRT2KlWbrwmHHLvVBNooay5FKfQJQ5TeyFuoSYO9Dq8Bp7TVQaBkqMlCAZo0uNaFRMJi1aBhou3aZpFtaTk2O3J+naeBd2/viLiO66Ah1RWYpL/LARTULjZ7eQdKeTbLVkPCFwhz0epZWn60cRzW62JFeehC9p275DhC0St1mhmSOwzKhANm7cqN9KofIIM/M7siAR4DDLu971Lu2i59yPuSIGjJfzGewW90yLw9wgS1Cy5IPn7Nlij8nzn/98rWf5XGMPHAeH+QC26fMGQh1Em45i1wN3qBJjv4ZR8Q2Yx6+F1kmfS1WqGbR6XKtBAYtOegTQsUAc2KXFVIQzi6x+NAUhCivqR+W+a3DPxV9Gb20IOf3SMOOXe+LaE6UOIQ71NcMtwA/l5SRgrlMhcYiEEETSQIU5eVvnPvDi31MSImH5VTH8YCA/I8ChGPEl7mvinuzGo8Co5GlINCya4p5KNib1xgWHXTgnRMtB4suHY8DWu7Hrkq8juvW3IvyK2KfMil6syZyOt6ZccmL4xytJc34Fek56LMJCh5Aw03vDPCS1KmoDu8RjSlDmGJaQ8HspHOKZCpzvwY3QuKW8JTZzCabBKbu5ha0/2XKgnSUqJC4kjyS0CldcDvMMc9vK7RFEqZGLbFqPQrlfEi5v+D7nHpjGUl1oo8mjXu41qrkivGNPkYBEPPqsUwnyd3bAHg2SCk9MfuBB9F36HawY2obOpCb5y4luzSMfpWRBYPb4yBCzTMLklpCMAEGU1yXI9DKW60RfcSF2COHa2bkAu8QMyPlAiaYHfR09GCz2YCS/UNwuxlBuAUaDHmnoihIO4w90uTDjtfKV1Kq89wWkfL7kI4hEOW+4CVt//F+o3HW1tKySN8o+AxZDK2NSwl+BsQCEmBSPPgGVxSsQcQiCPUR+jFpSQXlECAqHCa3jfcvCPoGK5IEHHtAlvHaopxUoZ35RlsM72e78gwmTyWY2kVX2zbD3aDjPw5qp/Mw0uIcR60MrsmrTwWEeDg3ONWx6rIz2t6xmCtl8ZPPQzvnIpnE+pZuQl+Y2T6GFpjJC+f++jYGffh7FaEwabioaUWZyj4246eQfDyp1/nGuBkGFLcVSd0mFbnUUzxnN8LJjsOjV/4DcilOBPDdPpxvzO+Ow4mePSGUHhn76OVSu+Q0WVEa0j0N3PtVeokh7MFKOYjKiqOckPUIUcQ65XIfeKZc6ER91LGqHHI/eJcege9kKUeB5oKPINaLGQ6UKjIwh3rkTY327UN75MPzt6xBv2oDa4A5pAEMUghiFpMoKo0SRqeb+Khw+aYYv9vXUaf7SPGZAm1iHj2oSpunh4a693orTsPSZb0Bw9JnmswIcKiLkYFVzNsZxJV6PRtI4ugF9v/oyoj/9Ch1RBaF4Gi71In/uK7H8sS82c4tEnpydMj7E/QdOeuVmWD/96U/1TbhZ0dhHk8SEn8w6GL4oyzyzASX4TFMmtLNkmOdWLrTL2k8XNvysvG04WVjlz3vWj23g2ePFnXa5twhX0zD+XJBDqaOkk1FZVhxeaRVuNv0E42nlzuadprluEEwHV/B8+ctfzkxUZjgmLIbJtHz9619VotKMVnESk8W3p2A4TOPIyAh2StvCCb1jY2NKrAjKZ8nSJbo3C3c85jAm/TBdrdJmZdFoXVLI5VT+sqA7IuvOhktk861lbquVOOcEdi63574z/EQE3XIFHQ3Lm7LWtKXpmQkZ7glsPhgv2xPWK9YLfgLB1lO2OZR/Lp/TIVqmmfPZ6IcysXLIyodh7G6umY2b7mYS84ugxBF2/fQz6LjyIimAqrwdi3pkgaTK2h4VZBsEJ2topTHqjbY0turQPysV7ahueWfoyDOx/A3/BJSWwn4c0PiavID2BgyRMTJUvzaCsdt+K/n7MvJ9D6PTjxBEEjfz5JdNb1GS7uZpk6L5bTwEzAlvjHYsQ3nhUVj1xKciOO5k+NzzgMrf64LHLzHTi0ZuGl34JEJiyYajRnZdkeOQKPmdCLc/jA1/uhzhujtwaGWbLgsWB/zX6CP5sWK3Is8SFM2hvdEEDvdUcjHyMalYTqIOEAfdGF11HA59xbvgLTpJWjGRAdMp5RfpcBtz2EAj94J6NHISDiDZ9Cds++KHhaAM67b/w0EX8mc9Cyuf9iag2CtxcU4O3y6zIe4/sNH+u7/7O/12SqvHkHZsxP/pn/5JN83a3w3e/gQb/K9//eu6UR0Vg5UHG0cqMA5vMf/Wno0vG1zKjtvy87tFbEDp1zak2QaX4DUbY+64y8Y5K8/JGl/6j6MYtbCmG6Gxt4vfLLLpZPpCUQZ2ThDtWGZUWlxt9dSnPlWX9vJLz7Ewe8Zp42XY1113HX75y19mCEYDTONfvfWv0NPbk9qMB+OaiqBU5cWju6db98nh3LpmZPNsz62Mzz//fJxzzjmTymUy0K9VjL/5zW90N+KHHnpIZUTlRUVpy5dhkzjxMwkrV67E4x73OFxwwQV6zftW2Vm3JDf//u//roQnC95j+M94xjN0VVm2XJvB+vK1r31tXK+STS9fBF7wghfU/dOORJSbJnJvIs73YT2lexqC5W7L/6ijjtL0U94Mf3/3XFFOJCCUE+sV57XxkxnWnvlh3myZMs2sp3y+nvzkJ+Pcc8+tb/ZIZOXPPH76059WktkMume+GYb1O1OYRwRFlGJYxq7vfgzB9T9GTt6sQ07ClNT7KSPXl+1EfrIPI6+J1M7esWLkG75QHFWWSRKi6ucRnnYBVrzsw/IG3yUOMoyQnq3HGYJShLACr389Bv73Q0g234ucEAT9xkwUSPrEje62Kg81J4NKek2vBLPGngfOzJGGMVfEWGERSquPR+mUx6HrlEfDW7hciEmX5o0b0tMbZ2oIFzYkQhrMWB40flBQfpRZK10T9zohl30W8QiS8gjivi0Yve5SxOtuQ3nLWhTDMeEM5ps/HP4hAomAvTyGnliSYiU+ESyaKjebk9Tl5CLnF1ENY4xKmqPjzsGqF70N/sLDJSimhbvSTo+gsLfEk/T51U3Y9IX3w99+D0qSxdGkAP+U87DyeX+j31ViWoM56EHRR07+b7jxBv3eCRsPNtrNYAPBPUY++clP6vlMP/ztBL6dck8VkgDb+NuGkW953/nOd/SaCoKbxXHPmGuuuUavbRM2VVNmFe9jH/tYfPCDH9TeDq72s36aZUt7xr1h/Qbccust+N3vfoe1a9eqO9ozjSwTurNlx3MauuHRrqLhDrts/M866ywcdthhZrKqxE3i88tf/VKVLt03gwTlK1/5yqQ9Zw2CcmGGoBBpXtIgNZ9Mo20D0zQSzfm2Cuyv/uqvdBm5Vda7A8NkzwLJ29VXX60K0i6ZZzoZpo3L5pVHe24/MEkFSWJEJc+9W7o6+VJl/JIscKiT5DALG/Y73vEOPPvZz54yzSQbrGdZeTF9nOPF71fxS9AEV9RxT6Jf//rX2LBhQ125N+fF2tGwTlDpcwNFKmySpaOPPlrd0GTlPhNgnDZ+Ej8uN2eaKX/KSntLJE7WU7qxsiay6bDpJqGi7Lm3Esk1iSLLhf5Iet70pjfphP5m0M1rXvMavPjFL66TmpnC9GpfWyBCUtuJ8sgO1HTPdipCeZiyWTBsxRxZAFqRWCmy1zw0rjlMQUXJiZSRmJFSJ3qPPEG0Q9G4mWVItRVFOoSR634Ff8vd6I7GROlLxRNWwXQlzA9ykraiEhLdtl7+c0JYfE/eSjpyGJYKsr1zGXqf/gos+fN3o/sxz0W85HBEuQ51zz9pjnUqabrWJd0UTc6lseTKGsbCIRfKj/NbeE31HfndiDqWw1t5Onqe8Wb0vuxdWPK0v8DOhSvQly9qGColkSkn4AZBTRoUoUwSDud+2IezlQnEb1EqfyFhqvigcbWRNBZhFeFdN6D6h4u1J4RlHwphmy4ka5IWKb+gB/k1j0G11CPKIF3rI2/CxgUbxLkZ3iERpJKjkmUvABuPVmCjwbf9mW7Y2hXMJ2WRNWz8qBzYiN50402qOD/1qU/p2yHf5njPEoZmv1nDsGme8pSnaA+H3Yogq2wIlg0beyrbiy66CG9/x9vxH//xH9r4s6xoGBdhw7X+eWS9tudUEAyLb7EXXngh/v7v/14/G8Cw6c8im76sob0lGdZucjAN1lhIWiQdxu/4MLLHrKEsebR53B2sH+aR+WNv329/+1v9KrYNk7DlYPNqYeXP+Gh27NiBn//85/joRz+qy+k3bDTkgESU7myYWcMwKXeV127AMrF5s/75nNk6xPJiL9nb3vY2/bYRCTPv2bh5tH6JbH6onBnGli1btJy54o7fsiKhsoTIxmn97AtsetmzQ3nxcxOUHXtmLTkhmP5mudtzHik7po+khoSMzxdJPHubGId1Y8NsNgyfsHKdSZinaT6Ab/tjfagN75JGS94mpYFReiL1xdcfUbpSeayRqiOVSQqBOdTn1BAV3rIPhVY2KmnxqxWQTLNzIYpHn2TsabJgsDMCVo7Gw1TbcT+2X/9L+Ik8JJ5OmdU8+fKGb4iC2EgFk8dY8iZ2kiySCH5vZjgUJX/qE3HCmz6B3ke/GN7iIyQfHcykCXyfQdlQFhKnvHVGi0+E/8TX4og3fgqlx/0ZBnsOQdXrkHRLBc5JSj2OpzcqP1daTW6Yp/FIxMIXYrMwGEHfTb/ByG2Xpz075g1rOsjL86IlJwSq86iT4XE+Du0kWZIbIxuW/4TY9x+qtSquuuoqldFk4JsYtyXXujmFuwMZthHkPjEf/8THdd6HJSV7Ajae3NjuUY96VGrTGmEU4o477tCt4znkREJCkrSvPVj0S0JFhfXRf/yofnXYVEVDanhsadi2pf5p2gksA75Rf+ELX8Df/M3f4L777lM5UxlSme0tmE/6ZznwG0Pf+973ZvzNPAvGxXImcfzSl76kPVokWPsCyoFDUd/4xjfwb//2b/pV8pl8hhkWSRufi7e+9a3ac8LrfQXrOtN96623ao8U5TEbxGO6aNLA7QxhciPbgZFd+qVizn3wE1GGJC5UiKlStERE9wmRY2vDe8af9gCIY1EBqoDRvQzekkMloP0hGqEf8QhG7rgc3cObJR3ycEs2SLA4gVP3JeFzKYZzZZkkPxAmXAjQH+SxtbAYXU96DZa96D3weo4UBxzzJHljfwkHchoPtTRv9QaOh1ZtHd3YIyVi/9QmYZhFCZFfKu5CbuEpWPHUt2D52z6GoSNOQNzFz/rLG8SYuOdmbK0iEGRJpCmHrGE5yluzV0Her6EQDmH0iu8DAw8hz3vTBYORQ+wX0LX6BFSDLgS5PJ9qYYN733DOFKh0+HZCZWsVT7Nhg3zSSScpSWGjQbuDFWwwv33Rd0WBjIpS5JsgZWGeTyuv3YEK6HnPe572nrQClS0VFZd888397rvvrtvT7A7ZdNjzrGEjb8PiMAg/G3DttddJnCHfvQTMD00jL1T0UymHVvGYJ9c8+41rMelLWNbsDWxPQBRGqnTtWzvf5Ck/5o9hZ+Wcja/VedYQlpQyLPY+XHTRt6VMPoyB/iGRCV1YWc0MGC9JIocObV6yhKg5jdZk0bCn3I1hGllXb7jhRnzoQx/Cww8/rGVq3e8NWB8oZ/bSvPvd79ahTz4flDfzkEUjTQ3TDGuXdUPZ2x6TH/3oR3jzm9+KnTv7pMzZBk+sp7OJmSvlvYZkmoqDxxSNswzkKfa2PaSrdzh2a4RJwZpeEZWXKjh7vhtjIee6mkP8RqIlO5cdrkMD4x3NBMbnUSGEJOm7H/23XYmCDuXIgykKeoI7AW24uy2J2phU0qHOpVhw7svR9ZRXwcsv10mfKggpUSr7mS5aHVqSMIVWyIUYNniFXuQXH40jXvZOhCc/HqPFZch39wiZMgSFldz0BDWGdcx1w2QfDH1bFGOIoxCVpIJgx/0Y/r8fIhndauJOwdRoNltBbkhoktqCyGUpVp94KkJR8nzwSETNnJaJMt5fYF7Zdcz0TAa64Y6tlNnBDKus2DCzJ208Jq0B40BZch4ICV8reTJ8KkJ+aoBvvFRQNl6aPQHjmgwMi/dtfJxbdNmll0m9b13GexN/a0xPTtMBFSHJ3tXXXK2fPKDSJZFoTudUcthTsDzuuP0OfPrfPq1Kc7bAOmYJBME8zEQ+SCBI5jh0YoeM9gUkz/wOF7coyKZ3psEyZVrXP7weH//Yx/c53XuDOW79RLj6+iCsnDuHyjWrOQ1trVEbUea+EJR8KEqLio2kgj0MVsmpnVQmVqi0Yk1ubOXjkUMlEo4oxVDYbseKI0Thd5pwZgw2VzT2VHIWV1C58ffIj21HTd5ISCy414hRoOMhSdOdX3m/XOzG4U98ARY8+eXwopK4l2Ik45c0axh0r75mKg+mR0fHSHSeipSVHTPJd8FbdgqWP/utKJx6HrZ7eVSZTvZ46dRcM/ZJw9K151nTDE5+5uRfDmklo4MYueVSYO2fJDp5sxE7VlrmjKJqCa3VUr7sQfIK6Dj8JIQdC5TghTnxGXAYSsp9Mv/7AVzZsLu3Y67ccdh3UJZcobFixYrUxsDWP5bD//zP/+jbc3M3uW0zpotW9ZlKxNrzaMPkixbntrTyM5Ng8m2ce2JaIayFqiC5ooNv8dk5ObMGEc/Q8JDOQSqPlVPL+QX2gnJYjySFcz32tMzpnvWIc3340cfbb79d587YezOFVmFx2JMr5XTS8+xW1QmYQ4IiOVVyIopOd/ZsKGXKgFWelKXGLl2y5mgU0fq1KNTKyKkylsZFniEO5diVxPJUia5md6bJFj8fPqkRZUUT0B+HTcRL3s8j6F0mHjskUAauwcwcmEetAKJ6K9IQjuxA3303oFQbRiCKM5H0aF7USPxi2E7Q+JLfnNjHXYvQe+YzUXjMSyTBPeCeJrHIQ4dITLaNKNTobJb6n3b8Miy519qYP4lVroxp2EhoYsWJs/DlwRBZKSRPsVdE0n0Ylj7jL9H9+GdjoNiBqEB7abwk3TSaPgnJTEpm2YkcJFIpinoeTRzyK3bMPqPKFwMUazux/cbfIBnZDIwNSZysL9awHjEdmhoF0xlpfBImJ8Ue/2SM9hyNsY4e9HcJocvxTsbDfkYobyLcm2Cqtx9ua89VHDMBxmeVJI/W8Hr6JhX1tEwr/4YITAadZ9TknnOf6l3mrBCsEwIlnoJckNdzq0yZTyoCC5tvvvU/5znP0W57O0RBMD2cd8A5FFwSy3u20SeySjqruBmmPWcY9Gd7ZnjN+zzSjvmwsjaQOi4VlGZ0bBQ+P1UhdjYfjTw34psMDVkxfCHzfB74cpMa+g0k/GOPO0bn3xx/3IkNczyN2DUZLonm6pkFCxbU47bxEFzRxImwVFa8zzzadFr3FrxmGdBQ9nRrZUNj79nwrZwa4bGcTQPRGHKRa5Fd/bwJNiyaVsjeb2VawaabsMOt9pp+eBpIe+jzg7J1SBq1Mad/Tp417kkwvv/979f9Twd8NljH+FLzmc98RlcYESSHk8HKmUdrCKad+bF1k/Jn2LS3z4aRBc+YfuOu3gFQl3n2fPYwh8uMJVqrZFRZSIa1QooRYYlo1c6PhoHt92Hg99+Bf98V8Eb6RLhiLw+yGcrgT6PzX7yK2ESYE7qDJ4M82PIw8+26nFuCnpd+BKUTzhV7Dbx+2HdICklQqH2ZtKSMobVXYNf3P4UFY9vlWiqBpllIhRx0gzm6lYol1UXJR0Ua5F0Lj8bxr/kHeAuPE0dCEsQNNzkjxIceCWNDqZizmYCtKqzMBgyfqePEXompOiwkYhP6/vR9jFz3c/3IYSLkRUpK/Ig7SavptTDhEFzJk4USGTawAtsO0fVQaSmWP+8tKJz6HEmAkAxLTpQoZQpJrLgai6CtH8lDLHHU7vojttx3HRY98tHoPux0uSPKn/vK0FHG+/4Al+xxngPHvFs9fpQvlyhyCXJW4e4pGDYbJk725H4UPLdlx3s8z14TtuGy9639ntUjU37N4J4LfPtrRbz6dvXhPe99T33lAKH1Py2cRjpowzbC7EFS4KaDUuhcEkkFS2LHpaoEhwZITrgJ2J//+Z/X82PzzOECTi78xCc+UW/AiWaZZGGV1XHHHYenP/3pOPLIIzVOKtC+vj5dksrJz9dee636Z1lbJWyQPtc8S+NRUJml9d7ALH396le/qvOQWoHpaN4HJSuz8lgVK1Yuw9ckjGLJbNRmo8zKIQum1c5nsHWP8dA9V4dw7gzLiH6tPdHIXwOUCcNjeTz60Y/WCcosIxsue2C47Pfmm2/WCbbMw3hZmbpoQUVtSIvY8QVHYWTGNHOyKIko0060yh9XznFoKpv2yWD9sz5yyTgnrHMZM/c7OfTQQ7UnhL0il19+BW684SZDuiK+VhNsjU2ZmniMoUxo2JOyZs0adTkdcEiQy6NJcCgjEump0m8JHZcOc2n96aedjlNPO1XlxHxx2Imy54ol5oHuKbeG/Bv1dFw8Leopw3vDG96AP/uzPxtH8GcCc7wPikStBIWnkmkuJaVg9UNxY4gHNmPohsswfNsVCHZtQKk8oJMlWW8sQZEr411/G9h9971xwKEEHY6Q8Cq9q7DwJR9G4YjHye20cqeHmQBj0uCY18ou9F/1TYxdfjG6akLCWAxa7pSJVg/zR3vJM/dnGV6wGoe88G/hH/kIyWCnuM1JfZGHWAOl6wbMOfM4cxmwVcU+uK1C514yGN2AHX/8JuIbfoX86AgCeXBZHlq31Yep4DwnmVSrFMwL5aS9LKkdC7wWlFBZfixWv/wfgZ7DjR/KkcuJswEI2HtC6COqpFBMXJbw5E2BjYYvDzcKIlZNkGC8/9kGFRmX8bFhYEPZClSo3HfANjR7A5YXG02+dXH5YKu4WjXiLeVhn4fpYFwDZsC42ThyXw8q9GZw1QT3oKDya6STcdp406OmwxMlF4jSzeveIued92ScseYM3cWVsArKgnm0csw2d9zcjY0+487KoV6/xS3TwvBox+8gcTMqbijGOS1UtPYewfrMWks/VF5UhiQqJCx827UKwOdmiereptPkSWKUg837vhMUvrkvEDJ40be/2XIn2cnAOpPNF+XAdP/Xf/0XfvKTn+h1Vl5ZWNmzrKkYubcIhyqZF/qzPRAEr2lIFDk3g/va/OEPf9CVQXQTRWw09N8cKR7NH09oS2PkNRsEhWC45513Hs4/7/y6gs+GzzDYO8Klvr/4+S/xy1/9SpV/FHKJvCHPTKNpzUycVOJnnHGGvqSQPE8FumfZsteFw5BMd3O+KFOWD+s4jyxrPhdW9iSItjytX4ZrZUDZX3HFFfjjH/+oc2VMHCSH6rR+1HrF568ue5MnhvnGN75RCQrlM5Mwkp4zMLPysNLoZmFyLW+88t6BaP11eOCbH0X12u+hd+fd6I5HUZBGKRBBk5zUQUVGge2xMbKOJFp+r4Vv2XFnAUGBDZm5nz7nMwI+RlKU8suI5eDLm8qmu1CQ/JrkGNWtR1Yi/vMGsyp5ruU6UTz9PHirT5UbXWI4zBJIHoxPOktDV2PQOJsJZCs4wWxkwWt+OyjOr8LSx/8FqkecgbgoMhV7JSKE+CdNU8NzTbD86NGWJf9NXGrkVhFVBH0PY/CW30uBjYmNKbNmMLxx6lHdkMh1y+kCSQgnQJckTLFnwBNyMftgo8CGhIqA5zRZsIGwCqXV/b0Bw2C4tlGyhmmYaNg93GTk5WHapkWYNj6bFntu0Xyv+b4WrBjWh1jepNnI/927/w4f+MD7dVMv7rbKxpGGDXXWWIVCGP+xEgY2+HaoohXol+XAIzfM+5d/+RfdKOyEE07Q3iAbF8NXBcCeXTlSYVApULGRdHE/DKvY7FupAeO1cadHfSBmBpG8zU+Q4zTAPGVlwjC48ogkN1s+rcJmve7p6dHVPSQCJHQcLqJMWGZGBqYcec64+JZ/4oknqmw//1+f154Whq3tvCTDpMT4MVdiZlBOrWDT9/rXvx5/89d/oxPWWRds+rPHfD4nhPVwvPktb8Qn/+mfsXjRkpScpGkUd0y6dU8ZsSeEZLyVDJvB7fVJUOwE4WbZ280KWa/ZO8ml2XwBYg/f8uXLM3XPyNCmg2XCe+wNfNWrXqX7vnDnY5W93LcQ16mh3/So5w0zW8g+LfsBIlj5yyoQo7gFlLcvDeHYLmy54kfY/P1PY3H/WpTKu5CTt3Lu+WGWD4tSSw0JDWXDU+YktVJjlxTzzwRuDBWgvUfDt229I8dIKpXf2SFXcjELYF+R9hex2682iv4H70Au5hCESCBjmE8WDHdmZeFzI7VKoQvLHnEBvM5Fom9JToxyZ9rnCsKx0zMDSZHYVeHnpFy6DsGKJ78OtdJK03B7VT0yYzqeqZWa5clyEMWpplFOzYY7YXL+UXjv1UgqfQxE7PkmOr6sNIisP/nlY813GGPH2sajAefF7G8w72yY2aC0esDtfXuv+f5BifTZ4HyL5cuX4mMf+6i8IT5O5cSGdrqwDTn32OBeD5ZAtQJJDJXnS1/6Ul01wUm2exIXG38q5Sc98Un6zSXuKppVLNpzq4Z1Mq2XpgK3FdgbdPHFF0/YYK4VSOQ+8fFPKMlgveXb/+782PpNd51dnTqM9LrXvU7LVsHbafkbOdnz2QPLjml44QtfiIK8ZNk2a6rnkUr9xJOOx/ve/14sWcJhRqaTeZ+Yfw79cXiRZKUV7IsEycfnPvc57XWdbPjEfseIPZNczkySQbfNLwa7A/3wkxJ//dd/XR8mJeaynu6/1plC0t4CbtvOa7XVuqdbt1dGEfetw7bvfgr+/30D3cPbUOCKHTpSxUZyId5EMMbwhjnqXBRbgVPDrdzVsGKpf2NYuey9QExRPJfEcGwzyvVKzeTQiSjLtDhmshgYlglTwt+8TmXB2Tb6PSAaSSINhaIPgpzmpNIMCTlZ/TghJ8u510n60Ap4n1c8zg2apaMpFnlLqvwCCoecgN5nvh7VJat0XkidjHC8J0gNa6AYs+tsxl6MXalFw3mtpVqCcMM6hOvvBoTghZPMMyJxIlli+pgiPtai7vXXkBpGymupB/I7F2Cjke12zzZ+bCh4nG7DMjNIC2KcRERGHAajmQEwT9k3s92D+ecTY4jc2OiYvq3+9V+/Q7vbg1zjrXC6sG6pcLMrdmxDToVBY8nF85//fLz8ZS+vlwmxp/HlC3mdq/If//4fOPnkk0SZcPiiMVmX+bQKgATM5Lk9QBnxTZ+rjeqEQWDrJo9UppwDxJ4lbnB3wokn6D2WdVZuU9VnurGknMNB3Db9r972FpWVkUkKbd9tODMvJ6aB6eSqL6bBElKmy+ZjKuSkTq45fQ1e/eq/lKsYVSG5ti3KgnXskksumTRMa8+lxFxBw+upiDSHAbkhHAki02x7SCymSj/za59L9gxyns1rX/uatI5mZbz/6+nMtDzTAWWjb70iKM2oebONRMnoUtL7Lsem//04ChuuR3d5BwpxqPWQwwA61yRDTIwx5yZccVg/F8MftWMsqUmvG+EYo70UKmh6ZIEydUbw9JlFJrS9giaNSMro3yoERXddFXtJR9Ywz2F6RK2CwuIV8B55npQWFdr+K7Ldo56jDJg+U85Mb+ehJ6O27EiEneabQJQ5y4FERc9JSmgE9l6z0Vjkh8dcXMOOm6+UMhhFTpdgTYTthJQAU5v2gllFZiZbtgIbolYf5ZrPYONIQsZvq+wN2CB2dXdizRmn4zQhJ5yDYjGV4msGZc5G/6abblJ/TFeWNLFRp5JidzrnM/BTA/zy62SN+3Shyl2C4Bbq/LaOKkJ9S7aNPfMw/XzsD3AZNIkaN+viG/9kMqD8mB++ffO7STzPut2T8iFsmfCzBBymMEFZ+WTNzIPP3uLFi3XSp5aZgOmx+ZlMBlnk8gHOecyjcfqa01Di5ORJvHDiK+dBTSYfpoW9LJzTQkwWN4d1KHumO1uXiWzapwNLVvg9HvYgaXhpHZ2Lejo+N7MKERKXp+pSLDlXmfHNeBjJ1uuw6ZdfQFff3egNKsgXcxkRZIRBPxMMG5kmKyq2uiCbjNyz5EQVotqnXJDsPBaGSNKktuPRcL13YNq4ogXhCEa2PZSmlRWIx4bhl4vZy8Dhp1xnAV1HniS6frm4bjTK7QFJYEvQnlVLqELnIix7zNOxCyQozCBvmzIz58bokJ1YtvrjvxoJ0vdrGN5yD5Jd68SCDH9iiegKqDp7bT9wngYbPyrLVg0IGyY2XnvasE8GG8e+mUZvxVRmMvAe36btapI9BZfLsqzf9KY3oruHX7tlgynP6R7KiEr3V7/6lfYMtEpvKG+2JCdcsfEXf/EX+jY/GZHcEzAMvp1yrgUnFFLx6/tavVXJmvYAe57tZN9mWWWvSTw5QZU9KFPVgT0Bw+HwGgndscceK9e0nX058bnk6hp+1HFvwbQuXLjADEHmxq9EsrB2lig3g3ZchcZvTk1Vx0kgnvWsZ+mQWjM52RewTDnplbIww1tMU5agTJ6mmcTM5WgaYPY4UVTrWlhGIR5A7abvou9HH0d3ZTO4tHhEyEGFbxZKIOwxJRNZQ9hjKiy+oVtT75lOTf1a7lHY1vAeGwoWgs8uMbVkiObPpNmYfYGJijMeQsn7MOKBTYh0/LFF4865OPkQtTww5hdRWHmM1Bh+0ZQZmAYoDmvmFJLboBtYfTqWnv54KcM0n/wXw+G36SaWy6xJ3AJUUCpvxsB914gXbtrEbs9sKe1rSc0+OInQDu+w8WlugNhIZpfb7gsob45Nc28LdltPaU5rNqeJPf2JOW2NmDNSM9HtySedbFYkSFZa5Yl5WbhwYXq15+BcBk7mI3FgQ2yfmekaC274xeEKI38+T8aYvUc4qTavpITb4tuvCJNM7C1s/PZtnEeubuGuttl0tSv4FedsPbT5oWFvE80xxxyjX8FtfoSzbq3ZE9C9HWaz8rN1q7l+7R0a5W8NCSpX2JAcEXsbD+vo2WefPal/3mee+LmLydxwMzbOPTH8uFFHaUQ6Sno5r4kr/pTw7qF8LbLlYw3TR9m/4AUv0LBZzlbuNr3Z66z9TIKlst/BjHj+GKLbfoktl3wThcoOlHKhKLBISIRkUlJlSUMr4anhfT1vLWBrdN7JFOGQ5DTEypog9uZiRsFhJO6CqsNJtVHkq4NSAaSiBRPT5Asx46TSWpCgv3M5/CNOEZkxVbORstlF7OeR5Jei54wnIFfiUkMpEm6FnzOrH5rzPpmxE6N9ISmd8SAG19+FJORGRe1PSJrBB37VqlXp1USw4eFGbtk5EnsFkTVlxzehf/7kP+veC5Oaf25hN858MmMm3v/kJ/8JhXxBP4I4Gex+IXsDyoxv0qwzBPO1p2C7wyXF9ku7Oj8trV9ZcD4Fhxb2Nq3TwTOe8YxZDX8mQBlxjxIq7WY58R7rKXubOBzA3iEqMVs+MwXGSfLDlUD7A8wH53Mwf/sKPuMk7cwDw8uGyXOS7oH+1j2ldnjHtJET6ztX1nFoh0veZ0s2LE/uX8Pl9UxPcxr2B2a2Nu0GjIwTGP14AOHtP8Dm3/43FiT98Ko15KMaiqKQ60rcQntJjNGelPqf2pijyE17WFJbYxoYfzXehfrVORA8SS0kFfI4pn8zDQlR8htVy/rhP0Zq0k8jFVmOfiLsOuYSYh+1RUcBC44WMcgbn6YtRTYTzaAza+YYeXnA/IK8WS85GiNHrEFSKElFz0kJM6/yZiblZufe1OejZI15OjXrscgr8EKRTQ0Y2IqovFlkkOllyOY5ez4ZJPi5AvfRmExBsSFgg8BVJs0N255AewVF/mxouBKBb0Q0VPbWWLtCkW723PhCsPP5AJu3bNFVHgyT6W/VmHHJY1aB2bzRWPfWL032PuXBMfbsjrN7glB7K6FvrCPDo/pWOi6I9Nni5PlnPfPZKrPZAuXNHisbRzYvreQ2V+A8KMori2z5UMGyl4kEheUe6xDAzIMK+Pzzz1dCtO+Q+qdlnZVz45o9aB0lruRs5HVvID4R+IH2GmbLN1t3mZ+xMrdMmAhOfL3vvrWII7pPLYm0nrLucK8V9sbtbRp3B6aT8bzoRS/S53aqZ3u2sF8JimQZqA0g2nA1hi/7BhaEW5H3qsixERVhFKQRCqSSS9OUuk9B5aUEhOctDGHdZN0KeNa4Sss3Neac7uWf5wRP9MJazCQkTI4ziU5NJK9mRrpJn6ZRo5UKkAQiBxKUAEuOWyM1mV3n+7moZgSieHhgl2Tnaix4xFNRDbgnidgy3zxonqdjWE5k8TEKoti9ge1INtwlgbRYpkf3u0O2UswBuKpjMoLChouNP7t4ieks1ZwrCAUSxZTgd781QwGTNV5s3NiDQoLRCmzQp2r82FCyZ2NvG0f6o1w3b96CSI4TwzHX+XyhPp6/t3HtDiz3lStX1nvRGI817QLWN/bgkXROlj7mg/XYDt3NVvoZ7rnnnjuO3O4bmM5MWlklU8XPfPNTKfsclwQn1GLKcHhvsueash8dHZP7qUUdJp2USac8DxzimTm5jAfDZTwkQSxrtkP7G/tR64kyjkdQXn8N1v3gc4hGhlQRR9XxrFhEokLZvTGFlDX1pcU0+vbYwqRurWG9tL0v5lsWplAoGFMVZgoMjZGJUpJINW7KxJdKzPjEEJq+QNIizmJh4F3LVqnbtpsfu4fw/A50HXEavJ5Fkq+a5FPyzQXAacOwO6TSU8RRKD5rqDx4p/hPe1BS+U0LrduE/QY2Sscec6x20Wo9aGqF9O1IlD336uAYtH1zaUfwG1LlsQou+f0lmua8blA1EWzsqMx0eI91fA/zQ3JBP3vr35LBbdu26nG8zNOwpC4uXLQQixaPf+udDVAe9uvKLN92BN/iw3R4pxVoz3lB4zbOnCWw7nBu0OzA5m/P6tR0wbpkzXRBckL5j6/rjXrKesMJrDzONtgeNX9oc39h/xEUUSRxdRMGr/o+lpQ3oSCFFcQe8qKEbSGMN+KHqcuY7L4Y6qbp2s5TMEYqRAtDQjDOH8OVuHj02avBj8sJWkRfN7a67BnoKzVS4J40mLxilbUTe+VJN+eSLu5wG7K3YcFiaV0Zawp6mN22cwbBTFlIhkpL0HPUCZJHfrhQyJnkw5a1MdnyH2+4opgqhtQxJ9ddSQXb770JUXlEHnySXAqF8dHw2pomtIHs2FBxQyo2MOzut0rAGtHF4sjD+vUb9VPn/KbK3g5tzCZCfoFbEnvHnXeY+TIi+sm6+TkUQCXD/O0NGA/zvrf+Cfon4avLUGQsjYI5pk92R6lTJ9BO1rs1k1DlLgqG8zhs2dbT1gbgG7N9a26VNqad36UxHzycXbA8OMQ3vvwZb9bsYd3Qsrf+eL6H/qcJ+1zvSd2tVitKUIzM+dpOfUFyTn1p0trqkxGzARJoPr/j05/KbIKZWcx8iC2RIC4PYcuv/gfRptvR4YXIxZEYaXCsCzmxpoHxD4RdzaO22utB8Di1qfub1IgzcRfEoaRz9j7nzdRwhQ7P2JtD6K/8mLIXF3K0BCXhNztK3fJ00oG5N8HMGwhp5CZuh54i+emS7DA/oeSRK7VSJ5OAPmkoA/3goMiuEFdRikaRDA/CU40ugaiADXiauWygDWTGB52NOz8ISAXABsA2/nUlIG5GR0bx+99flmatZW7mFNyLhCTlisuvqJMs9qI0g/YkY81vwLQf3+hNjmbluDdgGOOCYdR8rhRW7vWf/YLp5n8uYOQ1udxt2m05tnNeWkLbVOYvNfW6MPdQsYsxz302belRRL2/5D2X5Tr7BIVzBOIhDK29CpUH/4RCZQC1iI0Z55o05pukxTA9aGEZRb877E756WZo+h8hCIcRVfZx5cSUSBMjyonzS8zXOeu2Cp6zBygmgVFSyjc5LlCetnTaEpp6rhVeeATiXK+QCiEamTxNJKap0aXmzL1xa8kk604uqaA6sFXClTpmg0qPqe+2BR96rkrhigHTuNtHMSMIOf3t736LHdt3gN+faTeQnPAt78qrrqwrs+Y5JswbyRg3PZvLhs5ifBrSWsK5YOmxsSHV7IPyMmU/93JpBVt27L1qBdpPdm82MPNx2fJPj2r2D+zzMlmextcLm066NUcuKmj1MjAbmCqds41ZISgUJ0Wncywgb7m77kB85VewJBxAKc+Z/6KaRO+GOan8ooipkOsFwhRRJ4vR5cFy3cqoG1XiUxsb7uRGwpPCznk1BENbpTBGUdUczAYkMpquLiSd3GyKcUsa6vmyldCky+f8CskDNzhjJ998huY86ES+51DE3YuFaAhBiaQuMGdaDsywOLJlyxVOdSMNOYfjxAkJCrfNj1i+Ussq2++VgLncmGVG2dmH1gbWfrD5ZZf1KaecYvKuEqIsTJppxwaImzV97etf0y5fA7qbY6SPR6VcwWc+85+6bJcNmCpcLRcDO0zCT+zTtMNciyVLFssv6wlN5jnX5w66a+c+L+/eDSgrGn451sIqrOx51m4uwOFH7gcyWRpoz6/4znYaSZLY06h7hozb5KoF2EBY0xJSzlrWprwNJP1p+U+oFzMA+7w3Gys3Hq2x4A60XCUXhk3Df2k6efrQQw/q+WyDdZUf1QzDUOVvyiC9OcuYlRacaefaCm68llS3YMfvvoakb51uUy7lIrHy/Vfuy7nmNWPGgyE1DP1YoyDz3Y3hEE7244DNRv5TyHlYQTS8HXl5Mzdxzizq2fPz6Fx2OPyc+U5FfT6MOFBDJxK9VE940agUEr9fZGTWbOYXPAQdPUg6uKusKGPJpM65ETO+7CfKvl4/6D6VBX9rg5vNfigqOKnOjQJte1ABnHfueemmYRPTzbrBSadXX3017rjjLkShuMk0YnMFeaq00eIeGfxM+2RvcqE0aCQlT3jCE1TJzDWYhvH7z1CW45+okZGh+tbis4GsErruuutUdpRlO4LkJDv82Ar8Ku9sp5/xr127VuvTzGJ82RuzfzGZbLkfi93MsVU6uaCDMtkfvSgkh/yiMtuj/Y1ZIyikKEG8C5V7r0Rtw61CTsrjlEedRQpZsYTYGLlOlZHZF6Rh5L9uGm6yxrpt2FGhZf01TCM87Z3gG70UesJv5CTSQLGbl8nNmn2BhmEC8nLd6F59IuK82a2wGXzvzInTPIfH+jZKfaygWqNalmQ2mfkCeaSkPORhyhfhd/agxrKWTFpixszU64BYNJcp7+shNbzmrrxJebswXaNQKN1YaTEf4imQ+lczh2AdPOvss3SiYfbht88GEUYhhoeG8V//9V/YtHmTKIP0TWoOwej7+wbxrYsuEhGaHUVbgYSADa39sm0r7M+8MA3stWLPDuPlNY/ZNHDC6vXXXz9r6bJy2Lx5s76VtiuYTpIT7no8GblkufO7Rjt37pzVciQB+uMf/zguHSrH5oZ+rh/oGQSX1JMg2jraDNqx53LdunWzQhAZJg3j+c1vfqPnfKFqICP7cWUws2hd8/YRfLP1IUoj2ozB2y9DMRpCoL27GUHb/MyKkZ8JdhMNC58C4CX9FHI+yjs3IqkMCD8hQZH0WrOvYNecLomVsLwSCoefghoKZq5JE6RKCknhHAtRtg/dqQRFns703ngzXyDv3EInpMIHBQSFLoSSH268Nq5tmdLIT+ZaL4Xw5OMhkY3IVQglKZz22omT+QA+/Gx0X/7yl7cc/rCNE91s3LARF154oW7s1KrB2l9g3BwC+Zd//Rc8cP8DqFTtSoOJYLqf+9zn4ojDj9Brusu6nYt8cLM4Kl2iVfy048fx2IsyG+njHB3Kj99gIRliw6/Ktg3BZfCcIzUZKB9+M+ryyy/X3g274memwQ3j/u///m8cQdF2INsgGIsDBiQDJ55wYnrVGpQ35TIbBIWyZr1kHPwe0MSevmbZWzOz2CeCwuTS8DE2j7I5o5rIJYOo3PprxNvX6pyTkI3tJBmgIBqm+XpPjPU7vTDkR4wkQKTAnht+Kruy42Gg0idpNUNA9VU+NPsMI6VYCAqKCxH0LJGw5e2T8XOehRqRaBonJbZr3d3SEIyhIPfmO7QXRTKbcG6CyjwtgkyZqKG9lEf2EwWt5M9JtrloVN2JkMSGMdBhC8dtCDYCfAs9jd+8Oe10tWOjb00WVGY33HADvvGN/62/2cwFGPe3L/oObrzhRt3Wfqp0cFkxvxOyP5ahTgesR1wu2eqrr1mQnPz+97+flYafdZVvxr/+9a/NmL7IT+t3G4LDi/yG02TpY/qpuCgrymw2lmZTPhxKJBGqD2fMj8e70XbtBVg/H/u4x2r+Wz1jDJdu2LNkv3w+1bO4N2B4/FCk7aWZ6fCngxlpOVhtDFHhGedNCJPe+RC2XvMrlCpDKPFmuvmYxpg1Wn7MuDUZsNchY6i0rZkc48PI+hlvJD1iOAFVv7JrXKN7bCOw6VYhVMwN73HFjZnzsE/QsYu8hGMS4HkLUTzqDIwW8gj9SKwkf0JOfD8Uw7xyjobEO7AJydZ7JGWSGlaQZlGNz27bwqzjz6vxvZrkUeoIV0xkyqKRsUym6uUvbihCMXbOTiDu4pGaBCOByMNqdgrgcIMtT1Mvm027gd25L37Jn8tbEz/IlTbCAjYI2shJPeBirtHRYfz4xz/E5z//eZ08u78bjIGBQXz729/Fd7/3XdTsfkFMXwvDb5Bwi+ypdn/Nuuf+KcyPbQjreU+NtdsXMBz2CnD1FMf3W4VHJUh3P/7xj+vf7JkRpMEw/Esv/QNuv/1OyStrKt9UubeFMRMbSJo9ASPK1HY+O3sJDi9yF1GW4WSgrDjMc+2116Y2MweKfnh4BD/84Y/lTV7e4OXRsC8tinrbkObVth1sS7Q9aQ/YuttssnW9GSQf/ByC/WBlK1AOGzduxCWXXKJkkWbGIEmqVWv40Q9/gkqlZuoq6yjlL8bIOCP/ehnMLPa09o8DJ3JSdfP7OQyIb698Q0ZSweDdV6DAVTty6Qsz8WJRHNRGdZgMme+wSDgtTaOBMqaVm4xJFde4MCWWcW6ajJnzwkSSaCXIx1VUNq2VPFXqam5GqroWKGPgUybX+R7kDjsbYdAhaZBKKgVMPVv1c6h5eXHHxkrcVrZjcMs9kgh+s2FGUjInYJa1MZaj7iIrhn/1suJ9HvW8udxp0wIiDp9Leuog/SNNaem6bcH8sReFn/c3b/atGy2CXa4///nPlaTwzWk23vJbYWysjK985av4xte/0TJO5sGC59wl9fGPf/w4+3YA3/Jf8pKXNN7Gm0D58x4b/u9///s6HBNH+y7jCodzJJx7712LL3z+CygW0gmQbSafLOwOoiQpk4H1lHXyS1/6ku58PJlc9xQMl72G//mZz+KuO+/SobFpPdZtJE5b9/fmGWD+OczDj0q2muPF+5Q1j9/61re0R3Mm272qlOnXv/G/uPGmGzWOuUK2dd8rePLm4yU1EQ2pCYmIsMJwJ8YevEHICfenkMxRkcSTd/9RrCzDCcbeS00WU7rP2tFiKliPAhYDlWY40ge/2i9pFtLANztRfNk9O/YOFALlJI2dcrMA3cuOR9KxGPrFX5ETratyzo3c+RkA7hVT8suIHr4dXm2n3G16+Pc1SfsZKuY0zXyYDMFNr1kMWUO7jFHLJvDBV9vMA2Qo0ES37Q7OQXnWM5+ly3FNdpoLt5EnNtwcIvjwhz+CtWvvVwVhScNM7pfCMPlWxuWdH/rQh/Hb3/4Wo2OTL8G1DRm/fvre9753Frcm33uwzhx++OH6ldZsw2/TzjxX5c2xLITsZz/7GX7+s59rY70vjbT1u3NXH/77i/9d30J+vuApT3mKKsuJMjDPGq37+vqVNG/ZslVluA/i0nhqtRA//OGPcPU1V9erfruR3elgb9NMGdDv2WedrRPNeT5ZHeTwFwniw+vX19uBfQHrJp/1n/zkJ/Iiuc8UYZ+wb7FT9pRZQnqSCq82jOq91yPo34RCLe3C8qngTS9LFtpVJJbcOdV23483Em7GmLkJxuzevbFj+Fl/dSMFbgyvpTKooX2C0W0bUdv5sJACdmMzX2xM9uGJU1BYJGk5iUfOc2J6V2DxSY9GtbRAbuV0w1g6YzrkX059lNh1tn0tkvvkQWU6VN6pmWdg9oiqNNCmXJhRU668bl2OxtAzD1kj/+anxUOZBqmmGXRtzVzD1kNi0eJFeMfb3yENErdaZ9e/7WGiabilYSNyyy234EP/8GEddmFXOBunmWigCCpR9tBwwui73vUu3HjjjUqMODSSTYc1BHsI5ApvectbtFFtV/DN8/nPf74OQxHsNTE9V6xOHgI/J9c5yf8wvvf9i/GjH/4YlfLU820mA72wTLjnyQc/+EH9LAAnOs/Wl39nGiTO3JKfww1Etn5xzx5rmM+7774Xn/zkP+OBB9aJjKUuRnsjr0TqXhXf+uZF+F95g+fcliiMTJt5EMHWSb6wUPbZ58yA56aF49DL5s1bVfZ3322Wfe9JVeVLDU0k5RXWIvz4Rz/FV7/yNYxImzJTPWJ7i1bt9x6BkzwTryiqk30M8lftx6brf4fOagUBu99FqEkulIc+FJEys82qgZI0xs5FEL4zDbMn7qZyK4WTGp5zKCauDKKyea2mt14nbDL3Guw7yYuUzBwJJWVBHqU1T0Kt9xB4xQ5dtVNMqnKsSrwkRT6Kvrip9GHzDb9AMrJLvDY1bPWxv6zZp4TOIpiuGJUa9y2RK619VrBTG5aV3TMlaxiOOtETW53VYl7BvjEde9yxeP/736/j/lZpTgUORXz9a18XYvNOXHLJpaJUBzSsvQX9cvkrJ+R+5CMf0TczKtfdhcleHH7V9i1vebO+9VGxjW9Q2wdM2wknnKANP4d8mM5W+aP8OQ/lyxd+GZ/+t38TWW9WxTtd8HP4HBq77jqR5Yc/ivvuu09J3nyDzpF68Yu1R6zVcEMW94iC/H//7//pHi9j5fIek5Qtomg///kv6LAFiRxxsJETgvWRptRRwutf/3ol0+Pbg4xc5XRoeAgPrXtISPA/4P/+cLl+hXq64KdDSFD6+nbiv+V5/9KXv6RLx9sBwYcF6fleoeZFqIoJRDlwoUll858wfNsP0IGyKBXJuNQt9qAQrGZss2ionLQBU2POjUmt1Ng3x1aGbrP3p3KbNXRn3bKQxdh7aSr5CFZHxtB5+pOFRBS174f5YHeXcbP3oP9GGAyvBD+oYfCBG1DwJSYRld5n2iS+QBLmCXGplPkxNiEsSw5FUpQ3vzTB0rSKYxqiEXIDrezmCtI4V7Zg+K5fIzeyRXIv5SC2jbJnhtJeEx4zxuTV3LcmYZfTgoUonHQevPwytTOLjVO3GRi7iWhlNxewCpIKgEs72QPB/Thav8E0csM6STfsQbn+uutxzbXX4YH771clvGjREh27jyVsyqO5obeNIP1z0u3tt9+Oiy++GN/+9re1e3fLli31+Btb8fO8EXeQM0O3jO+5z3kuXvqylyJfyNdXdGTL1ppWGBsb08l+2Y/5Zd3S7uyzz55yVcmegOnlp+q50Ry7yM0kVQlXo07z50urpvn28NBD61TpDg0N49BDDkVO/NOeLselU99EhYRXarjq6qvwne98V3sC+gfMnifTIZ0WTCN7erq6Wg+VUSZ33XWX9m7Zno1m2bAecbLy7ojFVGCaly5dqvNx7r33PlVmLCKNycbHNwixkdqmdem6P10nbu9Fh5Aa+qUSZNrYcWSKl9fykiHp5icTtmzegh/84Af4n698RfOj9Y7uxM10ypv1jfXjhBOOr7tv5Y+EnquObB1rBmV+/vnnY+XKlanN3oNxcL7YuA9UZkA7fvCP8WWflywoe0sMOcfH9HbwTuNZYm8fe9spy7KQOk5Yvvce7rDtY8XyFQi0zo1/9kgc2S7EMWW/VdP5hS98UcuNspcSVvfqZ6IYx4FuzjzzTJx88sna8zuT2GeCEsoflUKRQxeSkfLOexBtvhG5cEyuOQnWPDjMJHsoJMvpucmYUcTpuZ6Ya2NSbd3KEBPcykn9OjXmRw7WLY8ZQyv9ayAnT1FYKSN/2FHwew9F5JGk8FN3+0ZQsn5NnB5CvxPFrhLKm+9EMroDvlQaU8QiK2W2nAOTIC8kcHT7euQPPRRB91LE4k+zI7JvoFXq9iXFMwnJT1JGNLIWo3ddgsLYLimy9CHIpJFn/GSP9q6YDI7Lgq0mrD81eajDBUvQcfxThKAs0ZuUlpWtRepFjSnxBhqu5hYqB81cQ3lyv44777xTh3OsAiIMWUhzxH8SOskYG/q+XX249757cdllf8AvfvELJR0kGkPyRsV5AlTGfDvatHGTrr645pprdBjnC1/4gm7IRKXCOSfaSKWNqklbo+Gx6eQwRZ6KT66f+cxn4LWvex1KpcZmTtbddLC/CQrB5b7s9bn11ltVdhJjvYI08mzi4vd5OOR12223CXn7KdbetxbDIyMYEaXNtDPd27dtx4MPPoTf/ua3+OznPqvzhB588MFxstwTtAtBIRguNxS88867sW3rNhGTeXbTuxljSC97ijZs2KBk4Lo/XY9t27drb1K5XFFZ7dy1Uzeru/baP+H7378YX/nqV3H1VdeMn/g9PitT4kAjKDzac5Yd3d19993ai0d/4/IojaG5FiM6je0FP0Fw1ZVXSV4v1eedLzActt21sw+7+nZhx47tuOWWW+Vl5Dv48oUXyovNtdo22KFHDS8Ncneg29kiKJ5kds+fnAyoEFgpOeFRUop4ZBOqd/4cA9d8G13xgA5XkFVHco98gO54pIJRqBzMhXbZM7y6UCgsXtQtGmAAKcEwoNsWwrER1d3y2PCX1BPSACeoVoMe1I5/HJY++Z0Ii4eK7b4TlFbQgZykD/Hmq7DzZ59Ex9gA8lpJsg2AkU1UKGIIC7DovDejdPyzJZ1FI9AJcsqez2yF2VuYycYjCLdcir5ffgZdw5t1fzWf9SLNp00xP4EwoVjGF5uiEuQxtvpkrHraJ+B3HSEBsKaxNtkaNRHm8WugPaTTGnxj5UZMn/3sZ/XcwixHbYIKLM21vhiYc/t4c34I38bYEJLQcFw/4rpNkQjd2HvNzYG9zsaZrZc8f70Qkz//8xeZRnYywe8GbEQ5sZakqZWypR3ntnAFTtZ+b2DzxCPf9tljdNFF39Fr9oA08twgKGYo1aRJZSkNMdPEPHNFDuUXimKgYV2nPYlJLsjptfYITAKGaePMgm/OXxXFvXz50tRmPBg/ex2+/OUv6xAbkZUNw1y0aJHmr7Ft+t5BZSPmjtvvxMc+/nHd+ryRZonTPrD2hVTAPBfyBZWFpk+cMB2UFf1WK43vzBByZs7TYPdkaIfE4q1vfQue85xna/hEq3rCfT04hErZNdLfAGX+ccnfGWeckdrsPRjHm9/8Ztx///163gzacZdlxsf0E5PVbdZTEp0PfegjuO/e+1SmlkykY+UGqfxZRxkmZcpn3VbjxuoxEz/LyNY/1l3tMZy+2BX0/4Y3vAF/9md/plslzCT2uX2myvbT113JKrzSSpROew561jwLYx0rkOQ7REQiNFGk0jQahZRWPGZMz0SxqFzUiJ1Y6j2xMIbnTYZux9lN4S7jVhIgRizqRuJvMlz2y2XGha13Iul/EPko1NkjJtUzBz4eWoG8IoIVp2KhyK3avQxhnr1RaXpT6LWQvSXRdkRXfx3h2p+JZ44z2oZv4sPWTmC5+7UxxINbkKuOCHHlBxqz5U5HxmTt6kbrxHhDldnLj0/6IodYwtYSEjnJbyrcdhfLlODb7wUXXCCN0odw2GGHaeM+6ZswCbj2IjbICWHrkX6gM22EuL8BGyd7j4b32FjRnufWNIN2trGl8vu7d/+d7uGiQz2NaNsadZnI808Zv/rVr8ZTn/pUbZwpnzoyMrVg/u3GcwyDsuBciZHREd24zioNO1dF7VJ5NUOJjsQZ6BfL2xtWXnxL/siHP2L25xDxcDM306anssqAdZXy0D1z0rrBt3j2OFHh8h7bP97TI081LGMs1E7+KKtWdfJAB/PMZ5+7IL/rb9+FQ9mLToIi9YrPsjy5dWPBOsoXEK17meeSclczVlaCqC8q6XNviV0zaG/LgGW0P9E6RdME00rDt3tudqb1U47IL0LHWS9G10nnYbTQY+YKsOFURSPuaGwFlHOdY1DHzEigHk+z4V8rezEWkiIEcRUY2YHowVulVPs1WSZl2V+CZ42rPYHGgzFNE4LlKK55JnJHnioEpUPkM55wEYFU1CCJ4A9swOAfvoqRu34kgh/Se7MBm6u9z2ED9O9Jg+Vtul/3mmHFY7PMvJs5Jo28tjRKXI2x4FBcsHUdyrf+Akl1s8Shzdw48MXOpL/V3fYHG/lHPOIR+NjHPqZvW/vaVb+voPyZhhNPPFHf/M477zydVzBfwfywAX6LvOk+7/nPQxdX9jSq2D7A1DWGP5lS5Vydw484vL7p3XwA88KhHk6EXbpsqSo3mhkhDpPI3RI8Lg8f/z2Ygwusp8cedww++A8fxBFHHKG9U5xEO6OkrUUZkARx9+UjjmQvdWq5n7BPBIWgaKx4uPkWJ57GQUGU7Ap0PPbF6Dzp6aiUDhVHBckb2Zzcl0xyFYvONWCGx2V6liUwjeBJHLiiJh+OYfCeS0X5PYSwxrk2ZKlk/ZJ+MZyPT5t9gVHUfDMoIRY5LXjMy1BdfiKq+RJCUcqMz7zJiWxFWJGwPD8QxVzZil1XfAPVmy5G1HcHEO4UYZYlNKbMlgozK8epksjb7OonIYtG5SgmMSsNqNAnefnbYzAnTF9ZCEUg8QnVkFxL+phEMQ0iYc6nBL2J4feKvOGdGL3jdxi4+UfwKxskTHkzQyhhSDmlYTILVirzCVRu9s2Ge4u8733vw1/+5V/qOd+gbI6mbqBUosZQrlmzG4kwXKbBKFmTjiVLFuNlL3sZPvlP/4Sjjz5KlKzU3hkad57RhnYPwPx1dXfhzW9+I17+8pdhwYIFas/0tE5TKs8JsPbWX9YwHv4amS5cuAAvefGL8eIX/3nag9Ls3pr2Ans9iqU8Tj/9VPzjRz+K444/TocSTB1plldzXqYyrUGZsa6feNKJeO/fvwednVy+3so/zYENyphzPI466ki87/3vwyPPfKTa256liXW1hVyyz7/WR8K6M24pcxseZc95Pe9+97vQ092TcddsZgf71LIwfwzAGs2Zp+t5pNIKIQkORceZr0D3ma9EKOeR3NMt5Nn9JB5IUOhRBZIejWGjaI7jIhhnmu9ZP8Y0C84uN54KJl6qTu5Hyjf0EMXy/YjX/gq5uE+UXEWnBDNYhlQRY3Z30Qj3AuIv6ZDfgiRfFHawAF7nGVjypNdhdOHhGPEKIhcJn9/nIaET56Fc1iQf3C6+N9qB2rX/i8Gffwo7r/4mMLpWhLpLHPFrzCQd8mbG41T5JjmJhuS4FRi4HdH6a5AMrpfrKjiJlX5ZUZt6b/ccyRiSnXdLVFtExsyPEK1U3hZKKJpEyaSryVyoF3Ur5wUfXdVtiO78OQZv/Cq88AG5xeEepXaZGpB6mmdgA8EeCyoBjo9zt9lPfvITeN7znoNSqahzHIisHBtg7humsYLNGroxflv5Z7mzO5jEJJ/P4VnPegY+8pEP49WvfhW6e7okXWZoomXUewDbGFpMlp7ZBBt+ypiEgcuruf8E02CHX2yaTLJay5Mkzhp5gNKjlX+s8ioWCzqn5D3v+Tu88lWvUIXL4ZGGP+u+4a+dUCiYuRKsEyeceIIO93BeUKlovrxLQ5hjc14mN82ytIbl8oIXPA8f//g/qmLOyr+VsWmw6TgQkM0PnxPWoyOOOFxIw7vx2te+VodaWU/HDxVmZTKF4dDcBLeMk/H4uOCC8/CJf/o41qw5HaUO9l6Nd98wps7PNKhd9xmTVYWIC3Y7VqBwxjNQfPzLUek9HOVcQRUs4gIC0UbKLYzzGQWXtakRaRtFSKG3Mi0qtKQv9mMhBNzGP8TAfTcjHlkvHIHLucwDyqpALk/1wOLZa2i8Nm4mqIDcwjVY/pwPIjjycRjLd5sPLXqRpodxcaiM/IzfogniMroH7kXPrRdj6PsfQPn6ryLcdRMwtkFkPCCOq1IOoRh2I/OjUiQvQq3YSxJXhDesQ3XXVRi7/ovY+OMPYMPP/hE7r/wqkpoQFn7/wgtFHEJiMgpkrxAPYfDhmySsMS1wfsU5IvliRsRwCKdRVg3Tys5Cz1UOITprfRi69Xco3/5zISkc9vLTx4XDaOJGkt/wOX/BPHP78be+9a248MsX4pnPeiYOP+xwJTIzDXan84N/T3ziE3WVz9vf/nZdXTQbyJbrXIJ5Zu/Av/zLp1Txrly1UonLniJLuHgehqF+B4hzXf7zP/8TZ511Vr3Msm7nG0i22KPGIZ81a9boyqiZKEuGwb1qPvrRj+o+IOzVYtm0Sz2Za1AMS5YsUkL9MSFvj3nMOfWNB/cFrKccsuMQ0gc+8AGdY8aVbsSe7K0yU9jnZcYtoVpUO/XF8E25hPziQ5FffgxGd2xHEI7qN3qSvCg+YXDGpRF6w5g5GKqzp2v4JydmzX3DXjWTnJjwJhqmwByNOztUFQbih107ksxqNULpyLPknrBIIVb0KnfIZfR85kAyIg9ibhGKhxyDSN6q+vq3oShEgySBby4an8SryltOfSEufiJEojaC2rYHUVt/O8YeugFDD9+A4ujDCKobJZ3bhbQ8AJTXCU+5C9WHLseue36D8h0/RPme34m/uxCM7UKpNorhiofeI85ElFvGkTkWkcqBvRt710BIAGMPo3L7j+EPPCx5MBvgiRQN02OQGaP3UqMyTu0JPa8fUwIjcuHcnKKYcp/IatXR8ItLpPw4LTtMP7Ngysz4MoZhz0ewDtCwQaKie+zjHqPf8qnVzO6vtfQrw+aNnLJi17DZ54NDRrxn6lEqkBRWYVKRctngK17xCv0a8dOe9jTdy4LubXe+NTOFSrmCS35/Sf0DfdZYsOHkHJyZXGbcCgya4bOnY83pp+uW+MuWLdGl15Qv5ZeNP5tGgte8T/kSPFJmlOMb3/hGnHvuudrgU9a8xy/FXnXVVXU/1h+v2XPGlRHsObPxZOMmuPS0vm+IoDlt9MswZmfukkkTJ0gfetgheMLjH68bDUaR+TxCVjZWLjxae+bVzl+x+aesSHRIhkkQjznmmHrdpfnOd76jk2ybwXtmmfEJem7tmsGlz5dddpmuKsqGaw1JELf250vAvoITgi+91CzzZdi2fLOGk985j4vnBN1NhWxaTZj8QvdiPOaxj9H8j4wMY8uWzfU2wD7vzCuNlTXBe7Y+c7I408Dni4Twla98pX5Pi70yvE933AaAq7ds3NYQbC/o1+ZjprDPy4xbwQbI5pHJN0mWq/IQkpG16L/ue6Kv/oQOvx8lUayBvKlPhPEl1bkejvmZHDqnIYNUdpqebCapaM3JeHtuXEME2rDHOgckx7Eo0dJDnSux+Gl/g2DFWUj8Rfr2r8pPfqWaiPvdJG4PwNiZb4bvxdswKgRi4MafI7/rXnTKyxzzxQpDdUIVnFjyoH+UJWf7+Kh5OVSRR5grSpq52oVpZIWMEcU1CbuKTiGLnhAGzjrxRJEX/F4MLn0sVp7/DqDrMJGBlI+ERyVvhuH2LJ+cJR4I0Yu3XIbKJf+IcHiLpEMUpARmvjeUOpwEJIAWtqrqIbU3z4PkSQvVQ9kvYOeKk3Ho098Fr/MElUY+6TT3TZU6IGGXmbIx5I6l3K+De3Bwq3CSFsqOe1NwyIbnfNNlY0LFRYVJxcDeES6v5Nbm3CyOZU032TLf0/KfDpgepvErX/kKHnrooXE9FoyP93l89rOfjSc84QmzkobJwLipRPn2yM/+X3nFldi4aSOGhoZ03wjK3Tb0TDcVHBt7kkdOLOSH9phm7sbKxj6XH08UWE7f+Mb4DzBaskFy8fd///d6pHIhsnln3NxY60c//pESOCsnC/phvNxif3YISuOZtODKJKZ//Yb1uPzyy3UfHsqJ5csj79k00i9lxf1+KCuSCxI4khLKsZWy4/s0Zc8wbNz2yP1eSCitv1b1hEt+uXSbJCebFguW26te9Sr94nUr/3sChv/FL36xvhdONs1MI8uHQ4lcRdaqfPcUDJvxcN+jP/zhD7jnnnt0rxm2CSRLfP6tbHhkvVq4YCE6uzpV9uecc44e7S7WNi02XMqN+yRZO3uf9fA5z3mOlp0Nf6Yw4wSFgdkAmXwpEnNBhGWRjDyIw+sxvO536L/5d+gY3oQuXckityTDuheKaiUx+i92KaOgYrPIKq7J0Kqw06AUzVnnlAuNUexJi7h3Sz6St0+xLwdFlA89G0uf9GYkPaeK8i9KyiqivPk3sw8/42YKmPdalb1NFYS77gTuvBij6+9ENDaIXFzWOTJcqkuCEnPcR1AfU5SM8kynkWhl400jyzAkSUnHkyPOq4lQEwIzGnehe9Uj0HXO6xAsOUMaTYbLPjBDfSj06TxAllDSJNLweuEgRm/6KoJbvoZIJ/IyHA5QyVsEE5lid2Vqy8sWG92zpyuW/Ol+NpI2Nu1D3Z3oOOX56DnxLxB3LJfS6dQ8HMgIRUFRCdk9Oigr2rEhpnJlA6XKI116yLkrbBSLpaI2SFQU9M8Ghvd5ZBg02TKfTvnvKRgH42QjyDS1fG7TdMx0AzgVGKc9Zs3oyCiG5U2VcuX+NCSBTD+VG+XIhp9Klz1RVvEwb7bRt/nLhplF9pplkr3OyoZh2qONJwvrb7bICdGcdoJpZN2jTHgkOaGchoeGddm1BZfOWnmRJNvhIYaZlVMWzGtznHTHuEgQJ5OVBe8zTZPB+pkJmTFNRCsZEZpP+dM6nSa1VZqnCw0vlQVBWVlyyBcTS8rojgSQ9ZWGdZVziNhuaPxMrhxsWmz6ebRhZ0F3NLPxbM5KDwrBbJjkprm1YHQe50CMobzzXuz600Xo3nwtctUyAlU20tgKiUlEKfvCVsybtljSm4bVCiZ8o7AycWWQtLauQ4WvwfPHGC6dzkka6JVkZdjrRNcFb0PXUc+SdC5Kld7MF4qJn78SfsLeAZFmLDKLh5FsvAnb7/odkq23oDPaJQ8S2a24FxNwaEt7f8SnFqupOJQbjdl3QFIt7ni7Jg9qEopSL3UhWnoEOk84H6WjzpenczWQ7xa3EoIEZ75RxJzuRogC+uG7PI+cUsVeoGTgGqz/yUexuLxBrk2jquUk5cop1VOBUVtkHxQ9MhYJJkzJGcFyDiXcke6jsfJp70B+6aPEtktkJzda1Y0WVgcamh9xe22fleZnptk90exmJtEcX6u4mtO8P9BKDq3QKv00k/m3eeD9/Zmf/YFsnrP5bCWLbN73RA7zUW6TpblZLrORr2aiNF25t4OMZ42gTA4qSSoprjCpIRndgNray1G99xIEA+vEjhMz6a4m5ETe5ES2JCr849Lkca/chF5OFOR0hZvNvj2n4jPnjTCo4mt+AaM9R2DVuW+Ct/LJYlsSMxsEpQGmgynRjZ+SEPmgiqS6HeHAAxh78BYM3n81itFOFIXw5aIq8nw58ChfQwQsSFgCITEcsYqCPGpBERWvCyO9q7HitAtQWHoaoq7DEOc6hCiKQtfVWIKMfKYjU02rStBMIPaiAQxc+x+o3PVTdMXsKWuEZwjK9MqJ3kyoTJI50+/0yNHUlwb4ActqsADJijOx/OnvBoIl4ohjYy3eiqYZ/YGEbJ1vVabZ+xaz2Vg1x7e7NM1mWrJoJYfpwKZvMv/7K/1zgcnKaTplPF0wrPkmw8nSPJNymQzNcVjYuHZ3fy6xHwkKozFv98bwl93/YhePylv2bRi67RdItt4Jf3QHgrCCwOcueeKGGigW5RKI0s2+UhOTdI1QuM23mr0aWLUnZ6ko+GsmGDYCYO9KHHDnjQJqK87AknPfBr/rOOEnosxnkaSYNDH/cs7JsEySTpjlJKgKUFmP2sa7UOnfjNrODQjGhlGr7DQy1exI/uTIORgFFOF19KBWXIDCklXoXi3pX32KyHWZZGEpqkIYEi8UYqGzTlKCwh+D6VfYBDUhmoGQzGTXDRj4v8/A3347Cs3kUmLZXQ9KHeLVlpSdK0TSyKoxvpyFympXegEj/jIsecpfI7fskcKWFsstR1AIW88nK89WTcJsNlbN8bWKK+tmNtOSRSs57A7ZtO1vObYDJiunuSi/dgLz3yrfzXVkNmSzu3q4u/tzif1IUOxbPaNj5vX9Wi55LnZcyjq2GfHILYhv+QVGN65FFG6XO2XkuKInLCDnc1IqiUMGkxEU0XvNb9YT9GMTdrfpWkSyxO/0+AvhHfYYLHz8a4HSESlJmUWwiGg06/Kja2bZD0VjBl5InfxwGHFtG6LaLsS64RrzQ7VO/9zToRtBYRn8/CIRf1GsKE1+isAMA5meLV4ZgkKkNGVyMIomOdMqimqSzK0Yu/G/Ub33t+gMh6Q8bdk1PJjvnUwOW2Y8sO+tGWpfD86cCG2RuDm41Anv+Keh69GvA4pHiuM0rmx6bZBNeXDYf9gfjbSDg8P8w34mKGalAdUedD+RtCFiCuQ04VyKZEzISB/CbXdi532/Qa7vLnh9m1GKOAlH/HP4Qtxq576mnB7NIQuri7JoRVCybSFTaDFBLOKOm7SxJ8JDCWV/MTpPfSY6Tn+RKD9+TNCXZLC/h2FSvTclaJ8gKSOBq09QEtnZyXf6a6ApULGUJXYakxZNvBAr7ghi8ku/1hjew9xyvxSCpMT8TQMqe/7QMAWUE2Vdgb/lcuy49KPoru1AQdJbq5rws6KtLyefBFxCTPDX5j5bNmqv3k0YrBeBEFktp7iAqLQapT/7FykjLj9sfCirDhvU5ElwmGU4guLg4NAK+5GgWDVIsAES9cfLTFvEURWjT0XtRiNIwn7E1U0IN92GrXdfieLgOnRjTHR1VVRrqMuBOYmT4Ns1F95yGISWliK0HtbZPZrFwo4armhheAw7EWVXLixCj7yd5496qrjoQS0wtID9DyUuoRXbmWlsmRbJVz1JpA4Sbho0RUAbHo0TToUlKAcbvz1m89WgIMavuUfJTZnqbBA81zkvRCAyMnOM/MoD2PGHf0XPhltQjKTMggQ1LRuJK5UtYxkfU6tYs5GZ+7ZssnfqYAGRyApD9aICklwXSk94K3Dk0+EFrb4K25CBg4ODg0P7YD/PQWlSQC2sCKo4JQKaNC5LE6JS2wLsuh8DD90Bf2gLov71SEZ3oRBVkBOywq3fEyEFkSjLhBuByTl7THY3rEM0J2EyLxLkOLecZVHuPh49Z74UudWPQa2wGBVReNxvtqi7zor7A/Vt0AqJR666kkMseRcagly8FWP3/BDl67+FhWM1KQu5H3Aps5SNiKNOUEQ2pkdKr/R3ImxEjfv1qFt6EaLKuUss/zgnacphbMVjseS8t8PrOE7uN3tyBMXBwcGhHbEfCcr0wbd57fkQw30u1CapIRKN5AsF8KqbEY1tQbz1DoSb12Js+zrUyjuRF6c5jJI2iEcOx8g7PQObAqok0/PdQVcRNSHId2Fn7hAsevLrkVt6jihNflunsSX+Ad1dnYqDPUuhSjFBkAzB3/Ar9F1+IXqj7ciNCTmRW/x0AJePq/smgsL9bwxaySor88Z92k5OUDg7x5cqEOjniLZ6y3HUiz4Cb6GUTxpco1wcQXFwcHBoR7QlQbFQJaR/qTIRC6oTL+FcBm74JSasAFEVCd+ad25B5cFLdVJmzhsUX/JOn8ldsz5rKEajsJon1U4LiY9aUMBAYQmWPOavUFx1trCkJaIID0CCQlk2Z0fs+G0lbsmf5xyjoVswetUX0Ln9Vvj8jHxkloebbxsJbRD3XBFFcmFlo8fWbKNOHxg1zdRIw5C08PtFvM6FCUaDLpQe+xaUjn8FYomc8TXKxREUBwcHh3ZE+7bOVGJCMGJURe3VdKDHkBMzjwG+EAC/E8gvRlJajbB4BCqLT0Hpkc9DdcWJ+uVkhbr1hEeIb67RpakrJ4lDTmn2ipykKIQhFpZ3YteV/4Nw63XCm3aJ7eRdN1S0u+nYaV80sQTKjXNO8uw5KT+IkRt+gGTXfUJYIiEuBYQ5D1EgJFOYiZITdd8A5cBrsxncRENSQ2Pus+ynlhz7w/yEu/vKUco6L2VdikdQ6dssvIW7eXKisCMlDg4ODu2Otm6pyRlU4YjhGhRPV/BQUfEuky4kxcuJPZcs51EoLkJSPAy9pz0F1VKPcBHz/Zgwxzf4DCkwAafhUDmm53tlTLrySRXd0XrsuOLLqKz9BbzKRiAaVaVoNDB/OJmUR4NI/uzE1PaGpJHpV/kzPybNyhVDkXxUgVfbgKFbvoNo4zUoYASRL7kLonRXYA7zmDJoll/a0VE/TsuQ6TQblkMqS4bF+pKXBHLXXM5lSqoVVCvsdWMAxp2Dg4ODQ/uifQmK6BGSk0CIRx45UXpULJylyp4RQ0gahq58BPJm7PuLUVh5NmrLThRiUgCKvirGhD0nWcil9p60UJrjjfxMauR+ECPOiQLOhSiijIXhgxi787uo3Po9YUbr9Ts0CZcIq1I0x4Z6NMty2xZMnDWadvZjiRFWomSPpKDKryhvx8gNFyN68FJ0eIO6zNcXuXjc9VZIis7doaxSk5W5FaW5zljUTcNt3Y5zWVoZTjgSYhRLnNwXJiA5LBQQ9iyD17lU0sW6w8wwMAcHBweHdkZbz0HZayQjqO66HmPXfwqFvvUIanyL55t0el+Q/RT91MjebyGqeqCNe3FSQAULgEMegZ41L0bSe5Io7B5xa5YeG2bEoxhLEdtaZ5Kc1MSQmPhyxf4J0sIK/LGtqN34VSQP/EFIZIgox08VcJdb+pEsZsSjnTAi72yNSyUyOVL58rfuTXtL6rcUeqpi5fRYuR8HCJMOjPauRvdpz0bxiKdKZIcbRwrruX05uoODg8PBjAOSoDBLcTyG2oNfwc4rv46VPr8BE5gBFavw2P2vb+TpdXMPC7E7ydS9NBzqxmKiHLlJWDUQBdm5Ar1rnoH8EU+R+A4RFzkz1sQ3fp5wbgy7FFpE3z5gWplHD1VNaIx8PACU16Jy50+Q3Hs1SmGfZCMUZzEiPx3OUaQZE+8UjQ6npaDoOQTTDJUho6NfWz40dTJp7OiOnTOc1xIFnOsipCSKEddqCDsXo9J7Glaf83r4hSPFca+YUj05EzCZvYODg4PDnODAJCg0ki2v+gCGr/scOjZfjaBa1ombpt+EbtJNzFRLisVUPSlWQi2djBefOkmDpDYO/TwGi8tQOuaJ6DnyafDyoixzS+Rt3hceUxF37ENo8Y2YlmBcU6RzL2EHnVQeU4Cyq5GcJLuQDN6GXTf+EIUdt6CzOoogDoWgVJWcqCzrYjFh8lJrWj0Kc9Kq/0LvqAdemID0cgJBESPsRJcw57m4PI/IW4hq1zL0HP9YdB95vjg9WoLokHDEr5Y1j+p9PFrZOTg4ODjMGQ7MIR6CueLmbbuuxMDl/4XuygNIwqqoV5NdZpvKUfUSf1r1oFjwtT9VlBMx0Z7kRz/sR39CUAK/gJGyh7HFx2HJqS+Cv/wsISorEQpJ4bZuZs9bgquWzFU9ugmrVlqp9L0Do0ilIX/8qg9Fwe/zaAqUANQdqXKvyOkulDdfiaG7fo781jvQLZRFiUMs8hR5l/PcC0UoVz3ZJm8ajMpRL+uYLDcaJcNUj55+hdmutDKTYWl8CZM9VUAl3ykkZSWWn3ABvCMeBy+3El6wGDE/kaCTXgSOoDg4ODjMGxygc1BoOMzA7/oMIt5xPfqv/iw6alvkjTvS+5ynYNSWqLvdKicG2MpRVnTGjVWivOap5wfac0DdWBNFOVzogrfyNPQc/QyUljwOib9QbubEHf2T2pCgyB8VvAbAuRxW26cfWJwhMEYTDSlJTQyJSkGvGIsSLN1ypgoURoUFrMPQup8h2fhH5MrbhYREkk7xxY1NCMpcvDAczU4KBpO5NBb8F7JQ95tCrNW/QkhjTouriJrvCxGhLCSNkYTPLxbnSygXl6Ow+iQUl56BwuIzkJQOE/8iJxIRCHOpF0h6tJcWzdcODg4ODm2BA5igCCHwR/VtHtUtGLj3Yvh3/Qid0ZAoT1GsYh1RQeobddpb0BLTFA8ZiMRl9aEVa2MSrsQlVtVcgnKhgIrfi+KCU7DkkS+H33GMKNIOUchilDYxTZP1LcwGmFYaQ1XqMTPByZCQlI2I+m/EwC0/Rm50Awq1EeSEQcXsmZA863weOk3zzM4om2uiQdosJljUwXACCYchVYIchvMdCOOFYl/QMquKjAqLV6Nz6WHoXnoUvAXHCb8Tkpd0Ghl6nGfCQIR60YPtPZkMkyfFwcHBwWEOcWASlLTDoeZX5NRHTggJP143dN0X4W2+CR2hkBTUEAainVRBZZRyS+xGRBqGuKGyNmcTCAoVP7mS2Ybd0IBqVES56yh0rD4NvYesgdcrCrewXFwvEo+ibOmB3k0QswuTaEmgpI+9EygjiTch3HEDKpuvx+j6m7Ao7hOywp6WDETW2WEzgot5s2A2zB2Bep48Q5Zb1Lw8xnoOwYIn/qUwyRVyQ0LNiT+SuHyvXHdIuJ0i3y4NPIlNKvTryPxjFI6gODg4OMxbHLg9KKJ4OKODVICjCPxGjzdyIwZu+B78LbegI+7XL+zyz+iySTQVNaYFNW0W2XtE5n5WrDxTJS2GFIZfYQ4iiVcsBn0PVVHGnijdpPtoLD3pXHiL14giPlQ0dUEMewS4Id1uFO1eIZP+mpxHI3IyLMKKEA+vxfbbfojcwO0IwgHkhZh0Rp6SOu5rwl6OQARLWsDBMs1jmmemNCupbA9KswhbISxHCLtWo+OslyK/+kXiqUdsyTprKodYyAq/XM0dZgPuFKflzF+SE1+nHbNHTMvUERQHBweHeYkDjqCYwQHqHSonOaHmSiJRjPLmH4SI+69H/5++gVLf7UJayjr3wyhNEgYemzCJAlOnkxAU2rYSqxIUsTYkhcqVyeOwEJVtAbUKUAiKSBasRrjoWPgrT0Bp8XHwOg8TMrVAXAph0f4JGirevSUtmkIx3Mu2JqFE8CKJfHg9yptuRrjtelT775L7wyiI3HIRNz0zearkRU5ejLwQrGLo0afmgTB55v0WQkutJkrFkAnxhIjCkX+uxvEPPx89a96CuHAEQpEP3TAdpJM0JD0qT1/SraFywqxSEwaVEhRjXwcvm9EiqQ4ODg4Oc48DswdFwEw1FsDwSjWs6KtR1PpvxNAVn0XX0IMIclUk013luwfIilVjzypCsRDB61wNPx2S4FwY7m0WiD7l8EY5yCMWstI3XMOCJcvRu/hI5I44F+hhz8oSyVsnKugQqtKBXE4IC8PX/DJwubDx6aRgMRwi4U6qsTiKhuS8InFy4uv9wEO3Idkl5KT/QUTl7cgnY+K+JoTByIxqn4YgiSAxyMWJGENOUl4mTo3A6wTF2qfEYxxZUKilEA+hSOxJEhZUHotRPexcrDjzNYiCIyRvS8xXrNNsWdg4m2Gj4e2GE6YrY2OiNZgkHAcHBweHucUBS1AsbPZICIyiFo0U70T5oV8ivPNbyNe2i44yq0P2RFeloepvA8ZWf82pgsrUXtKHuW96Gqzi5znTqj0DYkc/qu71tvx4RYzWFiDoWASvcyH8niXwe1eI9aHCO4rI+T7yPdytltqZnuRIBlTjDrByTvIwNoTq8A7UuP1+ZRcqw0JGBh6CX+6HH5WR96qSnlDTYAZOGpSCIdq0EqYnqJEvwhIUxttwKfbakyE2dVZhfZLsCFGL2eshBEWI1lhpFXoe+XYEi86RrBTFZVGcscco9TIu5AwYvJ5ImMy3HBsuzZ1xqTJWYjlJeA4ODg4Oc4qDhqCo4vJqoojztBQltg7Rxi+jctNv5Q2e35gRvTpNUdBVY9OwidD7k4Tlk4jIkfd5rsMbgvEExYRPdR/HEXJBYPyF2l+hf9ojk89jzFuASpxHzF4GnaciN9JeGR7JyWjnxzX9qm+eu73yQ35yHcckJPQnTpgeOk2h4UtCWhEU5RstkCUoqVOBdSwWE7o9EkS+2S+GVK2aX4Dacc/GguNegzhaBD/HD0HaIRwhKbpqiGSlORwDEzzLWS/HgVatfWVz7eDg4ODQLjjgCYoFlTq/JJPjNvSS5cTbhKFr3otg5+1ix/6C1phMGe8O05GqcA6jNOWExzj1xF8q2ZgOUnAaqhdTmZs0cYIt70dCQnS5dOquAWNjew3oJyfhkwgp9RELBm+Ln2FEcsp4GTbBUC2BymK3RE50fiPtpidDw9EJqzyx4TN+szV+VFiI/BHnI3/iq4WLHCk3hIio8PkFYpYP/ZKc7H4vGDsnJgvatPblCIqDg4NDO+Igap2pbgPzdu1F8Ea2oLx9C/KckzELoH7enWGviCEMU4N6mp/uyUvic2LYk6HfsFEjN8R4AY3kq26sXahfF9YvDPuRrnrxPa6BEWnE3AjNRxAFOszCoZGYq3TIA6RmZNOaNYyX8U9m2PtDZ5wETCNW5odhssYp8SCEMCIS8lKE13MW8se+VpjSCrEnOeF9/lhSYg3tdmccHBwcHOY7DqrXR6o6VbAYxNi2W7FYFHtgX+jFUBjNJquYs4ZEZ5+MBM5lslmoWrcRyHk2DfSjPSai6EMavTbDGaRe7BVicBMNw7L+OTRk/HAIR6+ZDjXs6WCPiTHiw/jLmCyy9tYo1dP0iOGPgGkO1UDSzfhM7w3nntB+zO9CddHZKJ74IvG/WFhYl/GoYKgkJVy9xGPKnEwMk5pWf63cGePg4ODg0I5ga39QgKpICQqVbzKI6tD98EJ+5ViuU11FpTodo+4puSkMSUArU3djrzNg2GonRuMyp2roJ0yNfpdGDN3ynpxOatRvGkrM4SDfNwRHTE0EUssJUeCHc4Q8cBiJy591ea6aRrqzaSVtaGWYJqaN/qxz2pu4+Zu6lLC5QqgcFFBZfDI6H/FqeItPQ1LMq+vxYEgsOS29aZnJ/lq5dXBwcHBoT1CdHFzg23s0gnhkiyhJ7o+S2s8wsoQma/YFrcLbUzMVdLhJDKfY6jCS+kntdmOMu3pAem2P3N01kL9c4iPP8SNhK2FQRLzgMPSc8TLEvcfJdYeZOzKuQHievXZwcHBwOFhw0EySVTCn8uaejF6Hkes+CX9gHQJu4EaaNqkUDkQFOd0i37u8KzkR1LmGnJAMsveqGOfBDdWqS05Bfs1r4HedgarXqynivJg8N6VxnMTBwcHhoMdB1YOi8y5ECcbRGPxwAPpdHA5lEJMqRd7fvWE4avRcbHZrrJ/0mqGMu2+NdTeNcOvpaHFvr4wNb5phmlzo6BCvI7UTiAXJB4+jyAs5eQQKx78YQcfpcrMLudgXYqJ9LFpGDg4ODg4OB90Qj8clq8mwHMfkTT80CrQFsop3j6DujaKe2lik19Tq4+5bk0Wr+xlTT2uLe+PM3qBVOE0mlZeZawKEJDapPb+TEwe9KBz5GJTOfCOSzrMQJZ2abf02kZkG4+Dg4ODgoDiohnjYe+KjH+GWH2D09s8jVymbhas6xtOA6Wkx8PRPYPRsHVSsE8iLkox5Apv4mUyzhsml0EJOAqASiLzJB8W6llsMf9UFWHDo85B0H4soKIlI6ZbxpzL2DLWxBIdnDg4ODg4HJw6yHhQqvkh+Y0QRKYhciw6kAp1INlJ7+0dFPonhPV2yK96U3LS70XRm0jyVaeV/UsMwY11plPhmWCfO51DpWImu416IBUe9Gug4RXhIh+6/khdP9WXQ+ivirP+aMwcHBweHgxMHFUFRlSdv7HGtpuc57iKWTujUA6UhRs95i+dZkzq3brPXrdy0rbFpnY5p5X8yY/3khKzUhLhFnUg616DnxLcgf8gLhZysEuISI+EHDJWSkODxX/4YgIODg4ODQwpRJwcPjAoUBRmlHw3kPw2lwJupqSvb9Dx7z5mpDeUVJD78JIegtBy9j3wVCovORzU8BDWpbl4uFNkKeRGiEvk18WBIioODg4ODQxYHFUGxWpRbsQdidI+OwGzxTmP27Bh/3jaGadqdaeUva6brLmuy4e/OWD+Rj1xQQn7hciTFVQj9HPIFVjapbgm/TpzXFT4VoSycF+Tg4ODg4NCMg4ugZHQhtw5rOTm2+W3ecBo1dlt4/eZdi+tZNdNBK39ZY5Fe+2m6KQaetzR0l5rdQtxwSkmllGC0KMSvk/ubdCDI5dW/LjVWd5yf4qOEgvwyYM52cUTFwcHBwaEBUUEHE6gMmWWqRfO2r1Z6zPQAjDP12w3T8DKvDaG7wKaymMoQPOzOUDgkbGHgIUJRLLhOijInAeHcEyEjfvrdH6EpDg4ODg4OrXCQERQiL8oxlypUUb7UqKliTQ/pj4G1yxrzM9F+vhmiTix2AyOrht/JjKF/JCM5REm32AkJIWOpdzM5ODg4ODjsHgcfQRFFmevsEYUbI+aKHtGZOiGWOpS6lC/16bWOAPF+C6NuJtg3ehxmzrSKZzLTyr81rdzPvFF5CUFJSAK7VolAC6CQE7uWO11WXIclL832Dg4ODg4HNaiCDyLIm70nirPYKUezf8l4vck3f2sMaG/nprQyDZfERP/N4OBGjCA17GugOp95jE+FnLVIO8046Iqa1sbsA0M3uzdmvkoe+e5V4jUvdmKhdi2Q+pn0voODg4PDQYmDiKBQwcailfOiNBcKOejgRiiqeBtv/+kJz33OlRBjrVoY3osDfpl3vIlFQ/N+HMSoJSH8HCeISlj5HIZzqxCteCKqy87HUPF4DCc9qPklVL08Ql9c6WxST/2wdNi5oB8ADhI9RnKvYeR+mhgz4VfilvMwl6CWl7iFG3BHV7pTMqKG7u25DTs1EvdkhiubmslNK2M7RHJdixB0HCNxMCMie0LjNulsGAcHBwcHh4k4iLa6ZzYj+RcFWb4VIzd/CPlkg1xXRU02K0pxm34Yhh0HVr82K1RaU3lzyawidSe6XriNXNCzHIPYR1jNI1l6AvKHXwBv6dnioijsYQsw/AAGHr4dqPYhqmxDIRiFH45KusaQJBECISK6hJcBS3B2JMT2uyiHanQBKWGJgkiyKcRLmIJmg0mRg+0EMTD+STymi+nWlKSQR23Bk9Bz/AckgV0SkzAliZlDTQ4ODg4ODtPBwUdQuC44vA8Dd34a+cEbhKRUze0srDYnxkkno2DFnre0h2GC3k2EGHjIhVxYm0eY60VhxVnwlj8H/oITUOZeIH5eyEVVyEwA34vh1TYhLN+PcGQt4oEHEQ8+jFptUPhNRZISK9HIxSF89sR4kfjhZnPiL43RplOvLYsR6Gn9WhzZfKUYxxmy53sJDlkNxwuw8KRXIlj6UgkzJ3Y0pG0TI2B/ioODg4ODQzMOKoIScy9TyW2Czehf+w3kNv4MRW8MfqtehN0RFAFv2aENIgwTFIsBalVRybkiqqEQkZ416Dr0fHiLz4EXLhOWwWGgqqSFKjuvv7H8+ZI2D1WJlqYsbmsMUQLfhbHBdRjpX4fc0E4Ekl5gEEEyLNpd3MVyLUWYRDGiWihHDllJqGLn8TwWMhMIkeEW8/xrymprgrInVWJ8gJxbU+0+E72nvknyukZsKHfOteHOJ2bXEwcHBwcHh93hICMooShIDn3sQnn7b5HceyEKUb/O+chCRdKCoHCIIistnmYJShCYXoJRLEDccRoWHPpY+L2nwQtWitsuib8kt4V0eBXjFwVV6Ox1oM+cXDFUDs3osA3T4FXFiu7L4kEIiSfHaETMqLgVohOKnZwxQP0AYj3tQkxiIT21hzB4/2+AylaUMvkkJ6MzRkPXivrtus04TDZEw/QTlG2U5OEf+XIUVr9EIlkptpHkinccQXFwcHBwmD4OIoJCsBchEiUpCn7sFozc+s/Ih5tF8ZIYCEQSvojDCCQdPtELOeOFKOiIvRL8SzVtJCc1PyehCgHxF6LQvQIdq86Gt+DR8Pyj5H6XuOaQTCJ0gnuwcJiGG5YxJXmJJafhcSqpTqRlUhi4GKaE9yRK7RkJxFEabQP14jN3OOmX32v2JKBACAqwCf0Pfg0YugKdAzvFXkIVdqJb1TGvEk+a+6bAbbgpmKTxDhS5SNKXDnPxblXIWeGUdyHf+xSJpyR2oYZPgkKK4uDg4ODgMB0cPASFuRQTc1apDvVsQPm+TyHqu0kUZ0Wd6JCIOKKi5TAJeQvnkhBU6lydEopdGPlCOIRs+AWMRYEo48NQWHQKcoseDb9wDOLcEvgBd1HNzrswdMMkhAc56ooWwrhpRQD2FMxdJKSAsSglCDmcdBvKG76D/IOXIF8UkibRxMp6TL4mhfbENNA8POQLK8nV+C0jIUWSFS/XgXLxkeg65a1A/uQ0f6RLjIqkyBEUBwcHB4fp4SAkKHLg0t9kG6L+H2DkgR+hkPQZXWxX3qhb/ghlUA9y9Lj0V9R/sYiyvxC13OHwO05C96rHISisRlLNAYXF4oe9IuJevOmE1j3CvitwzmfhYJbJBAmKL2kfQxLfgtq9n4c3cj+8cETuhYglkbbzqCV2R1Aol0TiiIWEyL2yvwQdx7wd3rJz5eai1JWDg4ODg8Oe4+AiKFTdoki5fNdLhoDaHRi693+Qr97X6LsQIsJBmHKcQxTmgagDPR3LUVywHN7CpUJCloneXwq/sBxJsEj8LZcAS+woUL+NbT4YYbNomzS8Iutm3wkKw7MlKqnR3XJ5GXiDSMZuQeWhH6Pafz0KwYD2EvmcEjOOeWTSsxuCwl4RkpwgjBDGBWDZY9HBpcUQOfnsPXJwcHBwcNg7HFwExWP/grlIYg7zDKOy848Iag/qpFGFKNwkKCLoWADkekSzyxE98IIuUboLRUlzX49ifZ6HnxTgay8L/cqPJSeq3JsJSSsCku3CmAGCwmhZpDxK/FEQGu4kYQfxiBCSu1Hd/FOUt1+BUtwHP4olqZl0jiMl2XNJ6QSCIggCJGGCWu4QdBzzGgSLniVhdMiN5rw7ODg4ODhMHwcPQRGQnli1GYtSpvE9Lu8N2fmhYK9DXbnGibrhLq1q45NAUFwMiWEFwnkCsUrdB2YpL2FsmglHKwJC97YIZoigkJLoMUDk1ySlTFWgE3E9Lmceuxfh1l+juvVS5OIdYmdXN9Gb/MgJs8Q8jO9daZAUqTgm2/kcxqISuo98DrylLxdutAA+yRy4OZuDg4ODg8Pe4aAiKCQWFvx4nU454bBMKgLu2Do90D2NuM8qcO19MHSAZ2ZS6AyQjj2F9qBIuuQ/9pgento/3ueS5QEkI3dh9OGvoRCyB2kMqFaRRBEi5oNyYQ7klJNh1ZslLrRjPiVrI4UODOUfgZUnv078HY9cJKTN53JqR1AcHBwcHPYeBxlBaWS1Va4n2+djz8CADUUxdGAOCMo4NFIyHpLOhKTkDkTDN6J/0+9RiNehI64ijmNd2iwSETc0Jhfc8Tbgch2x4GqoauCjUjwaHYe9FvmeJ+qS6gKJTlIQF4UZkqeDg4ODw8GIg4ygNNAq2zOnUBm2DX+uCcpukLBXaYccbkN5xx8w1nc3cuUtyMejek+/Yix5YS8Tp73muaxYxFQJPAwHC1Bc+jz0HvpisVuFGiKhJaE4N9vbO4Li4ODg4LC3OGgJyuxiHhEUHfWStHo1+e1HLbwdGLgO0bZbkIR9iMN+FIIqAi8SviK0o2q2mRvJ9cBbcT56Vr4CiX+4BpN4VfhJh1QqybMQG0dQHBwcHBz2Fo6gzArmEUHRdHI9EndPqYgZRo4Lrbm9/ui9GN52HXKVdfCqG5BEfSjwmz8IEC4+A51Hvgkxd8tNurWHxfP54cUSmYqQk0Ry7giKg4ODg8PewREUBwUrgdnkLRJiwU3paTMiN4YAISZJ2I8o2iWkZQtqcYTOZacL9zpRfHQjjs2EWPateB73428158XBwcHBwWH6cATFYTew1YODOFUkyajUGn7PqCjnNPwis6EjPomJG9ZxcHBwcJgBOILisAdIhJCYDx1K1RHjyzU7TBqkxBEUBwcHB4eZgCMoDnuGtLaYWkN2opcKR04cHBwcHGYK7T6D06FtwCEefrjHXHk+J8XKtWUsDg4ODg4OMwhHUBwcHBwcHBzaDm6Ix8HBwcHBwaHt4HpQHBwcHBwcHNoOjqA4ODg4ODg4tB0cQXFwcHBwcHBoOziC4uDg4ODg4NB2cATFwcHBwcHBoe3gCIqDg4ODg4ND28ERFAcHBwcHB4e2gyMoDg4ODg4ODm0HR1AcHBwcHBwc2g6OoDg4ODg4ODi0HRxBcXBwcHBwcGg7OILi4ODg4ODg0HZwBMXBwcHBwcGh7eAIioODg4ODg0PbwREUBwcHBwcHh7aDIygODg4ODg4ObQbg/wMNrntqtEFdgwAAAABJRU5ErkJggg==;imageBackground=none;imageBorder=light-dark(#000000,#FF910F);strokeWidth=4;" vertex="1" parent="1">
          <mxGeometry x="979" y="176.5" width="105.45" height="47" as="geometry" />
        </mxCell>
        <mxCell id="mzmcX6kReQTpVKNeZ8k2-36" value="" style="image;aspect=fixed;html=1;points=[];align=center;fontSize=12;image=img/lib/azure2/general/Dashboard2.svg;imageBorder=light-dark(#000000,#FF9325);strokeWidth=1;" vertex="1" parent="1">
          <mxGeometry x="1059.09" y="163.20000000000002" width="37.96" height="26.8" as="geometry" />
        </mxCell>
        <mxCell id="yabJzohfQcr6jpo9jlKl-66" value="&lt;font style=&quot;&quot;&gt;BI !&lt;/font&gt;" style="text;html=1;whiteSpace=wrap;strokeColor=none;fillColor=none;align=center;verticalAlign=middle;rounded=0;rotation=-15;fontColor=light-dark(#000000,#FFFFFF);labelBackgroundColor=default;" vertex="1" parent="1">
          <mxGeometry x="1084.4499999999998" y="190" width="40.5" height="30" as="geometry" />
        </mxCell>
        <mxCell id="yabJzohfQcr6jpo9jlKl-14" value="Connector" style="ellipse;whiteSpace=wrap;html=1;strokeColor=light-dark(#000000,#474747);" vertex="1" parent="1">
          <mxGeometry x="889" y="195" width="90" height="40" as="geometry" />
        </mxCell>
        <mxCell id="mzmcX6kReQTpVKNeZ8k2-44" value="" style="rounded=1;whiteSpace=wrap;html=1;fillColor=#ffe6cc;strokeColor=#d79b00;strokeWidth=7;" vertex="1" parent="1">
          <mxGeometry x="520" y="60" width="329" height="330" as="geometry" />
        </mxCell>
        <mxCell id="yabJzohfQcr6jpo9jlKl-7" value="&lt;font style=&quot;color: rgb(65, 133, 0);&quot;&gt;&lt;b&gt;Azure&lt;sup&gt;+2&lt;/sup&gt;&lt;/b&gt;&lt;/font&gt;&lt;div&gt;&lt;br&gt;&lt;/div&gt;" style="shape=cube;whiteSpace=wrap;html=1;boundedLbl=1;backgroundOutline=1;darkOpacity=0.05;darkOpacity2=0.1;fillColor=#dae8fc;strokeColor=#6c8ebf;" vertex="1" parent="1">
          <mxGeometry x="639" y="160" width="130" height="90" as="geometry" />
        </mxCell>
        <mxCell id="yabJzohfQcr6jpo9jlKl-8" value="&lt;font style=&quot;color: rgb(65, 133, 0);&quot;&gt;&lt;b&gt;Performance&lt;sup&gt;+1&lt;/sup&gt;&lt;/b&gt;&lt;/font&gt;" style="rounded=1;whiteSpace=wrap;html=1;fillColor=#dae8fc;strokeColor=#6c8ebf;" vertex="1" parent="1">
          <mxGeometry x="644" y="80" width="120" height="40" as="geometry" />
        </mxCell>
        <mxCell id="yabJzohfQcr6jpo9jlKl-9" value="" style="shape=cylinder3;whiteSpace=wrap;html=1;boundedLbl=1;backgroundOutline=1;size=4.1319732666015625;" vertex="1" parent="1">
          <mxGeometry x="756.5" y="185" width="40" height="60" as="geometry" />
        </mxCell>
        <mxCell id="yabJzohfQcr6jpo9jlKl-13" style="edgeStyle=orthogonalEdgeStyle;rounded=0;orthogonalLoop=1;jettySize=auto;html=1;entryX=0.25;entryY=1;entryDx=0;entryDy=0;fillColor=#f5f5f5;strokeColor=#666666;strokeWidth=2;" edge="1" parent="1" source="yabJzohfQcr6jpo9jlKl-7" target="yabJzohfQcr6jpo9jlKl-8">
          <mxGeometry relative="1" as="geometry">
            <Array as="points">
              <mxPoint x="674" y="150" />
              <mxPoint x="674" y="150" />
            </Array>
          </mxGeometry>
        </mxCell>
        <mxCell id="yabJzohfQcr6jpo9jlKl-29" value="(or Milviews)&lt;div&gt;Vector DB for embeddings&lt;/div&gt;" style="text;html=1;whiteSpace=wrap;strokeColor=none;fillColor=none;align=center;verticalAlign=middle;rounded=0;" vertex="1" parent="1">
          <mxGeometry x="620" y="305" width="76" height="30" as="geometry" />
        </mxCell>
        <mxCell id="yabJzohfQcr6jpo9jlKl-31" style="edgeStyle=orthogonalEdgeStyle;rounded=0;orthogonalLoop=1;jettySize=auto;html=1;exitX=0.75;exitY=1;exitDx=0;exitDy=0;entryX=0.738;entryY=0.022;entryDx=0;entryDy=0;entryPerimeter=0;fillColor=#f5f5f5;strokeColor=#666666;strokeWidth=2;" edge="1" parent="1" source="yabJzohfQcr6jpo9jlKl-8" target="yabJzohfQcr6jpo9jlKl-7">
          <mxGeometry relative="1" as="geometry" />
        </mxCell>
        <mxCell id="mzmcX6kReQTpVKNeZ8k2-3" value="monitor" style="edgeLabel;html=1;align=center;verticalAlign=middle;resizable=0;points=[];fontSize=12;labelBackgroundColor=none;" connectable="0" vertex="1" parent="yabJzohfQcr6jpo9jlKl-31">
          <mxGeometry x="-0.0265" y="3" relative="1" as="geometry">
            <mxPoint x="19" y="-2" as="offset" />
          </mxGeometry>
        </mxCell>
        <mxCell id="mzmcX6kReQTpVKNeZ8k2-1" value="" style="image;aspect=fixed;html=1;points=[];align=center;fontSize=12;image=img/lib/azure2/databases/Azure_Cosmos_DB.svg;" vertex="1" parent="1">
          <mxGeometry x="677.5" y="233" width="64" height="64" as="geometry" />
        </mxCell>
        <mxCell id="mzmcX6kReQTpVKNeZ8k2-2" value="" style="image;aspect=fixed;html=1;points=[];align=center;fontSize=12;image=img/lib/azure2/databases/Azure_Database_PostgreSQL_Server.svg;" vertex="1" parent="1">
          <mxGeometry x="752.5" y="183" width="48" height="64" as="geometry" />
        </mxCell>
        <mxCell id="mzmcX6kReQTpVKNeZ8k2-20" value="Star&amp;nbsp;&lt;br&gt;Schema" style="text;strokeColor=none;fillColor=none;align=center;verticalAlign=middle;rounded=0;labelBackgroundColor=none;labelBorderColor=none;textShadow=0;spacingTop=0;spacing=2;whiteSpace=wrap;html=1;" vertex="1" parent="1">
          <mxGeometry x="773" y="240" width="76" height="30" as="geometry" />
        </mxCell>
        <mxCell id="yabJzohfQcr6jpo9jlKl-71" style="edgeStyle=orthogonalEdgeStyle;rounded=0;orthogonalLoop=1;jettySize=auto;html=1;entryX=0;entryY=0.5;entryDx=0;entryDy=0;exitX=0.424;exitY=1.005;exitDx=0;exitDy=0;exitPerimeter=0;fillColor=#1ba1e2;strokeColor=#006EAF;strokeWidth=4;" edge="1" parent="1" source="mzmcX6kReQTpVKNeZ8k2-1" target="mzmcX6kReQTpVKNeZ8k2-26">
          <mxGeometry relative="1" as="geometry">
            <mxPoint x="690.172" y="255.832" as="sourcePoint" />
          </mxGeometry>
        </mxCell>
        <mxCell id="mzmcX6kReQTpVKNeZ8k2-45" value="&lt;font style=&quot;font-size: 16px; color: light-dark(rgb(0, 0, 0), rgb(255, 255, 255));&quot;&gt;&lt;b&gt;Production&lt;/b&gt;&lt;/font&gt;" style="rounded=1;whiteSpace=wrap;html=1;fillColor=#d5e8d4;strokeColor=#82b366;strokeWidth=4;" vertex="1" parent="1">
          <mxGeometry x="967.74" y="370" width="118.53" height="50" as="geometry" />
        </mxCell>
        <mxCell id="mzmcX6kReQTpVKNeZ8k2-46" value="&lt;font style=&quot;font-size: 16px; color: light-dark(rgb(0, 0, 0), rgb(255, 255, 255));&quot;&gt;&lt;b&gt;Staging&lt;/b&gt;&lt;/font&gt;" style="rounded=1;whiteSpace=wrap;html=1;fillColor=#ffe6cc;strokeColor=#d79b00;strokeWidth=4;" vertex="1" parent="1">
          <mxGeometry x="625.24" y="370" width="118.53" height="50" as="geometry" />
        </mxCell>
        <mxCell id="yabJzohfQcr6jpo9jlKl-28" value="Persist" style="text;html=1;whiteSpace=wrap;strokeColor=none;fillColor=none;align=center;verticalAlign=middle;rounded=0;labelBackgroundColor=none;" vertex="1" parent="1">
          <mxGeometry x="449" y="255" width="60" height="30" as="geometry" />
        </mxCell>
        <mxCell id="yabJzohfQcr6jpo9jlKl-74" value="&lt;font style=&quot;color: rgb(255, 51, 51);&quot;&gt;(3&lt;/font&gt;&lt;span style=&quot;color: light-dark(rgb(255, 51, 51), rgb(255, 119, 119)); background-color: transparent;&quot;&gt;)&lt;/span&gt;" style="text;html=1;whiteSpace=wrap;strokeColor=none;fillColor=none;align=center;verticalAlign=middle;rounded=0;fontStyle=1" vertex="1" parent="1">
          <mxGeometry x="418.99" y="255" width="61" height="30" as="geometry" />
        </mxCell>
        <mxCell id="yabJzohfQcr6jpo9jlKl-63" style="edgeStyle=orthogonalEdgeStyle;rounded=0;orthogonalLoop=1;jettySize=auto;html=1;fillColor=#1ba1e2;strokeColor=#006EAF;strokeWidth=4;" edge="1" parent="1" source="mzmcX6kReQTpVKNeZ8k2-2" target="yabJzohfQcr6jpo9jlKl-14">
          <mxGeometry relative="1" as="geometry">
            <mxPoint x="860.5" y="214.00000000000006" as="sourcePoint" />
            <mxPoint x="996.219" y="212.04999999999995" as="targetPoint" />
            <Array as="points" />
          </mxGeometry>
        </mxCell>
        <mxCell id="mzmcX6kReQTpVKNeZ8k2-21" value="&lt;font style=&quot;font-size: 10px;&quot;&gt;SQL Queries&lt;/font&gt;" style="text;html=1;whiteSpace=wrap;strokeColor=none;fillColor=none;align=center;verticalAlign=middle;rounded=0;" vertex="1" parent="1">
          <mxGeometry x="860" y="165" width="54" height="30" as="geometry" />
        </mxCell>
        <mxCell id="yabJzohfQcr6jpo9jlKl-2" value="Scrapper" style="ellipse;whiteSpace=wrap;html=1;fillColor=#e1d5e7;strokeColor=#9673a6;" vertex="1" parent="1">
          <mxGeometry x="100" y="180" width="99" height="50" as="geometry" />
        </mxCell>
        <mxCell id="mzmcX6kReQTpVKNeZ8k2-49" style="edgeStyle=none;curved=1;rounded=0;orthogonalLoop=1;jettySize=auto;html=1;exitX=0;exitY=0;exitDx=0;exitDy=0;entryX=0.98;entryY=0.262;entryDx=0;entryDy=0;entryPerimeter=0;fontSize=12;startSize=8;endSize=8;fillColor=#f5f5f5;strokeColor=#666666;strokeWidth=2;" edge="1" parent="1" source="yabJzohfQcr6jpo9jlKl-14" target="mzmcX6kReQTpVKNeZ8k2-2">
          <mxGeometry relative="1" as="geometry" />
        </mxCell>
        <mxCell id="mzmcX6kReQTpVKNeZ8k2-50" style="edgeStyle=none;curved=0;rounded=0;orthogonalLoop=1;jettySize=auto;html=1;fontSize=12;startSize=8;endSize=8;exitX=0.078;exitY=0.221;exitDx=0;exitDy=0;exitPerimeter=0;entryX=0.671;entryY=1.022;entryDx=0;entryDy=0;entryPerimeter=0;fillColor=#f5f5f5;strokeColor=#666666;strokeWidth=2;" edge="1" parent="1" source="mzmcX6kReQTpVKNeZ8k2-26" target="mzmcX6kReQTpVKNeZ8k2-1">
          <mxGeometry relative="1" as="geometry">
            <mxPoint x="830" y="310" as="sourcePoint" />
            <Array as="points">
              <mxPoint x="720" y="317" />
            </Array>
          </mxGeometry>
        </mxCell>
        <mxCell id="mzmcX6kReQTpVKNeZ8k2-52" value="" style="image;aspect=fixed;html=1;points=[];align=center;fontSize=12;image=img/lib/azure2/app_services/Search_Services.svg;" vertex="1" parent="1">
          <mxGeometry x="618" y="71.65" width="39.25" height="28.35" as="geometry" />
        </mxCell>
        <mxCell id="mzmcX6kReQTpVKNeZ8k2-62" value="" style="rounded=1;whiteSpace=wrap;html=1;fillColor=#f8cecc;strokeColor=#b85450;strokeWidth=7;" vertex="1" parent="1">
          <mxGeometry x="199" y="300" width="261" height="150" as="geometry" />
        </mxCell>
        <mxCell id="mzmcX6kReQTpVKNeZ8k2-64" value="" style="rounded=0;whiteSpace=wrap;html=1;strokeColor=none;fillColor=#f8cecc;strokeWidth=0;" vertex="1" parent="1">
          <mxGeometry x="175.56" y="290" width="180.44" height="156" as="geometry" />
        </mxCell>
        <mxCell id="yabJzohfQcr6jpo9jlKl-72" value="Tranformer&lt;div&gt;Wrangler&lt;/div&gt;" style="ellipse;whiteSpace=wrap;html=1;fillColor=#e1d5e7;strokeColor=#9673a6;" vertex="1" parent="1">
          <mxGeometry x="289" y="175" width="100" height="50" as="geometry" />
        </mxCell>
        <mxCell id="yabJzohfQcr6jpo9jlKl-81" style="edgeStyle=orthogonalEdgeStyle;rounded=0;orthogonalLoop=1;jettySize=auto;html=1;exitX=0.5;exitY=1;exitDx=0;exitDy=0;fillColor=#f5f5f5;strokeColor=#666666;strokeWidth=2;entryX=0.99;entryY=0.179;entryDx=0;entryDy=0;entryPerimeter=0;" edge="1" parent="1" source="yabJzohfQcr6jpo9jlKl-72" target="mzmcX6kReQTpVKNeZ8k2-54">
          <mxGeometry relative="1" as="geometry">
            <mxPoint x="259" y="283.76" as="targetPoint" />
            <Array as="points">
              <mxPoint x="339" y="283" />
              <mxPoint x="330" y="283" />
            </Array>
          </mxGeometry>
        </mxCell>
        <mxCell id="yabJzohfQcr6jpo9jlKl-22" value="&lt;div&gt;- Filtering&lt;/div&gt;&lt;div&gt;- Nulls/missing&lt;/div&gt;&lt;div&gt;- Field Creation/Merge/Combine&lt;/div&gt;&lt;div&gt;- Duplicates&lt;/div&gt;&lt;div&gt;- Normalizing&lt;/div&gt;&lt;div&gt;- Make Keywords common/unified&lt;/div&gt;&lt;div&gt;- add keywords, genres ?&amp;nbsp;&lt;/div&gt;&lt;div&gt;&lt;b&gt;&lt;font style=&quot;color: rgb(65, 133, 0);&quot;&gt;- add weights to kw with AI &lt;sup&gt;+1&lt;/sup&gt;&lt;/font&gt;&lt;/b&gt;&lt;/div&gt;" style="text;html=1;whiteSpace=wrap;strokeColor=none;fillColor=none;align=left;verticalAlign=middle;rounded=0;fontSize=11;" vertex="1" parent="1">
          <mxGeometry x="277.08" y="310" width="181.72" height="130" as="geometry" />
        </mxCell>
        <mxCell id="mzmcX6kReQTpVKNeZ8k2-54" value="" style="shape=mxgraph.networks2.icon;aspect=fixed;fillColor=#EDEDED;strokeColor=#000000;gradientColor=#5B6163;network2IconShadow=1;network2bgFillColor=none;labelPosition=center;verticalLabelPosition=bottom;align=center;verticalAlign=top;network2Icon=mxgraph.networks2.data_storage;network2IconW=0.8252;network2IconH=0.9989;" vertex="1" parent="1">
          <mxGeometry x="192.75" y="270" width="61.96" height="75" as="geometry" />
        </mxCell>
        <mxCell id="mzmcX6kReQTpVKNeZ8k2-56" value="" style="shape=image;verticalLabelPosition=bottom;labelBackgroundColor=default;verticalAlign=top;aspect=fixed;imageAspect=0;image=data:image/png,iVBORw0KGgoAAAANSUhEUgAAAPoAAABECAYAAACoLCg4AAAABGdBTUEAALGPC/xhBQAAACBjSFJNAAB6JgAAgIQAAPoAAACA6AAAdTAAAOpgAAA6mAAAF3CculE8AAAABmJLR0QA/wD/AP+gvaeTAAAAB3RJTUUH6AcNCwozP+NR/wAAHC9JREFUeNrtfXt8FOW99/f3zO7mwiUB5CK37IYcUEOTbFJAkk2MbQU5VUGPoPZUq6/iXevH1tZXe7Ht21pPfU+P2tZ6QW1rVUAUrEqlVlOyAUWTDfCmXppkF4xyoEouQC67M8/v/WM3YXdmL7O7cCR85vsXbGaemfnN7/u7Pc/zG8CCBQsWkmHCMys9E59YPsuShAULJzZEVmfb1LOkRmssMVqwcGKDMj1x7AsXTlFUuVN8hsma3XFa3zXr2y1xWrBwEnn0sS9cOMWm8hYCTQNBsanBP1iitGDhJCL6KRsuOtWm8l8BlI/EBEGcOWHN8psscVqwcBKE7uOeu3CuIngLgKKRAboZNASwIEl5WHbw6o1bLLFasDBKiT5p3XkzNNjeAjAzJiToYWBwJD7Q2C7qu6970WuJ1oKFURa6T3x62XgNtlf0JAcAjjYVEgqp8o3Jj66osERrwcJoIjqDNEfOsyM5eaqgQINdU9E0/ZnzT7HEa8HCKCF64fMrvknAvyaM/YmNP6qcP9grdoKznKe3YMHC8Sf6hOcvKGPme1M4/Ph/CGH6hMdWbLJEbMHCiUz0dSsVluJ3BMpNOkI8jz78pyE+r/DJFSssMVuwcIISvYCCVwGoSDkCUTJ3D9HPz+CRa/MtUVuwcIIRffK6lWOJ6cfH5Aoa8iaKA9bKOQsWTjSihzj0XQCnmhuCUx8yhBWTn1w5zRK3BQsnCNEnPr1sPAi3mB6BTKy5kSzUYPAZS9wWLJwgRJc5OasBFJgfgs3ZgxDqCx4732WJ3IKFE4DoxFid1ghkchWtBCkQ/2GJ3IKFz5noE9cvr2ZgXnpDsPlDQzjPErkFC58z0aWkS4/r1VTkTnzywtWW2C1Y+DxDd8L5x/2KQ3yHJXYLFv5nMZJgT3juwvkseHfaI/QDoi+N8F2AD05x5GLV+qAlfgvHEiVl9TM1JVRJoP5wVil7SQgZE7VqpJDg8TG/MY0hsAPgHiHooGT5qd+37SMAMt17qK+vt+3p1iqFwhppPBh00IAI2SRRkDWbUPTHKxqNFWB7+H9ar+2I2P/BB02HjrVsbFGUPyszU8HpHS9BhX1DX+8BnrBU08KxhKaojwF07ohGkgDr1VOwoap0dGMWQXLYG7ncnl4A24l5q6aIp/Y0N+4zcw97+tTrIPAryQAEQVEBkApAhP9tAEdZEwXBfMDlrgkAeJ0FPR5o9r59TEN3FnxmZjynTM653FJLC8cSVVVVdmbsA7ADQF+Kw3sBvA9gNxidAA7GOaYAwLlM9DMhOeB0e/44e4Gn2MStFAJ4N3KNTANtJ0DXkMRbTrdnw+wveCYcu9B93Yr306+4A9QPUF+aXt2OQwdv2DTeUk8LxwUrVyrOjn3nEOPZCPGiscbv816rD8tnLFw4yRHKLQVpS8F0EYDT4jjfQwDd7m9tfNzMbbjcnnKAN4aJGz0Mvjmg5a/Zv2vLkXnzasYNjlFmCpYLCLiUgWVxhto5JAaqP2lu7s+O6OtWOgoROhITypsdYIBBGdguLSe3pPe6tR2WVlo4Xih2e37OwHdjScY3BHxNv00V6brctRcB/DMA/xKHNb/xt3hvhom5ZVel524w/k/sPVB9wNf4t3jHOytrlxLzOgDjdfnF/f6WxowL2QIAJkl1TiYk1wUF6V1YGbzYUkULxxPMZPjWABGZKbBJv6/x+X4t3w3g93E8+43Fbs+9pu4B/KlB9wVriY4PtDS+xkzfiPMwV5eULMvJiuhSwZwsxJnZaRKllipaOK4gaVROSaYr6ft3bTni93mvJMIDcbT+u86K2uUZ3ZYmkt5DoLVxI4Bdup8nYExfSVZEZ4kpGdM802+9EJVYmmjhuPI8zpQQEac7ZcadLd7bGfRqnLEenlq2ZEzaaasitZT3zvSG/jdVETOzIjpR5kTP1KGT5ImWKlo4zkw3aKdk1jIYSapSvRbAYd3vp+aLIzekTTpp4h6I98f5rScrooM58/I9UaYGwuo6Y+G4Qkqj9zaZoxvQtXP7xwx6yKj/4jqkWajShEh5D9K4g7RnzGC3L1NZhAtwIt7KArNGM2MLkZPVW1y5Uin+cN+czp3eD/V/clbUOyG0ecxa39igY3dbW8PhZEPNLF88wyGU0yUoBJvyQeCdhv8+VspWsmjReBm0zWXJE8km+lWBT/a+4+3M9tmdHZ8sCLQ0vaU33HMqPW5mzGXCYaGI1o53tn6U7TNMLVsyZow4fIaEMp1Z9gnBnX7ftj3HkJPCWbV4LqRtKrF0QIj9/Wpex/5dW45k5dDjtCgmZpnxeNAeAcSdsWrPJc6K6vJA67bWY+nRCVwdfRlm/FdbW1swO6JnhcwMBGcg8DkL6mZJlReBeAna932VBfYB+CIQXjDRLfMuZ+AWQK0AAwSBfrt6yFXhebCo0HZPQ0ND9NokclbWrCKmWwBUM0AEBlRVutyev2qg2/b6Gv+eybPNctdMtxFdBcZKLYgvABAQBJaAIgGX2/MRMW3QFPyH2RVXxVWe2Sxp4fCzAzR9atmSsft3bTkyc/HiPNugcisBN0iOfC6LAalK6XJ7XglJ7Yaunds/TstAlSzLkWP7LmaiK4H+WobIITCICADB5fb4Qfy8kGJTodK/o7m5OQQAc8qqp7Ci/CgYVO/uatt+MJmxKurYd4ECXMGML0FiPBB+C2BGvtI/5HJ7Goj5wc7WplePmXJm6NEBwO/btsfl9uyEvpeioHoA5omuJc/R51TUVUtIT9RPr9kOj/t5Niy1hfMWqVLGvpkyIjsRQiYV3AOJuxiokqqcont9HQDgctfVHZS8BuCSOLc3DsDde3rVMgArAMjiiuoFIPFbZlQmSGfOUcDbnVWeJeksQSwtLXUMOCb8mIFbwcgDcASgtwGWCM/HDtdCZjHxbULiWldF7W3+1sbHUjz7F1liMsDRz8775xUMukTNORikxxD1PTzds5xvF8qCorK66j27tvrNPIez0nOuxn0PRxZ67APh9yz5sCA6jYGvALADcIHpDkl8x0GZN+hye/5JgJDANIAVAHcnGr+ovOZsat/3EAGlkcd5n8HvCtA0Di9UEQByACxloqUut+e1UFD7WlLDEV/JWB+pSsrco0fE3ghQha7od0Y6I4QUJeE9ON21Z0nIZyIyYABPK4fGrW5v3zyUNdGJaH+mRbXMY3caNHWUJqQkmQfglDjXnuJyex4A5M0AeojxIhN/BhKzwXxWRFmGcX5xhedeEA8y6C4ANgI+luAPAMoloBJAdGvr8ZD448zFi7/QtX37QKr7nLFw4aT+kP0FAHURhXiI2f6DQGvDcAFFuMqrv0JC/JKBYcXIB/GjzgrP9ECr90cGldLodBDXA8iLc8khV/u+e0B0V0Qp+gF8CmBynOOnCYXXAliUyio73TXXE+PXAAkQbelX8y6KDqGLKutOFyw3IXYhSS6AWVED/zURKYvdtTcw+MGI7n1ILL/e2brtnZFIIrwx5TsA3RylXUvtDmV7ibvW0+5r/KdpDZOSWVdDIklZEZ2Y3jfMNDFmpUU64l8VV9bsYUlBCKhg5BBjIhPmAzws1wEQLvG3eP90THIjAGCJTzI3cBmG7oJN5cEdrVu3+X3es6HxGQBe0wl4HoCLmfl/TRQD0zpbvRf5fU2r/S2NSwVp86Gbi2TCdxj0A4BeZYEzO33emQFf05cDPm8Ns+1UAh7R2bA5jkHlMjN5uD3k+BtAdRFt+IXf13RrFMkBQPp3btsiC2xVAP6ii25+GG9O1t/a+Jijn6cy+AbA8I5yAXyPgbUSstpfcup4v89bVFRgG8+gy4zH8wJnZe2SpCSv8iwi0K8iejEgVO1yfZ68p2Xreyy0CwDoPcwaEH4D5jvyg7YVcUle4bmRwb8ZNrJBe7A6muQA0L6rocvva7oVxJcCiA5x52rgZ5HOp77jhOlE2REd8fV2XJqUOZuZrgThWjBuBHA1Ey7UGc88MF5wVXpeLiqvOfvYEJ2FPwsbl2mlpCut/GhX0weaCj3pPtFUzA+0Nv1uOEccMRAt29uJxcVGheQf+H2Ny/UheaC1oafT570eoJd0Sd6qlFXUoP0/CSMLgPYN0eA9iY4NNDQM5gdtFwHYo9O//6qqqrLrj//gg6ZDAV/Tbwm8PI57uSXg835tj2/bdqxfrwFAQ0ODGvA1PqeBzoFuOkgwViTXYdwLYHgr5daOXdsOxH2G5u3vM/BCrPKS19/ivcnf2nR/vOLnbHftGUy4P0qud328Y8dnCd93S9M6hqHl+JfDS1M/x0o+RLwCoZpm5WAdAfcRcB+A/wT4cQANAHoMETfjq0LQG64Kz9p582rGZUX0voHxuwFzOfOx4jkr9Fa65+zd7dULYtfe3d7uRMd3tm79BxE26/KppEUpDfjfup8WJK0hlHvmArgq6iX+KdXmg7a2hsMMulMnSGe3lpvQqGhCfGy0lXkJ++VHComP6Aqg7kTHu+YvmsoctVWZ0Z5UccgQlRSnULRfRKUUQUc/v5gyxD009j4Ae3U/fyerDJs5q+8BhvetG37tTWw8Rby+jN/v9Hnv7PR57/T7vN/y+5pW+33es/0lp54CKZfqI77IhVcF8+nNTBbojBAdVz01CODvGUou02TnpWyrqGSiCsjA67EWGZOTGpMwQaIr4ROnV1XlJzZY/I2YcJLQZOZBJon+DQAO6JibsKeeGAoaQs7O5teTNihgor/olMWZcHybo0T3HEkrw1LCrxN0wnspqqo9lcDRu7J2mWmu0N6+eYhZ37eAv+hcUJ/xNwKYSMmK6JLHx/F1nyS+njRej0R8vV2/XvPv3LbF7/MuIdCNMDa+qBqj9P/fzIkeVrI3MgzB0xe2DcGeqzYGMn1Xab7Z/brbNTOlGLMRwSHGjU8yfq2uDnDAzG01NzeHmPGK7sGqE74ooRieu6qqSkkeisvPzOaSTJynk9PspGMrseEqQSZUdkWiOjr2Y9CBNNRro8FFaOrizFPs7Dw6C3Iaw3m5M7EfJKNHF6GUOtzpa3yYGT+Oo/zXzHLXTM+Y6Ax+5X/Ko5OCD7ORddQ/Ur80qfXp7tfMi445R1NDyc6ZGavUZLoNkCB6R/fT1ETJEClGovf2Tkn6LEJCP1vgSHyw2K97rV9MmphpMYZAkl3ZmvAVMM+MZSofNiujogJbGxD7HAqTKY8u46x1Z0HZhe6M+UZjJLYlOSHj640Jdd8LQD/LoNhB52ZM9F62NwL4LH3WZeDRFTomUwaR1RvJDxGKZnhVqe8w5hzFZk9WqY1ROpWk+YYaLPWry3Kc9fU5Zj364OSepEoUYkVfK0gYAUzAkfd1xaCZzoraC5K4xnOilODVZCvwBMV+3ovIfJU6ssipK5bAnHHTEpZSyY7n8Oi8Toe/pXFX4hOMqUK8FXvxazltQSKjA2bAlTHRsWp9EIy0P5uU9mSFAI+B/f4shC3T8c5SXxGl1KE/EcUQnQYGkp0zpDPgU80+iEasLyQGAw0NcdcXHFH6DfdQ0JeTXGntPGhMJ+NHQZFZi9/HyoF/NbN88QxD4a6sZh7zSGvwT4Vd3JiigjWoSxPSzLGpJ9bGwFTUJNhIapGFR3dW1izSR3ACeDxF6mj8GpIqTBsbhnFPPSP9OoOIDQ/l42k/fZqhO9vR0XXN+oMZypoQtWyXkZroSgbFF8mxDxXPm0bhnzpyuNMI3fX1gs7EnM03TL0NjR1IW2nr6+sTnhMKaj8CYopsM+1Cebe4wnNjcbln7pwFdbOK3Z7LoNAWhOfx9wpNnp1qPT3rw0+mM0pLSx3mXzrHvEMpYGqvgISwG9U181CaWOhmZOgziNyHkzsNNnp0lo406KUax5Rpr3uJUbTui1/aNWHditcYWHqcSmNggZ9lKuiSkmUOLcqYCxOhu8pajojZg5A61yCdxYyXH0f9tSVqNRNA+FIaqlOo+2FH4nxbdehvQh3KS1tpu7ryFCSY9+1q236wuMpTzxrWgbBoODVhwq9BAKsjwdQAER4A5f6ww/d6b2rDKVtErE/JOWwrrAHwpkllL4x6a1rIFnzHlHQFO+K0fM0odC+u8nhY8gWx9yW/5W9O/vzMJPTZompX0jFyMwylEqZGQy2jrM4lbFxDUrKEsBOxNiQGNgxP9Yo4Zuun6TE3jRxd4SM9qzc9mSnRFaXPoVOA1KRlkckuuRgDOGAfkontnGzQ/TC/qLzOnFeXdJpOKV5I/ByaQTnU0FDaRO8vOJBU0TubvXv9rd5qAl2Mo9NGn4DhZeAJgK8J2oOzOlu8t3U2v26qWyAVOHzQdUVVFFxh5tzpVVX5iJoBIMLWZAttdGml7Vh49LlV9aewxBrdz38ItDb9zkwYYHzvmnmdJNKtiqN3/D5vTJV/zoK6WWST88AYBKiMBM8I5WrPO2TuFcMcN9xE98pNjQBeNh/OmHfpnCN+iixwuCDkMMQHKeNjmQnRY8igDDhkklzkOYTXmR+9pCJ/YlJ40VNz/wj8y7SXExfWbAai5zpsaXunCYPjUsts5UpisBPABIDWFhXYivyt3tqAz3u139e0xizRhhFoaBhkxNZ/mOnfnVWLT0t1bq7MXxybruGX5hNT41ZoYkqrS8vUsiVjglLdBGBuVP64mQts15qMRowfbWAy1f/BWVm7FLFVfkmCbzdcIyRrAy3ePwN8ZjBPu4fA7yn94kw1KNcVVXqWI1FhRoP8NgBze1/NFuMcdKD7mo33ZkN0EbLnpCp0xHmxjvRDkNjwTii2hNYs0NrQw6AHdF79q66K2muSXSHSI3zZiBSZbxpexhrf8rAh31RtSnKihyjXUNSzJ19H4KyornC179sG4H4AeSDZodvemxFYE7/QGUQ7acpTMxcvzkvBlJui5PpyWps8ZJyiH9ElZleXOSuqK/Jt/c0Utb6BgSfygt0rEhVNjemDsXtTZF07UukHMesWC9Ftnc1eb5xnGikI2weVbzHT8hybfXdX2/aDwwt84hLl0KqXPkB43fMxq8VJh3ZttsoipK7vPGGGCa95mk7KU1MUq2wIe7Ojpyha0uWdaq76EwbadNd9uNhdG7fNUMmiReMVFc8Oeypi/p6/tekvKXI9p4H8mpr0+W0idlorHAPJU5PkobOJxA4AC6Pk9R1XZe3Trsqam4sray5yuevqZrtrz5hTVj0FaWwwCW+R1S37JSyyDyp/cs1fNDW+R6u5LooU74VC2jfMXm/GwoWT4hOKS/KV/nddbs8VkWcwpApF5TVnu9y1zxGJdyIbp0DAx2CsCvi8V5ttADFvXs04MM6Jo5RXutyey7FypcFQl5bWj3VV1tysqHgXwPDCmAEA3/D7Gh+KrxtHI1tNxa+J0P1hc8OnAIhEeA1CYu8W7vX+NvSb7PWOukeBOpjc4LODfN3Xb6zMhNyRPd51TFgExvXQTW8AvIEYL5KQb3e0bG8fJpIcsnmYxJlgvg2x87YhEJ5ipjcoFHzT///e3j+s5JD4CgNfA/BlQ3UV/DtmagSUBt2utLBSLqifRqr6JoyN/99i4qcEUZumsl0IqgRwB8KLY0IMfDvg8z6YyEwVVXpWCCY3wFdHvfhhY+ID0x+ZqX2S0v/q8MYel7uujonPJObL4ry/LhA9R5Db5Xj7q9GeqbS01NHvmNBhlHFiGwfgIwLeZ+Y3lBz10fa33+5L7iU9PyTCPQb5Ep4kKd9kFp9CkU5I+jfQ8IYi3io0Xplok03M+G7PdwGqI3AdgLEmnmEAoI9B8hCYCgHM0tVoDoD4cccR/NzMst2SsvqZ0qZ+m0Gng3khjB+QiEYfgE4idDNDQ3grdinC+/2HI71nSKG7O5u9exMN4iqvXhJS+V27Q7mrqMB2597e0PfJpjwuNVkhoL3X0bK9PWkYW/jsCicUvAtgUsJjDuWh70h/srLWYL7DMSPTKbU5lXVfkiz/auLQP/t93mWRl30rwdiiN0594a7O1qZ7w+TwPADgVhO1x2XhfCi+BR/Kw4+I6BYk796jEeMlKOKHnc1bE37YsqisziUUabLtlHRG2juRy+0JwkT3IAIv6PQ1vRsj74raGkn8cgoFTYR/QtJ5/p2NO5IdVOSuWUaghwgp2owzOgH6eVGh8qSZ9MFZtfg0ksp7WacZ4YYmOwTx8xNo8E/6nZHJ4Kr0PApGtp8G3wfQBmZtjdkWVc7KmktIE37/zsYd4Y5DtuUE2e/3Nb2EVMrQc9nGQMG6Cy8j8GYkWFVVYBuDPiQgugAreeLCrqsynjeHDA61wWa7A4L6IiFsH0U6eZLAWAbsADtIHp1bFUK8KaW8U4D6mOL052LKYXA+hNgcVeb4IxRu018jPCATQIXMLCDtCXfdRSz+7a75i+6Dw74cEl+OpBdTQBgiiX9IQoMqtQ1mWjsNIvdAPvWvh+QhgPrDe6m5N5IyTYgYnrFExP45M7rgGylCrGHCRDD6wNAI1A/BxBJ5IBYgKgCAI+oYAyk6WhubZpYvnu8Qyv0MXJrm65oMwZtnLFw4N1nBbo+vaXN9ff1pe3u1sxhyOUjMA3g6GDkA7wOJHVKTr+7Z2fQ3ANLsHmolRAelwCoi2Dje6jvGONbpvAjv2uwBqFcCn0qVk+6INGEmXmdQx9F6IPLARxuaMGL/H+5fhh5J/N/EokuzcUsmPQUDLU1rXZW1ZcUVnq/JIdY0yK0f+Zo+iSogpkbh2hXfBxkX2I8RuSjXivDW/vfjkzQPD/as3vRNWBhVKC73zGWBtQBOB/AIM70ZKX2OY5ZjBdG0SBuuhZEURB8qfM/f4v2pJckTB6aaQ/ZcsvEnhWtXFIDwrRgDIMagxDENb8FIdM7DWovkow+uytqvs+TfAOhhlmemCh2LKz3nMeORmPoB8wJLkicWTFdNe1ZtvIOJYz5ON902EfUFpYadqpxLm7tXb7rUEu/ogtPtuRfMfwAhR5G8zEx+2NnifVmRvARRbZ84zdZKFk4gooPAvW3um8AYKfEX2U9BvpKLqWMmjiQCnMdPd1+78V8t0Y6ycN3tuZ2AOyPvcVP7zqY2s+dGjt12NO8k6yu5o5boAHDPPbLnko23gvl2AFppTrj55W1F58HhsIc4X9zQvfqlyy2xjjoQR7VnZsld6Q4Qs3GF+WVLpKOZ6CM5+6ZfFij558xzzGAAmJ0zGQ+Vrr6v++oXf2uJdPRh9hc8hQAmRnnksgyGKY8EdX/3l0x/xZLqSUB0ANjzb8+8KXC0m8p4ytlqiXN0Yu9ubzcB0dN9X3JV1JxjOuyvqPn3yJx4UIO8JtlSXgujjOgRDId4rNjVFkucoxcS9Gh0KA/QBmdlzSWpznO5ay9moscAqARcuce3bbslzRMwN8vm5D97t24GcC4Dncs8dXMscY5eOOvrc6kvtA1M+i22O5j4WQKaSaP9pGhSZZosiKoQ7jJTA+AAE10RaGl8zZLkiYnsPrLI+AgEELDbEuXoRqChYXBm6eKv2B3KWoS/rzaMhcS0EAhvCmZWIl/9AABoAD8uNL7bzDp0C6OV6IRwCyGidkuUox+R76UtKXbXXsTg6xH+jpzDGOXzTrB4mVl5ItDaELAkd5ITncB7GQQCW/OmJw+409e4AcCG0tJSx0DupHksMYGElIDoDTpC7WY+OmnhZPPoDICl5dFPQkT2XVtp2UmArKruIifYzEyrRG5ohyVKCxYsWLBg4XPE/wcmREg3BUOANQAAACV0RVh0ZGF0ZTpjcmVhdGUAMjAyNC0wNy0xM1QxMToxMDo1MSswMDowMNvt4+sAAAAldEVYdGRhdGU6bW9kaWZ5ADIwMjQtMDctMTNUMTE6MTA6NTErMDA6MDCqsFtXAAAAAElFTkSuQmCC;imageBorder=none;imageBackground=light-dark(#FFFFFF,#FDFDFD);" vertex="1" parent="1">
          <mxGeometry x="179" y="348" width="91.91" height="25" as="geometry" />
        </mxCell>
        <mxCell id="yabJzohfQcr6jpo9jlKl-48" value="" style="curved=0;endArrow=classic;html=1;rounded=0;entryX=0.003;entryY=0.467;entryDx=0;entryDy=0;entryPerimeter=0;exitX=0.975;exitY=0.373;exitDx=0;exitDy=0;exitPerimeter=0;fillColor=#1ba1e2;strokeColor=#006EAF;strokeWidth=4;" edge="1" parent="1" source="mzmcX6kReQTpVKNeZ8k2-54" target="yabJzohfQcr6jpo9jlKl-7">
          <mxGeometry width="50" height="50" relative="1" as="geometry">
            <mxPoint x="259" y="297.5" as="sourcePoint" />
            <mxPoint x="309" y="250" as="targetPoint" />
            <Array as="points">
              <mxPoint x="360" y="298" />
              <mxPoint x="439" y="240" />
            </Array>
          </mxGeometry>
        </mxCell>
        <mxCell id="yabJzohfQcr6jpo9jlKl-5" value="Persistor" style="ellipse;whiteSpace=wrap;html=1;fillColor=#e1d5e7;strokeColor=#9673a6;" vertex="1" parent="1">
          <mxGeometry x="446.41" y="203" width="100" height="50" as="geometry" />
        </mxCell>
        <mxCell id="mzmcX6kReQTpVKNeZ8k2-66" value="" style="rounded=0;whiteSpace=wrap;html=1;fillColor=#f5f5f5;fontColor=#333333;strokeColor=#666666;" vertex="1" parent="1">
          <mxGeometry x="40" y="27" width="230" height="60" as="geometry" />
        </mxCell>
        <mxCell id="mzmcX6kReQTpVKNeZ8k2-32" value="" style="shape=image;verticalLabelPosition=bottom;labelBackgroundColor=default;verticalAlign=top;aspect=fixed;imageAspect=0;image=data:image/png,iVBORw0KGgoAAAANSUhEUgAAAD8AAAAfCAYAAABQ8xXpAAAAAXNSR0IArs4c6QAAAARnQU1BAACxjwv8YQUAAAAJcEhZcwAADsMAAA7DAcdvqGQAAAH6SURBVFhHY3x7yPA/Bxsjw0gCP379Zwgqec7ANNI8DgIgPxdGCTIwQfkjDtgacYxcz4Nif8R6HgRGtOcZv54w+g9lYwBui3NQFgIA1YNpbHIgMLNWniHGW5hhyda3DOnNDyGCaICQGTBga8QLNEsITMtLsoHF0PWA5HZMU4XySANUj/lHz3+h0JSAw+c+gwNw6da3EAEqA6p7/iHU0zCaGuDQuS9QFnXBoPI8LAnDkjgMgFIALQDVPQ9zKLkOBgWAnCQ7lEc8AJUxbXOeg+0lNuBpUtrTKqawgUfPfzJ4ZN0Glw2tQM+D2J5Zt4gKAKp5HjmpIluMnoSpDUB2oQc2SAxXTYMMaBLzS7a+g7IYyErCpABQ4IKqV3LKCap5HpRXYYCeyR4UuKB2BbL9xAKaJHtkYGfEA2UNPkDFmMfuSVzigwFQNc/TunCjNqCq59ELt8EeGDSNeVqX9JQCqnoePX+TU9iBWmqk1hbY6npiAFU9TykAeQBb4wRf9gHpwdaiIybL0TTZU6ukB9XjpAJi9FA52aM2NKiR56tTJBmqgBgGQHYgY1DrDiQPYsMCHyZGCOAdyRnuYFDleXqDUc+PRACashqxnj987gcDEygERhoA+bl/2XsG5pNXGRrEBFkYpMVYGFiYh/ekJcjT+0//YCjsfc1w+c4vBgBLArcEJnHrtwAAAABJRU5ErkJggg==;" vertex="1" parent="1">
          <mxGeometry x="52" y="63.17" width="30" height="14.77" as="geometry" />
        </mxCell>
        <mxCell id="mzmcX6kReQTpVKNeZ8k2-33" value="" style="shape=image;verticalLabelPosition=bottom;labelBackgroundColor=default;verticalAlign=top;aspect=fixed;imageAspect=0;image=data:image/png,iVBORw0KGgoAAAANSUhEUgAAAC8AAAAtCAYAAAA+7zKnAAAAAXNSR0IArs4c6QAAAARnQU1BAACxjwv8YQUAAAAJcEhZcwAADsMAAA7DAcdvqGQAAATgSURBVGhD1ZlPSGVVHMePExFGaNRiXISO0GxCHBdBLUYa2xTqYqA26WKmpatylbjJCMRWU4twmQNqq4gWSq00tKhNWEqLpsgnE8wUM2T0B0p6vc955/feeT/Puffc+yzyA4/75z3u/f5+5/v73XPu6zDGVGufU8kZtz2VnGrxJ2qbcz2d5sozj9jtuZ773bbT7N/6w37Pdv/W7+bjL+/a/c2dO/Z8WdoWL4KvPlsXXQQCWPrwpnnt+g13philxYvouavn3ZnylA2ilPhLQw+bjWtPuKOTo2gQhcW/euV8Zrbrvm76GX+LnfrOdtrALw09ZI9DFAmgkPiNa09Gb7y5c9feMKUICYYgsF3segTw4htfuaMwyeJjwskUN8kT3dvba/r6+kylUjEHBwfurLGFzmiGij0vgKQ+z8VDwueWbpj+FzYyhQ8PD5u1tTWzt7fXsp2cnLTfI3Bk+jN7LY0EFuOe2meuvhuG4V2aGXRHTUamPzfXP7rpjsKIcDLuw/H4+LipVqt2FCo/3LG1AdzPh+fF4W9HZufbX9yZJrm2qW6Mur0mCE/xNlnGLllsbW2ZqamphpVCDQFrMsKaTNuEhozhTRE+MzOTKxwYncXFxcZvKXqs5EM9vPPK8dHPFK8zIB0lBUT5kGE+IUIBkG0fbSeIig9lPVW4Zn5+3oyNjTU+frcR/AAQru9F9rWmqOe/f3ekpX2l9F3pIIgTIewPDAzY8wLn19fXG5n2kRo48+dPNatcaOly2vtR8bpQs4qUrOFxbRWhq6vL7TVJCeDpx/4+5nVfR9A29FdNlnDaYUw4EJiGERkdHc200Dc/3ufONHnqQnMkguL9H4Cufh+E5zE7OxvMcFYA8OkX39km4eMXblA8DwYfXflCKKMxYj0/FAC2obCBxUuMiPjWeUbldli8ZmVlxXaWWCZTAvCFg06cry1JvH8Bbo5VyLr/2Ec0RbawsGC7C4GEyAvAF55HUHwMbkohUVD42C/S1dVVt1eHQMoEkEdu5kND5QsXQgJ8ygSgyXJBknhWQOLHWHYmJibcXisnEYBPrniNtCf8vLy8HAwAG8W6TyyArGQIek7jd5/gfL6j9ty9fPGsO6rz1nv7dru9vW2fmBRrd3e3PSdgKebo/EZDkZPlwcH6E1N3lRBYRk8O0SFz+6D4n3/9y7z8fL87MubBB+5tvCgCxO3u7lqxZQI4PDxM6iqXL/YcS+L021/X9B3Z/ejcRq9ZedKxXPNBqEzANLRObNYOenIIHSPrbi9jGaitw0X87AN+LTMCKTC/0nMsFkKyXISoeG0doHjE+8K/EQCJYuQ1zCh9MsQf2WmBn328z4U/+OS2O1MnLwD5PpX3X3/8mF101iEqHsg+RYNoYejR+txcXygWAF2lyAQu9n5IZx1yxB/Z1w664pl1Sgfy0QGktEMfFh76XoBw/eCETPEgPdV/WCBcjmMBQOypq8EiWCUkHLvE3g9FW6Um9D4FyAiLlbKL89h1IdSefXIzL1C82Eg/rmUUaGtYjDqRh0gMMv3Sc/1m80383Xo9IU84JGdeyMqUwGjImhdbMbEDRIfWxxqskjKShcUD2aK4dDtrF4JOeeMslBIPCD+Vf+v4SBCMRqg/Z9Fusbct3odACIJXJ1l/ZbItK9jnRMX/1xRagP+/MOYfl0cQpPYixx4AAAAASUVORK5CYII=;" vertex="1" parent="1">
          <mxGeometry x="52" y="34.43" width="27" height="25.88" as="geometry" />
        </mxCell>
        <mxCell id="mzmcX6kReQTpVKNeZ8k2-34" value="&lt;font&gt;Metacritic: Games/film reviews&lt;/font&gt;" style="text;html=1;whiteSpace=wrap;strokeColor=none;fillColor=none;align=center;verticalAlign=middle;rounded=0;fontSize=12;" vertex="1" parent="1">
          <mxGeometry x="94.92" y="32.370000000000005" width="176.16" height="30" as="geometry" />
        </mxCell>
        <mxCell id="mzmcX6kReQTpVKNeZ8k2-35" value="&lt;font&gt;IMDB : Video Info&lt;/font&gt;" style="text;html=1;whiteSpace=wrap;strokeColor=none;fillColor=none;align=center;verticalAlign=middle;rounded=0;fontSize=12;" vertex="1" parent="1">
          <mxGeometry x="88.91999999999999" y="56.650000000000006" width="117" height="24.69" as="geometry" />
        </mxCell>
        <mxCell id="yabJzohfQcr6jpo9jlKl-1" value="Web" style="ellipse;shape=cloud;whiteSpace=wrap;html=1;fillColor=#dae8fc;strokeColor=#6c8ebf;" vertex="1" parent="1">
          <mxGeometry x="59" y="80" width="120" height="80" as="geometry" />
        </mxCell>
        <mxCell id="mzmcX6kReQTpVKNeZ8k2-67" value="&lt;font style=&quot;font-size: 16px; color: light-dark(rgb(0, 0, 0), rgb(255, 255, 255));&quot;&gt;&lt;b&gt;Ingestion&lt;/b&gt;&lt;/font&gt;" style="rounded=1;whiteSpace=wrap;html=1;fillColor=#f8cecc;strokeColor=#b85450;strokeWidth=4;" vertex="1" parent="1">
          <mxGeometry x="159.47000000000003" y="430" width="118.53" height="50" as="geometry" />
        </mxCell>
        <mxCell id="mzmcX6kReQTpVKNeZ8k2-28" value="" style="image;aspect=fixed;html=1;points=[];align=center;fontSize=12;image=img/lib/azure2/general/Download.svg;" vertex="1" parent="1">
          <mxGeometry x="146.45000000000002" y="136.2" width="25.79" height="27" as="geometry" />
        </mxCell>
        <mxCell id="mzmcX6kReQTpVKNeZ8k2-29" value="" style="image;aspect=fixed;html=1;points=[];align=center;fontSize=12;image=img/lib/azure2/general/Bug.svg;rotation=15;" vertex="1" parent="1">
          <mxGeometry x="108.92" y="141.9" width="27.22" height="29.52" as="geometry" />
        </mxCell>
        <mxCell id="mzmcX6kReQTpVKNeZ8k2-69" value="" style="image;aspect=fixed;html=1;points=[];align=center;fontSize=12;image=img/lib/azure2/other/Azure_A.svg;" vertex="1" parent="1">
          <mxGeometry x="546.41" y="104.53999999999999" width="37.61" height="35.46" as="geometry" />
        </mxCell>
        <mxCell id="mzmcX6kReQTpVKNeZ8k2-71" value="" style="image;sketch=0;aspect=fixed;html=1;points=[];align=center;fontSize=12;image=img/lib/mscae/Docker.svg;" vertex="1" parent="1">
          <mxGeometry x="350" y="-31.72" width="50" height="41" as="geometry" />
        </mxCell>
        <mxCell id="mzmcX6kReQTpVKNeZ8k2-72" value="" style="shape=image;html=1;verticalAlign=top;verticalLabelPosition=bottom;labelBackgroundColor=#ffffff;imageAspect=0;aspect=fixed;image=https://icons.diagrams.net/icon-cache1/Social_Media-2000/social_media_social_media_logo_docker-1351.svg" vertex="1" parent="1">
          <mxGeometry x="94.92" y="183" width="48" height="48" as="geometry" />
        </mxCell>
        <mxCell id="mzmcX6kReQTpVKNeZ8k2-73" value="" style="shape=image;html=1;verticalAlign=top;verticalLabelPosition=bottom;labelBackgroundColor=#ffffff;imageAspect=0;aspect=fixed;image=https://icons.diagrams.net/icon-cache1/Social_Media-2000/social_media_social_media_logo_docker-1351.svg" vertex="1" parent="1">
          <mxGeometry x="283.08000000000004" y="180" width="48" height="48" as="geometry" />
        </mxCell>
        <mxCell id="mzmcX6kReQTpVKNeZ8k2-74" value="" style="shape=image;html=1;verticalAlign=top;verticalLabelPosition=bottom;labelBackgroundColor=#ffffff;imageAspect=0;aspect=fixed;image=https://icons.diagrams.net/icon-cache1/Social_Media-2000/social_media_social_media_logo_docker-1351.svg" vertex="1" parent="1">
          <mxGeometry x="443.40999999999997" y="210" width="48" height="48" as="geometry" />
        </mxCell>
        <mxCell id="mzmcX6kReQTpVKNeZ8k2-75" value="&lt;font style=&quot;color: light-dark(rgb(102, 0, 0), rgb(199, 0, 0));&quot;&gt;&lt;b&gt;INSA&lt;/b&gt;&lt;/font&gt;rama Data Pipeline" style="text;html=1;whiteSpace=wrap;align=center;verticalAlign=middle;rounded=0;fontSize=28;fillColor=#f5f5f5;fontColor=#333333;strokeColor=#666666;" vertex="1" parent="1">
          <mxGeometry x="689.25" y="460" width="442.75" height="40" as="geometry" />
        </mxCell>
        <mxCell id="mzmcX6kReQTpVKNeZ8k2-76" value="" style="rounded=0;whiteSpace=wrap;html=1;" vertex="1" parent="1">
          <mxGeometry x="340" y="520" width="810" height="90" as="geometry" />
        </mxCell>
        <mxCell id="mzmcX6kReQTpVKNeZ8k2-77" style="edgeStyle=orthogonalEdgeStyle;rounded=0;orthogonalLoop=1;jettySize=auto;html=1;fillColor=#1ba1e2;strokeColor=#006EAF;strokeWidth=4;" edge="1" parent="1">
          <mxGeometry relative="1" as="geometry">
            <mxPoint x="379" y="542" as="sourcePoint" />
            <mxPoint x="439" y="542" as="targetPoint" />
            <Array as="points" />
          </mxGeometry>
        </mxCell>
        <mxCell id="mzmcX6kReQTpVKNeZ8k2-79" value="" style="rounded=1;whiteSpace=wrap;html=1;fillColor=#f5f5f5;strokeColor=#666666;strokeWidth=5;fontColor=#333333;" vertex="1" parent="1">
          <mxGeometry x="369.14" y="567" width="80" height="30" as="geometry" />
        </mxCell>
        <mxCell id="mzmcX6kReQTpVKNeZ8k2-80" value="Stage" style="text;html=1;whiteSpace=wrap;strokeColor=none;fillColor=none;align=center;verticalAlign=middle;rounded=0;fontSize=16;" vertex="1" parent="1">
          <mxGeometry x="489" y="568" width="60" height="30" as="geometry" />
        </mxCell>
        <mxCell id="mzmcX6kReQTpVKNeZ8k2-81" value="Data Flow" style="text;html=1;whiteSpace=wrap;strokeColor=none;fillColor=none;align=center;verticalAlign=middle;rounded=0;fontSize=16;" vertex="1" parent="1">
          <mxGeometry x="493" y="530" width="80" height="30" as="geometry" />
        </mxCell>
        <mxCell id="mzmcX6kReQTpVKNeZ8k2-82" style="edgeStyle=orthogonalEdgeStyle;rounded=0;orthogonalLoop=1;jettySize=auto;html=1;fillColor=#f5f5f5;strokeColor=#666666;strokeWidth=2;" edge="1" parent="1">
          <mxGeometry relative="1" as="geometry">
            <mxPoint x="636" y="544.76" as="sourcePoint" />
            <mxPoint x="696" y="544.76" as="targetPoint" />
            <Array as="points" />
          </mxGeometry>
        </mxCell>
        <mxCell id="mzmcX6kReQTpVKNeZ8k2-83" value="Message/Query" style="text;html=1;whiteSpace=wrap;strokeColor=none;fillColor=none;align=center;verticalAlign=middle;rounded=0;fontSize=16;" vertex="1" parent="1">
          <mxGeometry x="741.49" y="530" width="80" height="30" as="geometry" />
        </mxCell>
        <mxCell id="mzmcX6kReQTpVKNeZ8k2-84" value="" style="ellipse;whiteSpace=wrap;html=1;fillColor=#e1d5e7;strokeColor=#9673a6;" vertex="1" parent="1">
          <mxGeometry x="630" y="568" width="70" height="30" as="geometry" />
        </mxCell>
        <mxCell id="mzmcX6kReQTpVKNeZ8k2-85" value="Docker Container" style="text;html=1;whiteSpace=wrap;strokeColor=none;fillColor=none;align=center;verticalAlign=middle;rounded=0;fontSize=16;" vertex="1" parent="1">
          <mxGeometry x="722.49" y="568" width="128.51" height="30" as="geometry" />
        </mxCell>
        <mxCell id="mzmcX6kReQTpVKNeZ8k2-86" value="" style="text;html=1;whiteSpace=wrap;strokeColor=#666666;fillColor=#f5f5f5;align=left;verticalAlign=middle;rounded=0;fontSize=10;fontColor=#333333;" vertex="1" parent="1">
          <mxGeometry x="929.25" y="532.5" width="80" height="25" as="geometry" />
        </mxCell>
        <mxCell id="mzmcX6kReQTpVKNeZ8k2-87" value="Indications" style="text;html=1;whiteSpace=wrap;strokeColor=none;fillColor=none;align=center;verticalAlign=middle;rounded=0;fontSize=16;" vertex="1" parent="1">
          <mxGeometry x="1037" y="532" width="80" height="30" as="geometry" />
        </mxCell>
      </root>
    </mxGraphModel>
  </diagram>
</mxfile>
